<svg data-name="Layer 2" xmlns="http://www.w3.org/2000/svg" viewBox="0 0 200 200">
    <path d="m90.02 0-.58 14.41L88 50.44l-1.28 31.91-1.47-.72-11.53-5.64-7.69-3.76 5.2 6.8 7.8 10.2 1.02 1.33-30.98 7.51-35.05 8.5L0 109.97l14.41.58 36.03 1.44 31.91 1.28-.72 1.47-5.64 11.53-3.76 7.69 6.8-5.2 10.2-7.8 1.33-1.02 7.51 30.98 8.5 35.05 3.4 14.02.58-14.41 1.44-36.03 1.28-31.91 1.47.72 11.53 5.64 7.69 3.76-5.2-6.8-7.8-10.2-1.02-1.33 30.98-7.51 35.05-8.5 14.02-3.4-14.41-.58L149.55 88l-31.91-1.28.72-1.47L124 73.72l3.76-7.69-6.8 5.2-10.2 7.8-1.33 1.02-7.51-30.98-8.5-35.05L90.02 0Z" style="fill:none" data-name="Layer 4"/>
</svg>
