<svg width="1165" height="808" viewBox="0 0 1165 808" fill="none" xmlns="http://www.w3.org/2000/svg">
<mask id="mask0_249_2976" style="mask-type:alpha" maskUnits="userSpaceOnUse" x="0" y="0" width="1165" height="808">
<rect width="1165" height="808" rx="50" fill="#C2C2C2"/>
</mask>
<g mask="url(#mask0_249_2976)">
<path d="M591.649 386.232H584.231C583.42 386.232 582.766 385.577 582.766 384.765C582.766 383.953 583.42 383.298 584.231 383.298H591.649C592.46 383.298 593.115 383.953 593.115 384.765C593.115 385.577 592.46 386.232 591.649 386.232Z" fill="#A1A1A1"/>
<path d="M874.207 532.89H506.61C505.799 532.89 505.145 532.235 505.145 531.423V384.765C505.145 383.953 505.799 383.298 506.61 383.298H572.486C573.297 383.298 573.952 383.953 573.952 384.765C573.952 385.577 573.297 386.232 572.486 386.232H508.076V529.956H873.132L893.126 466.583C893.371 465.81 894.192 465.38 894.964 465.624C895.736 465.869 896.166 466.69 895.921 467.463L875.605 531.863C875.409 532.469 874.842 532.89 874.207 532.89Z" fill="#A1A1A1"/>
<path d="M898.062 457.302C897.915 457.302 897.768 457.282 897.622 457.233C896.85 456.989 896.42 456.167 896.664 455.395L901.228 440.93L806.143 418.593C805.478 418.437 805.009 417.85 805.009 417.165V386.232H654.026C653.215 386.232 652.561 385.577 652.561 384.765C652.561 383.953 653.215 383.298 654.026 383.298H806.475C807.286 383.298 807.941 383.953 807.941 384.765V416.002L903.436 438.436C903.837 438.534 904.169 438.789 904.374 439.141C904.58 439.493 904.619 439.923 904.502 440.304L899.459 456.285C899.264 456.91 898.687 457.311 898.062 457.311V457.302Z" fill="#A1A1A1"/>
<path d="M642.28 386.232H603.396C602.584 386.232 601.93 385.577 601.93 384.765C601.93 383.953 602.584 383.298 603.396 383.298H642.28C643.091 383.298 643.746 383.953 643.746 384.765C643.746 385.577 643.091 386.232 642.28 386.232Z" fill="#A1A1A1"/>
<path d="M788.504 532.89C787.693 532.89 787.038 532.235 787.038 531.423V486.886H756.108C755.297 486.886 754.643 486.231 754.643 485.419C754.643 484.607 755.297 483.952 756.108 483.952H788.504C789.315 483.952 789.97 484.607 789.97 485.419V531.423C789.97 532.235 789.315 532.89 788.504 532.89Z" fill="#A1A1A1"/>
<path d="M744.361 532.89C743.55 532.89 742.895 532.235 742.895 531.423V486.886H710.568C709.757 486.886 709.103 486.231 709.103 485.419C709.103 484.607 709.757 483.952 710.568 483.952H744.361C745.172 483.952 745.827 484.607 745.827 485.419V531.423C745.827 532.235 745.172 532.89 744.361 532.89Z" fill="#A1A1A1"/>
<path d="M698.822 532.89C698.011 532.89 697.356 532.235 697.356 531.423V485.419C697.356 484.607 698.011 483.952 698.822 483.952C699.633 483.952 700.288 484.607 700.288 485.419V531.423C700.288 532.235 699.633 532.89 698.822 532.89Z" fill="#A1A1A1"/>
<path d="M744.645 498.661C744.547 498.661 744.44 498.661 744.342 498.661C743.55 498.641 742.905 497.996 742.905 497.194V485.478C742.905 484.666 743.56 484.011 744.361 484.011C745.172 484.011 745.827 484.666 745.827 485.478V495.659C747.997 495.404 750.01 494.446 751.583 492.901C753.547 490.974 754.632 488.314 754.632 485.419C754.632 484.607 755.287 483.952 756.098 483.952C756.909 483.952 757.564 484.607 757.564 485.419C757.564 489.116 756.166 492.519 753.626 495.003C751.202 497.37 748.016 498.661 744.625 498.661H744.645Z" fill="#A1A1A1"/>
<path d="M715.143 466.397C714.332 466.397 713.677 465.742 713.677 464.93V453.155C713.677 452.363 714.322 451.708 715.113 451.688C718.641 451.62 721.925 452.911 724.417 455.346C726.957 457.83 728.355 461.233 728.355 464.93C728.355 465.742 727.7 466.397 726.889 466.397C726.078 466.397 725.423 465.742 725.423 464.93C725.423 462.035 724.338 459.375 722.374 457.448C720.791 455.903 718.788 454.955 716.618 454.691V464.93C716.618 465.742 715.954 466.397 715.152 466.397H715.143Z" fill="#A1A1A1"/>
<path d="M763.486 418.632C762.675 418.632 762.021 417.977 762.021 417.165V405.39C762.021 404.598 762.665 403.943 763.457 403.923C766.985 403.845 770.268 405.146 772.76 407.581C775.301 410.065 776.699 413.468 776.699 417.165C776.699 417.977 776.044 418.632 775.233 418.632C774.422 418.632 773.767 417.977 773.767 417.165C773.767 414.27 772.682 411.61 770.718 409.684C769.135 408.138 767.131 407.19 764.962 406.926V417.165C764.962 417.977 764.297 418.632 763.496 418.632H763.486Z" fill="#A1A1A1"/>
<path d="M894.435 468.461C894.289 468.461 894.142 468.441 893.996 468.392C890.478 467.277 887.653 464.911 886.061 461.742C884.487 458.632 884.253 455.082 885.386 451.767L885.846 450.407L898.423 454.388C899.195 454.632 899.625 455.454 899.38 456.226C899.136 456.999 898.315 457.429 897.543 457.185L887.79 454.094C887.38 456.246 887.683 458.446 888.68 460.412C889.921 462.877 892.129 464.705 894.885 465.586C895.657 465.83 896.087 466.652 895.843 467.424C895.647 468.05 895.071 468.451 894.445 468.451L894.435 468.461Z" fill="#A1A1A1"/>
<path d="M699.106 498.661C699.008 498.661 698.901 498.661 698.803 498.661C698.011 498.641 697.366 497.996 697.366 497.194V485.478C697.366 484.666 698.021 484.011 698.822 484.011C699.633 484.011 700.288 484.666 700.288 485.478V495.659C702.458 495.404 704.471 494.446 706.044 492.901C708.008 490.974 709.093 488.314 709.093 485.419C709.093 484.607 709.748 483.952 710.559 483.952C711.37 483.952 712.025 484.607 712.025 485.419C712.025 489.116 710.627 492.519 708.087 495.003C705.663 497.37 702.477 498.661 699.086 498.661H699.106Z" fill="#A1A1A1"/>
<path d="M698.549 498.661C695.158 498.661 691.972 497.37 689.549 495.003C687.008 492.519 685.61 489.116 685.61 485.419C685.61 484.607 686.265 483.952 687.076 483.952C687.887 483.952 688.542 484.607 688.542 485.419C688.542 488.314 689.627 490.974 691.591 492.901C693.174 494.446 695.177 495.394 697.347 495.659V485.478C697.347 484.666 698.002 484.011 698.813 484.011C699.624 484.011 700.279 484.666 700.279 485.478V497.194C700.279 497.986 699.634 498.641 698.842 498.661C698.744 498.661 698.637 498.661 698.539 498.661H698.549Z" fill="#A1A1A1"/>
<path d="M606.874 478.173C603.483 478.173 600.297 476.882 597.874 474.515C595.333 472.031 593.936 468.628 593.936 464.931C593.936 464.119 594.59 463.464 595.401 463.464C596.213 463.464 596.867 464.119 596.867 464.931C596.867 467.826 597.952 470.486 599.916 472.412C601.499 473.958 603.503 474.906 605.672 475.17V464.99C605.672 464.178 606.337 463.523 607.138 463.523C607.949 463.523 608.604 464.178 608.604 464.99V476.706C608.604 477.498 607.959 478.153 607.167 478.173C607.07 478.173 606.962 478.173 606.864 478.173H606.874Z" fill="#A1A1A1"/>
<path d="M576.238 446.809C575.427 446.809 574.772 446.154 574.772 445.342C574.772 441.645 576.17 438.242 578.711 435.758C581.203 433.322 584.525 432.022 588.014 432.1C588.806 432.12 589.45 432.765 589.45 433.567V445.283C589.45 446.095 588.796 446.75 587.994 446.75C587.183 446.75 586.529 446.095 586.529 445.283V435.102C584.359 435.357 582.346 436.315 580.773 437.86C578.799 439.787 577.724 442.447 577.724 445.342C577.724 446.154 577.069 446.809 576.258 446.809H576.238Z" fill="#A1A1A1"/>
<path d="M654.026 446.818C653.215 446.818 652.56 446.162 652.56 445.351C652.56 442.456 651.475 439.796 649.511 437.869C647.928 436.324 645.924 435.375 643.755 435.111V445.292C643.755 446.104 643.09 446.759 642.289 446.759C641.478 446.759 640.823 446.104 640.823 445.292V433.576C640.823 432.784 641.468 432.128 642.26 432.109C645.758 432.031 649.071 433.331 651.563 435.766C654.104 438.251 655.501 441.654 655.501 445.351C655.501 446.162 654.847 446.818 654.035 446.818H654.026Z" fill="#A1A1A1"/>
<path d="M642.553 398.007C642.455 398.007 642.348 398.007 642.25 398.007C641.458 397.987 640.813 397.342 640.813 396.54V384.823C640.813 384.012 641.468 383.357 642.27 383.357C643.081 383.357 643.735 384.012 643.735 384.823V395.004C645.905 394.75 647.918 393.792 649.491 392.246C651.465 390.32 652.54 387.66 652.54 384.765C652.54 383.953 653.195 383.298 654.006 383.298C654.817 383.298 655.472 383.953 655.472 384.765C655.472 388.462 654.075 391.865 651.534 394.349C649.11 396.716 645.924 398.007 642.533 398.007H642.553Z" fill="#A1A1A1"/>
<path d="M607.431 478.173C607.333 478.173 607.226 478.173 607.128 478.173C606.336 478.153 605.691 477.508 605.691 476.706V464.99C605.691 464.178 606.346 463.523 607.147 463.523C607.959 463.523 608.613 464.178 608.613 464.99V475.17C610.783 474.916 612.796 473.958 614.369 472.412C616.343 470.486 617.418 467.826 617.418 464.931C617.418 464.119 618.073 463.464 618.884 463.464C619.695 463.464 620.35 464.119 620.35 464.931C620.35 468.628 618.953 472.031 616.412 474.515C613.988 476.882 610.812 478.173 607.411 478.173H607.431Z" fill="#A1A1A1"/>
<path d="M591.923 398.007C591.825 398.007 591.718 398.007 591.62 398.007C590.829 397.987 590.184 397.342 590.184 396.54V384.823C590.184 384.012 590.838 383.357 591.649 383.357C592.461 383.357 593.115 384.012 593.115 384.823V395.004C595.285 394.75 597.298 393.792 598.871 392.246C600.845 390.32 601.92 387.66 601.92 384.765C601.92 383.953 602.575 383.298 603.386 383.298C604.197 383.298 604.852 383.953 604.852 384.765C604.852 388.462 603.454 391.865 600.914 394.349C598.49 396.716 595.304 398.007 591.913 398.007H591.923Z" fill="#A1A1A1"/>
<path d="M583.948 397.969C580.587 397.969 577.42 396.697 575.007 394.36C572.456 391.895 571.039 388.502 571.01 384.805C571.01 383.993 571.655 383.338 572.466 383.328C573.277 383.338 573.932 383.974 573.941 384.785C573.961 387.68 575.056 390.34 577.039 392.247C578.632 393.783 580.636 394.722 582.815 394.966L582.756 384.785C582.756 383.974 583.401 383.318 584.212 383.309C585.023 383.309 585.678 383.964 585.678 384.766L585.746 396.482C585.746 397.274 585.121 397.929 584.32 397.959C584.193 397.959 584.066 397.959 583.939 397.959L583.948 397.969Z" fill="#A1A1A1"/>
<path d="M561.609 458.573C557.915 458.573 554.514 457.175 552.032 454.632C549.599 452.138 548.299 448.832 548.377 445.321C548.397 444.529 549.042 443.884 549.843 443.884H561.55C562.362 443.884 563.016 444.539 563.016 445.341C563.016 446.143 562.362 446.808 561.55 446.808H551.377C551.632 448.979 552.589 450.994 554.133 452.568C556.058 454.544 558.716 455.62 561.609 455.62C562.42 455.62 563.075 456.275 563.075 457.087C563.075 457.898 562.42 458.554 561.609 458.554V458.573Z" fill="#A1A1A1"/>
<path d="M763.486 466.398H726.889C726.078 466.398 725.423 465.743 725.423 464.931C725.423 464.119 726.078 463.464 726.889 463.464H762.02V384.756C762.02 383.944 762.675 383.289 763.486 383.289C764.297 383.289 764.952 383.944 764.952 384.756V464.931C764.952 465.743 764.297 466.398 763.486 466.398Z" fill="#A1A1A1"/>
<path d="M715.142 466.398H706.758C705.947 466.398 705.292 465.743 705.292 464.931V384.756C705.292 383.944 705.947 383.289 706.758 383.289C707.569 383.289 708.224 383.944 708.224 384.756V463.464H715.142C715.954 463.464 716.608 464.119 716.608 464.931C716.608 465.743 715.954 466.398 715.142 466.398Z" fill="#A1A1A1"/>
<path d="M706.758 446.818H654.026C653.215 446.818 652.561 446.162 652.561 445.351C652.561 444.539 653.215 443.884 654.026 443.884H706.758C707.569 443.884 708.224 444.539 708.224 445.351C708.224 446.162 707.569 446.818 706.758 446.818Z" fill="#A1A1A1"/>
<path d="M642.28 446.818H624.201C623.39 446.818 622.735 446.162 622.735 445.351C622.735 444.539 623.39 443.884 624.201 443.884H640.814V384.765C640.814 383.953 641.469 383.298 642.28 383.298C643.091 383.298 643.746 383.953 643.746 384.765V445.351C643.746 446.162 643.091 446.818 642.28 446.818Z" fill="#A1A1A1"/>
<path d="M613.197 446.818H609.532C608.721 446.818 608.066 446.162 608.066 445.351V384.765C608.066 383.953 608.721 383.298 609.532 383.298C610.343 383.298 610.998 383.953 610.998 384.765V443.884H613.197C614.008 443.884 614.663 444.539 614.663 445.351C614.663 446.162 614.008 446.818 613.197 446.818Z" fill="#A1A1A1"/>
<path d="M652.853 532.89C652.042 532.89 651.388 532.234 651.388 531.423V466.407H618.895C618.083 466.407 617.429 465.751 617.429 464.94C617.429 464.128 618.083 463.473 618.895 463.473H652.853C653.665 463.473 654.319 464.128 654.319 464.94V531.423C654.319 532.234 653.665 532.89 652.853 532.89Z" fill="#A1A1A1"/>
<path d="M687.086 486.886H652.854C652.042 486.886 651.388 486.231 651.388 485.419C651.388 484.607 652.042 483.952 652.854 483.952H687.086C687.897 483.952 688.552 484.607 688.552 485.419C688.552 486.231 687.897 486.886 687.086 486.886Z" fill="#A1A1A1"/>
<path d="M607.147 532.89C606.336 532.89 605.682 532.234 605.682 531.423V464.94C605.682 464.128 606.336 463.473 607.147 463.473C607.959 463.473 608.613 464.128 608.613 464.94V531.423C608.613 532.234 607.959 532.89 607.147 532.89Z" fill="#A1A1A1"/>
<path d="M626.253 418.417H609.522C608.711 418.417 608.057 417.762 608.057 416.95C608.057 416.139 608.711 415.483 609.522 415.483H626.253C627.064 415.483 627.719 416.139 627.719 416.95C627.719 417.762 627.064 418.417 626.253 418.417Z" fill="#A1A1A1"/>
<path d="M587.975 446.818C587.164 446.818 586.509 446.162 586.509 445.351V384.765C586.509 383.953 587.164 383.298 587.975 383.298C588.786 383.298 589.44 383.953 589.44 384.765V445.351C589.44 446.162 588.786 446.818 587.975 446.818Z" fill="#A1A1A1"/>
<path d="M561.608 532.89C560.797 532.89 560.143 532.234 560.143 531.423V464.94C560.143 464.128 560.797 463.473 561.608 463.473H595.401C596.212 463.473 596.867 464.128 596.867 464.94C596.867 465.751 596.212 466.407 595.401 466.407H563.074V531.423C563.074 532.234 562.42 532.89 561.608 532.89Z" fill="#A1A1A1"/>
<path d="M576.238 446.818H506.61C505.799 446.818 505.145 446.162 505.145 445.351C505.145 444.539 505.799 443.884 506.61 443.884H576.238C577.05 443.884 577.704 444.539 577.704 445.351C577.704 446.162 577.05 446.818 576.238 446.818Z" fill="#A1A1A1"/>
<path d="M561.608 466.396C560.797 466.396 560.143 465.741 560.143 464.929V457.106C560.143 456.294 560.797 455.639 561.608 455.639C562.42 455.639 563.074 456.294 563.074 457.106V464.929C563.074 465.741 562.42 466.396 561.608 466.396Z" fill="#A1A1A1"/>
<path d="M806.475 418.633H775.232C774.421 418.633 773.767 417.978 773.767 417.166C773.767 416.354 774.421 415.699 775.232 415.699H806.475C807.286 415.699 807.941 416.354 807.941 417.166C807.941 417.978 807.286 418.633 806.475 418.633Z" fill="#A1A1A1"/>
<path d="M927.583 503.042C927.446 503.042 927.309 503.023 927.172 502.984C926.391 502.759 925.941 501.947 926.166 501.165L927.915 495.082L924.211 494.016L922.462 500.099C922.237 500.881 921.426 501.321 920.645 501.106C919.863 500.881 919.413 500.069 919.638 499.287L921.788 491.796C922.013 491.013 922.824 490.563 923.606 490.788L930.124 492.666C930.495 492.774 930.818 493.028 931.003 493.37C931.189 493.713 931.238 494.114 931.13 494.485L928.98 501.977C928.795 502.622 928.208 503.042 927.573 503.042H927.583Z" fill="#A1A1A1"/>
<path d="M949.708 555.345C949.571 555.345 949.435 555.325 949.298 555.286L872.722 533.282C871.94 533.057 871.49 532.245 871.715 531.462C871.94 530.68 872.751 530.23 873.533 530.455L948.702 552.049L962.217 504.94L951.125 501.751L949.376 507.834C949.151 508.617 948.34 509.057 947.558 508.842C946.777 508.617 946.327 507.805 946.552 507.023L948.702 499.531C948.809 499.16 949.063 498.837 949.396 498.651C949.738 498.465 950.138 498.416 950.51 498.524L964.416 502.524C965.197 502.749 965.647 503.561 965.422 504.343L951.096 554.279C950.91 554.924 950.324 555.345 949.689 555.345H949.708Z" fill="#A1A1A1"/>
<path d="M900.66 495.306C900.523 495.306 900.386 495.287 900.25 495.248C899.468 495.023 899.018 494.211 899.243 493.429L900.992 487.346L889.422 484.02C888.64 483.795 888.191 482.984 888.415 482.201C888.64 481.419 889.451 480.979 890.233 481.194L903.22 484.92C904.002 485.145 904.452 485.957 904.227 486.739L902.077 494.231C901.891 494.876 901.305 495.297 900.67 495.297L900.66 495.306Z" fill="#A1A1A1"/>
<path d="M1114.06 553.569L1113.68 554.47L1113.81 554.523L1114.19 553.622L1114.06 553.569Z" fill="#A1A1A1"/>
<path d="M1081.38 663.606C1081.18 663.606 1080.96 663.567 1080.77 663.469C1080.03 663.127 1079.71 662.256 1080.05 661.523L1126.67 561.055L1123.48 559.705C1122.74 559.392 1122.39 558.532 1122.7 557.788C1123.01 557.045 1123.87 556.693 1124.61 557.006L1129.2 558.942C1129.57 559.099 1129.85 559.392 1130 559.764C1130.14 560.135 1130.13 560.546 1129.96 560.908L1082.7 662.755C1082.46 663.293 1081.92 663.606 1081.37 663.606H1081.38Z" fill="#A1A1A1"/>
<path d="M1102.48 562.65C1100.81 562.65 1099.1 562.327 1097.47 561.633C1097.1 561.486 1096.82 561.193 1096.67 560.831C1096.53 560.469 1096.53 560.068 1096.68 559.706L1101.34 548.763C1101.66 548.019 1102.51 547.667 1103.26 547.99C1104 548.303 1104.36 549.173 1104.03 549.917L1100 559.403C1104.73 560.626 1109.77 558.22 1111.72 553.594C1112.04 552.851 1112.9 552.499 1113.64 552.812C1114.38 553.124 1114.73 553.985 1114.42 554.728C1112.34 559.677 1107.52 562.65 1102.47 562.65H1102.48Z" fill="#A1A1A1"/>
<path d="M1119.19 570.679C1119 570.679 1118.81 570.64 1118.62 570.562C1115.44 569.212 1112.96 566.709 1111.67 563.501C1110.37 560.293 1110.39 556.772 1111.73 553.584C1112.05 552.841 1112.91 552.489 1113.65 552.802C1114.39 553.115 1114.74 553.975 1114.43 554.719C1113.39 557.183 1113.38 559.912 1114.38 562.386C1115.2 564.42 1116.64 566.083 1118.49 567.198L1122.72 557.75C1123.05 557.007 1123.91 556.684 1124.65 557.017C1125.4 557.349 1125.72 558.22 1125.39 558.953L1120.52 569.799C1120.27 570.347 1119.75 570.67 1119.18 570.67L1119.19 570.679Z" fill="#A1A1A1"/>
<path d="M1106.09 596.763C1106.09 596.763 1106.03 596.763 1106 596.743L1085.04 587.051C1084.91 586.993 1084.86 586.846 1084.92 586.729L1086.14 584.078C1086.17 584.02 1086.22 583.971 1086.28 583.951C1086.34 583.932 1086.4 583.932 1086.46 583.951L1107.42 593.643C1107.48 593.672 1107.53 593.721 1107.55 593.78C1107.57 593.839 1107.57 593.907 1107.55 593.966L1106.33 596.616C1106.29 596.704 1106.2 596.763 1106.1 596.763H1106.09ZM1085.46 586.709L1105.98 596.195L1106.99 593.995L1086.47 584.509L1085.46 586.709Z" fill="#A1A1A1"/>
<path d="M1104.86 599.423C1104.86 599.423 1104.8 599.423 1104.77 599.403L1083.79 589.712C1083.67 589.653 1083.62 589.506 1083.68 589.389L1084.9 586.738C1084.93 586.68 1084.98 586.631 1085.04 586.611C1085.09 586.592 1085.16 586.592 1085.22 586.611L1106.19 596.303C1106.25 596.333 1106.3 596.381 1106.32 596.44C1106.34 596.499 1106.34 596.567 1106.32 596.626L1105.1 599.276C1105.06 599.364 1104.97 599.423 1104.87 599.423H1104.86ZM1084.22 589.369L1104.75 598.856L1105.76 596.655L1085.24 587.169L1084.22 589.369Z" fill="#A1A1A1"/>
<path d="M1103.64 602.073C1103.64 602.073 1103.57 602.073 1103.54 602.054L1082.58 592.362C1082.46 592.303 1082.41 592.157 1082.47 592.039L1083.69 589.389C1083.72 589.33 1083.76 589.281 1083.82 589.262C1083.88 589.242 1083.95 589.242 1084.01 589.262L1104.98 598.954C1105.04 598.983 1105.09 599.032 1105.11 599.09C1105.13 599.149 1105.13 599.218 1105.11 599.276L1103.89 601.927C1103.85 602.015 1103.76 602.073 1103.66 602.073H1103.64ZM1083 592.02L1103.52 601.506L1104.54 599.306L1084.02 589.819L1083 592.02Z" fill="#A1A1A1"/>
<path d="M1102.42 604.734C1102.42 604.734 1102.35 604.734 1102.32 604.714L1081.35 595.022C1081.29 594.993 1081.24 594.944 1081.22 594.885C1081.2 594.827 1081.2 594.758 1081.22 594.7L1082.45 592.049C1082.5 591.922 1082.65 591.873 1082.77 591.932L1103.73 601.624C1103.86 601.682 1103.91 601.829 1103.85 601.946L1102.63 604.597C1102.6 604.655 1102.55 604.704 1102.49 604.724C1102.46 604.734 1102.43 604.743 1102.4 604.743L1102.42 604.734ZM1081.78 594.68L1102.3 604.166L1103.32 601.966L1082.8 592.48L1081.78 594.68Z" fill="#A1A1A1"/>
<path d="M1101.2 607.385C1101.2 607.385 1101.13 607.385 1101.1 607.365L1080.13 597.673C1080 597.615 1079.95 597.468 1080.01 597.351L1081.23 594.7C1081.26 594.642 1081.31 594.593 1081.37 594.573C1081.43 594.554 1081.5 594.554 1081.56 594.573L1102.53 604.265C1102.65 604.324 1102.7 604.47 1102.64 604.588L1101.42 607.238C1101.39 607.297 1101.34 607.346 1101.29 607.365C1101.26 607.375 1101.23 607.385 1101.2 607.385ZM1080.56 597.331L1101.08 606.818L1102.1 604.617L1081.58 595.131L1080.56 597.331Z" fill="#A1A1A1"/>
<path d="M1099.97 610.044C1099.97 610.044 1099.9 610.044 1099.87 610.024L1078.91 600.333C1078.78 600.274 1078.73 600.127 1078.79 600.01L1080.01 597.36C1080.04 597.301 1080.09 597.252 1080.15 597.232C1080.21 597.213 1080.28 597.213 1080.34 597.232L1101.3 606.924C1101.36 606.954 1101.4 607.003 1101.42 607.061C1101.44 607.12 1101.44 607.188 1101.42 607.247L1100.2 609.897C1100.16 609.985 1100.08 610.044 1099.98 610.044H1099.97ZM1079.33 599.99L1099.85 609.477L1100.87 607.276L1080.34 597.79L1079.33 599.99Z" fill="#A1A1A1"/>
<path d="M1098.75 612.695C1098.75 612.695 1098.68 612.695 1098.65 612.676L1077.69 602.984C1077.56 602.925 1077.51 602.779 1077.57 602.661L1078.79 600.011C1078.82 599.952 1078.87 599.903 1078.93 599.884C1078.99 599.864 1079.06 599.864 1079.11 599.884L1100.08 609.576C1100.2 609.634 1100.25 609.781 1100.19 609.898L1098.97 612.549C1098.94 612.607 1098.89 612.656 1098.83 612.676C1098.8 612.686 1098.78 612.695 1098.75 612.695ZM1078.11 602.642L1098.63 612.128L1099.65 609.928L1079.12 600.441L1078.11 602.642Z" fill="#A1A1A1"/>
<path d="M1097.51 615.354C1097.51 615.354 1097.45 615.354 1097.42 615.335L1076.45 605.643C1076.39 605.613 1076.34 605.565 1076.32 605.506C1076.3 605.447 1076.3 605.379 1076.32 605.32L1077.54 602.67C1077.6 602.552 1077.75 602.494 1077.86 602.552L1098.83 612.244C1098.96 612.303 1099.01 612.449 1098.95 612.567L1097.73 615.217C1097.7 615.276 1097.65 615.325 1097.59 615.344C1097.56 615.354 1097.53 615.364 1097.5 615.364L1097.51 615.354ZM1076.88 605.3L1097.4 614.787L1098.41 612.586L1077.89 603.1L1076.88 605.3Z" fill="#A1A1A1"/>
<path d="M1096.28 618.015C1096.28 618.015 1096.21 618.015 1096.19 617.995L1075.22 608.304C1075.17 608.274 1075.12 608.225 1075.1 608.167C1075.08 608.108 1075.08 608.039 1075.1 607.981L1076.32 605.33C1076.38 605.203 1076.52 605.154 1076.64 605.213L1097.6 614.905C1097.73 614.964 1097.78 615.11 1097.72 615.228L1096.5 617.878C1096.47 617.937 1096.42 617.986 1096.36 618.005C1096.33 618.015 1096.3 618.025 1096.27 618.025L1096.28 618.015ZM1075.64 607.961L1096.17 617.448L1097.18 615.247L1076.66 605.761L1075.64 607.961Z" fill="#A1A1A1"/>
<path d="M1095.06 620.684C1095.06 620.684 1094.99 620.684 1094.96 620.664L1073.99 610.972C1073.87 610.914 1073.82 610.767 1073.88 610.65L1075.1 607.999C1075.13 607.941 1075.17 607.892 1075.23 607.872C1075.29 607.853 1075.36 607.853 1075.42 607.872L1096.39 617.564C1096.52 617.623 1096.57 617.769 1096.51 617.887L1095.29 620.537C1095.26 620.596 1095.21 620.645 1095.15 620.664C1095.12 620.674 1095.09 620.684 1095.06 620.684ZM1074.42 610.63L1094.94 620.116L1095.96 617.916L1075.44 608.43L1074.42 610.63Z" fill="#A1A1A1"/>
<path d="M1093.84 623.326C1093.84 623.326 1093.77 623.326 1093.74 623.307L1072.77 613.615C1072.64 613.556 1072.59 613.41 1072.65 613.292L1073.88 610.642C1073.9 610.583 1073.95 610.534 1074.01 610.515C1074.07 610.495 1074.14 610.495 1074.2 610.515L1095.17 620.206C1095.23 620.236 1095.28 620.285 1095.3 620.343C1095.32 620.402 1095.32 620.471 1095.3 620.529L1094.07 623.18C1094.04 623.268 1093.95 623.326 1093.85 623.326H1093.84ZM1073.2 613.273L1093.72 622.759L1094.74 620.559L1074.22 611.072L1073.2 613.273Z" fill="#A1A1A1"/>
<path d="M1092.61 625.994C1092.61 625.994 1092.54 625.994 1092.51 625.975L1071.55 616.283C1071.42 616.224 1071.37 616.077 1071.43 615.96L1072.65 613.31C1072.68 613.251 1072.73 613.202 1072.79 613.183C1072.85 613.163 1072.92 613.163 1072.98 613.183L1093.94 622.874C1094.06 622.933 1094.11 623.08 1094.05 623.197L1092.83 625.848C1092.8 625.906 1092.76 625.955 1092.7 625.975C1092.67 625.984 1092.64 625.994 1092.61 625.994ZM1071.97 615.941L1092.49 625.427L1093.51 623.227L1072.99 613.74L1071.97 615.941Z" fill="#A1A1A1"/>
<path d="M1091.38 628.656C1091.38 628.656 1091.31 628.656 1091.28 628.636L1070.31 618.944C1070.25 618.915 1070.2 618.866 1070.18 618.808C1070.16 618.749 1070.16 618.68 1070.18 618.622L1071.4 615.971C1071.46 615.854 1071.61 615.795 1071.73 615.854L1092.7 625.546C1092.82 625.605 1092.87 625.751 1092.81 625.869L1091.59 628.519C1091.56 628.578 1091.51 628.626 1091.46 628.646C1091.43 628.656 1091.4 628.666 1091.37 628.666L1091.38 628.656ZM1070.74 618.602L1091.26 628.089L1092.28 625.888L1071.75 616.402L1070.74 618.602Z" fill="#A1A1A1"/>
<path d="M1090.15 631.315C1090.15 631.315 1090.08 631.315 1090.05 631.295L1069.09 621.603C1069.03 621.574 1068.98 621.525 1068.96 621.466C1068.94 621.408 1068.94 621.339 1068.96 621.281L1070.18 618.63C1070.24 618.503 1070.39 618.454 1070.5 618.513L1091.47 628.205C1091.59 628.263 1091.64 628.41 1091.58 628.527L1090.36 631.178C1090.33 631.236 1090.28 631.285 1090.22 631.305C1090.2 631.315 1090.17 631.325 1090.14 631.325L1090.15 631.315ZM1069.51 621.261L1090.03 630.747L1091.05 628.547L1070.52 619.061L1069.51 621.261Z" fill="#A1A1A1"/>
<path d="M1088.92 633.965C1088.92 633.965 1088.86 633.965 1088.83 633.945L1067.87 624.254C1067.74 624.195 1067.69 624.048 1067.75 623.931L1068.97 621.28C1069 621.222 1069.05 621.173 1069.11 621.153C1069.17 621.134 1069.23 621.134 1069.29 621.153L1090.25 630.845C1090.31 630.874 1090.36 630.923 1090.38 630.982C1090.4 631.041 1090.4 631.109 1090.38 631.168L1089.16 633.818C1089.12 633.906 1089.03 633.965 1088.93 633.965H1088.92ZM1068.29 623.911L1088.81 633.398L1089.82 631.197L1069.3 621.711L1068.29 623.911Z" fill="#A1A1A1"/>
<path d="M1087.7 636.625C1087.7 636.625 1087.63 636.625 1087.61 636.606L1066.63 626.914C1066.51 626.855 1066.46 626.708 1066.52 626.591L1067.74 623.941C1067.77 623.882 1067.82 623.833 1067.88 623.813C1067.93 623.794 1068 623.794 1068.06 623.813L1089.03 633.505C1089.09 633.535 1089.14 633.584 1089.16 633.642C1089.18 633.701 1089.18 633.769 1089.16 633.828L1087.94 636.478C1087.9 636.566 1087.81 636.625 1087.71 636.625H1087.7ZM1067.06 626.571L1087.59 636.058L1088.6 633.857L1068.08 624.371L1067.06 626.571Z" fill="#A1A1A1"/>
<path d="M502.692 471.19H479.6C479.463 471.19 479.355 471.082 479.355 470.945V467.845C479.355 467.708 479.463 467.601 479.6 467.601H502.692C502.829 467.601 502.936 467.708 502.936 467.845V470.945C502.936 471.082 502.829 471.19 502.692 471.19ZM479.844 470.701H502.448V468.09H479.844V470.701Z" fill="#A1A1A1"/>
<path d="M502.692 474.32H479.6C479.463 474.32 479.355 474.212 479.355 474.075V470.975C479.355 470.838 479.463 470.73 479.6 470.73H502.692C502.829 470.73 502.936 470.838 502.936 470.975V474.075C502.936 474.212 502.829 474.32 502.692 474.32ZM479.844 473.831H502.448V471.219H479.844V473.831Z" fill="#A1A1A1"/>
<path d="M502.692 477.418H479.6C479.463 477.418 479.355 477.311 479.355 477.174V474.074C479.355 473.937 479.463 473.829 479.6 473.829H502.692C502.829 473.829 502.936 473.937 502.936 474.074V477.174C502.936 477.311 502.829 477.418 502.692 477.418ZM479.844 476.929H502.448V474.318H479.844V476.929Z" fill="#A1A1A1"/>
<path d="M502.692 480.539H479.6C479.463 480.539 479.355 480.432 479.355 480.295V477.195C479.355 477.058 479.463 476.95 479.6 476.95H502.692C502.829 476.95 502.936 477.058 502.936 477.195V480.295C502.936 480.432 502.829 480.539 502.692 480.539ZM479.844 480.05H502.448V477.439H479.844V480.05Z" fill="#A1A1A1"/>
<path d="M502.692 483.659H479.6C479.463 483.659 479.355 483.551 479.355 483.414V480.314C479.355 480.177 479.463 480.069 479.6 480.069H502.692C502.829 480.069 502.936 480.177 502.936 480.314V483.414C502.936 483.551 502.829 483.659 502.692 483.659ZM479.844 483.17H502.448V480.558H479.844V483.17Z" fill="#A1A1A1"/>
<path d="M502.692 486.787H479.6C479.463 486.787 479.355 486.68 479.355 486.543V483.443C479.355 483.306 479.463 483.198 479.6 483.198H502.692C502.829 483.198 502.936 483.306 502.936 483.443V486.543C502.936 486.68 502.829 486.787 502.692 486.787ZM479.844 486.298H502.448V483.687H479.844V486.298Z" fill="#A1A1A1"/>
<path d="M502.692 489.888H479.6C479.463 489.888 479.355 489.78 479.355 489.644V486.543C479.355 486.406 479.463 486.299 479.6 486.299H502.692C502.829 486.299 502.936 486.406 502.936 486.543V489.644C502.936 489.78 502.829 489.888 502.692 489.888ZM479.844 489.399H502.448V486.788H479.844V489.399Z" fill="#A1A1A1"/>
<path d="M502.692 493.007H479.6C479.463 493.007 479.355 492.9 479.355 492.763V489.662C479.355 489.526 479.463 489.418 479.6 489.418H502.692C502.829 489.418 502.936 489.526 502.936 489.662V492.763C502.936 492.9 502.829 493.007 502.692 493.007ZM479.844 492.518H502.448V489.907H479.844V492.518Z" fill="#A1A1A1"/>
<path d="M502.692 496.128H479.6C479.463 496.128 479.355 496.021 479.355 495.884V492.784C479.355 492.647 479.463 492.539 479.6 492.539H502.692C502.829 492.539 502.936 492.647 502.936 492.784V495.884C502.936 496.021 502.829 496.128 502.692 496.128ZM479.844 495.639H502.448V493.028H479.844V495.639Z" fill="#A1A1A1"/>
<path d="M502.692 499.256H479.6C479.463 499.256 479.355 499.149 479.355 499.012V495.911C479.355 495.775 479.463 495.667 479.6 495.667H502.692C502.829 495.667 502.936 495.775 502.936 495.911V499.012C502.936 499.149 502.829 499.256 502.692 499.256ZM479.844 498.767H502.448V496.156H479.844V498.767Z" fill="#A1A1A1"/>
<path d="M502.692 502.358H479.6C479.463 502.358 479.355 502.25 479.355 502.113V499.013C479.355 498.876 479.463 498.769 479.6 498.769H502.692C502.829 498.769 502.936 498.876 502.936 499.013V502.113C502.936 502.25 502.829 502.358 502.692 502.358ZM479.844 501.869H502.448V499.258H479.844V501.869Z" fill="#A1A1A1"/>
<path d="M502.692 505.477H479.6C479.463 505.477 479.355 505.369 479.355 505.232V502.132C479.355 501.995 479.463 501.888 479.6 501.888H502.692C502.829 501.888 502.936 501.995 502.936 502.132V505.232C502.936 505.369 502.829 505.477 502.692 505.477ZM479.844 504.988H502.448V502.377H479.844V504.988Z" fill="#A1A1A1"/>
<path d="M1057.35 426.536H1054.82C1054.68 426.536 1054.58 426.429 1054.58 426.292V403.182C1054.58 403.045 1054.68 402.938 1054.82 402.938H1057.35C1057.49 402.938 1057.59 403.045 1057.59 403.182V426.292C1057.59 426.429 1057.49 426.536 1057.35 426.536ZM1055.06 426.047H1057.11V403.426H1055.06V426.047Z" fill="#A1A1A1"/>
<path d="M1059.89 426.536H1057.36C1057.22 426.536 1057.12 426.429 1057.12 426.292V403.182C1057.12 403.045 1057.22 402.938 1057.36 402.938H1059.89C1060.03 402.938 1060.14 403.045 1060.14 403.182V426.292C1060.14 426.429 1060.03 426.536 1059.89 426.536ZM1057.6 426.047H1059.65V403.426H1057.6V426.047Z" fill="#A1A1A1"/>
<path d="M1062.42 426.536H1059.89C1059.75 426.536 1059.65 426.429 1059.65 426.292V403.182C1059.65 403.045 1059.75 402.938 1059.89 402.938H1062.42C1062.56 402.938 1062.67 403.045 1062.67 403.182V426.292C1062.67 426.429 1062.56 426.536 1062.42 426.536ZM1060.14 426.047H1062.18V403.426H1060.14V426.047Z" fill="#A1A1A1"/>
<path d="M1064.97 426.536H1062.44C1062.3 426.536 1062.2 426.429 1062.2 426.292V403.182C1062.2 403.045 1062.3 402.938 1062.44 402.938H1064.97C1065.11 402.938 1065.22 403.045 1065.22 403.182V426.292C1065.22 426.429 1065.11 426.536 1064.97 426.536ZM1062.69 426.047H1064.73V403.426H1062.69V426.047Z" fill="#A1A1A1"/>
<path d="M1067.49 426.536H1064.96C1064.83 426.536 1064.72 426.429 1064.72 426.292V403.182C1064.72 403.045 1064.83 402.938 1064.96 402.938H1067.49C1067.63 402.938 1067.74 403.045 1067.74 403.182V426.292C1067.74 426.429 1067.63 426.536 1067.49 426.536ZM1065.21 426.047H1067.25V403.426H1065.21V426.047Z" fill="#A1A1A1"/>
<path d="M1070.04 426.536H1067.51C1067.38 426.536 1067.27 426.429 1067.27 426.292V403.182C1067.27 403.045 1067.38 402.938 1067.51 402.938H1070.04C1070.18 402.938 1070.29 403.045 1070.29 403.182V426.292C1070.29 426.429 1070.18 426.536 1070.04 426.536ZM1067.76 426.047H1069.8V403.426H1067.76V426.047Z" fill="#A1A1A1"/>
<path d="M1072.57 426.536H1070.04C1069.9 426.536 1069.79 426.429 1069.79 426.292V403.182C1069.79 403.045 1069.9 402.938 1070.04 402.938H1072.57C1072.7 402.938 1072.81 403.045 1072.81 403.182V426.292C1072.81 426.429 1072.7 426.536 1072.57 426.536ZM1070.28 426.047H1072.32V403.426H1070.28V426.047Z" fill="#A1A1A1"/>
<path d="M1075.12 426.536H1072.59C1072.45 426.536 1072.34 426.429 1072.34 426.292V403.182C1072.34 403.045 1072.45 402.938 1072.59 402.938H1075.12C1075.25 402.938 1075.36 403.045 1075.36 403.182V426.292C1075.36 426.429 1075.25 426.536 1075.12 426.536ZM1072.83 426.047H1074.87V403.426H1072.83V426.047Z" fill="#A1A1A1"/>
<path d="M1077.66 426.536H1075.13C1074.99 426.536 1074.88 426.429 1074.88 426.292V403.182C1074.88 403.045 1074.99 402.938 1075.13 402.938H1077.66C1077.79 402.938 1077.9 403.045 1077.9 403.182V426.292C1077.9 426.429 1077.79 426.536 1077.66 426.536ZM1075.37 426.047H1077.41V403.426H1075.37V426.047Z" fill="#A1A1A1"/>
<path d="M1080.2 426.536H1077.67C1077.53 426.536 1077.42 426.429 1077.42 426.292V403.182C1077.42 403.045 1077.53 402.938 1077.67 402.938H1080.2C1080.34 402.938 1080.44 403.045 1080.44 403.182V426.292C1080.44 426.429 1080.34 426.536 1080.2 426.536ZM1077.91 426.047H1079.95V403.426H1077.91V426.047Z" fill="#A1A1A1"/>
<path d="M1082.73 426.536H1080.2C1080.06 426.536 1079.95 426.429 1079.95 426.292V403.182C1079.95 403.045 1080.06 402.938 1080.2 402.938H1082.73C1082.87 402.938 1082.97 403.045 1082.97 403.182V426.292C1082.97 426.429 1082.87 426.536 1082.73 426.536ZM1080.44 426.047H1082.49V403.426H1080.44V426.047Z" fill="#A1A1A1"/>
<path d="M1085.27 426.536H1082.74C1082.6 426.536 1082.5 426.429 1082.5 426.292V403.182C1082.5 403.045 1082.6 402.938 1082.74 402.938H1085.27C1085.41 402.938 1085.51 403.045 1085.51 403.182V426.292C1085.51 426.429 1085.41 426.536 1085.27 426.536ZM1082.98 426.047H1085.03V403.426H1082.98V426.047Z" fill="#A1A1A1"/>
<path d="M1087.82 426.536H1085.29C1085.15 426.536 1085.05 426.429 1085.05 426.292V403.182C1085.05 403.045 1085.15 402.938 1085.29 402.938H1087.82C1087.96 402.938 1088.07 403.045 1088.07 403.182V426.292C1088.07 426.429 1087.96 426.536 1087.82 426.536ZM1085.53 426.047H1087.58V403.426H1085.53V426.047Z" fill="#A1A1A1"/>
<path d="M1090.36 426.536H1087.83C1087.69 426.536 1087.59 426.429 1087.59 426.292V403.182C1087.59 403.045 1087.69 402.938 1087.83 402.938H1090.36C1090.5 402.938 1090.61 403.045 1090.61 403.182V426.292C1090.61 426.429 1090.5 426.536 1090.36 426.536ZM1088.07 426.047H1090.12V403.426H1088.07V426.047Z" fill="#A1A1A1"/>
<path d="M1092.89 426.536H1090.36C1090.22 426.536 1090.12 426.429 1090.12 426.292V403.182C1090.12 403.045 1090.22 402.938 1090.36 402.938H1092.89C1093.03 402.938 1093.14 403.045 1093.14 403.182V426.292C1093.14 426.429 1093.03 426.536 1092.89 426.536ZM1090.61 426.047H1092.65V403.426H1090.61V426.047Z" fill="#A1A1A1"/>
<path d="M1095.43 426.536H1092.9C1092.77 426.536 1092.66 426.429 1092.66 426.292V403.182C1092.66 403.045 1092.77 402.938 1092.9 402.938H1095.43C1095.57 402.938 1095.68 403.045 1095.68 403.182V426.292C1095.68 426.429 1095.57 426.536 1095.43 426.536ZM1093.15 426.047H1095.19V403.426H1093.15V426.047Z" fill="#A1A1A1"/>
<path d="M1260.26 780.252C1260.02 780.252 1259.77 780.193 1259.55 780.066L1166.57 727.94L1073.55 680.4C1072.87 680.048 1072.58 679.226 1072.87 678.522L1080.03 661.574L1115.54 585.037C1115.71 584.675 1116.02 584.392 1116.4 584.265C1116.79 584.137 1117.2 584.167 1117.56 584.353L1146.65 599.638L1158.51 576.715C1158.7 576.362 1159.01 576.098 1159.38 575.991C1159.76 575.873 1160.17 575.913 1160.52 576.108L1166.91 579.609C1167.62 580.001 1167.88 580.89 1167.48 581.604C1167.09 582.318 1166.2 582.573 1165.49 582.181L1160.42 579.404L1148.57 602.308C1148.39 602.651 1148.08 602.915 1147.71 603.032C1147.33 603.149 1146.93 603.11 1146.58 602.934L1117.55 587.678L1082.71 662.767L1076.09 678.415L1167.94 725.368L1259.81 776.858L1330.88 672.831L1289.49 650.259C1288.78 649.868 1288.52 648.978 1288.91 648.273C1289.3 647.559 1290.19 647.295 1290.9 647.687L1333.7 671.041C1334.06 671.236 1334.33 671.579 1334.43 671.989C1334.52 672.39 1334.45 672.821 1334.21 673.163L1261.48 779.646C1261.19 780.056 1260.73 780.281 1260.26 780.281V780.252Z" fill="#A1A1A1"/>
<path d="M1166.54 594.249C1164.45 594.249 1162.37 593.74 1160.48 592.743C1159.78 592.371 1159.5 591.52 1159.83 590.816L1164.88 580.254C1165.23 579.521 1166.1 579.208 1166.83 579.56C1167.56 579.912 1167.87 580.782 1167.52 581.516L1163.13 590.719C1165.17 591.452 1167.4 591.511 1169.52 590.865C1172.1 590.073 1174.2 588.342 1175.44 585.985C1175.82 585.271 1176.7 584.988 1177.42 585.369C1178.14 585.75 1178.41 586.631 1178.04 587.354C1176.43 590.415 1173.71 592.665 1170.38 593.682C1169.12 594.063 1167.82 594.259 1166.54 594.259V594.249Z" fill="#A1A1A1"/>
<path d="M1145.53 672.557C1143.58 672.557 1141.63 672.117 1139.79 671.178C1139.07 670.806 1138.78 669.926 1139.15 669.202C1139.53 668.479 1140.41 668.195 1141.13 668.557C1145.96 671.021 1152.17 668.889 1154.7 663.911C1155.07 663.188 1155.95 662.904 1156.68 663.276C1157.4 663.647 1157.68 664.528 1157.31 665.251C1154.96 669.877 1150.3 672.557 1145.53 672.557Z" fill="#A1A1A1"/>
<path d="M1140.45 671.333C1140.24 671.333 1140.02 671.284 1139.83 671.186C1133.27 668.066 1130.17 659.754 1133.19 653.397C1133.55 652.663 1134.42 652.35 1135.15 652.702C1135.88 653.054 1136.19 653.925 1135.84 654.658C1133.54 659.509 1136.04 666.13 1141.09 668.536C1141.82 668.888 1142.14 669.758 1141.78 670.492C1141.53 671.02 1141.01 671.333 1140.45 671.333Z" fill="#A1A1A1"/>
<path d="M1123.07 705.534C1122.85 705.534 1122.62 705.485 1122.41 705.378C1121.68 705.006 1121.4 704.126 1121.76 703.402L1144.45 658.777C1144.82 658.053 1145.7 657.77 1146.43 658.132C1147.15 658.503 1147.43 659.383 1147.07 660.107L1124.38 704.732C1124.13 705.241 1123.61 705.534 1123.07 705.534Z" fill="#A1A1A1"/>
<path d="M1134.5 655.511C1134.29 655.511 1134.07 655.462 1133.87 655.364L1093.51 635.951C1092.78 635.599 1092.47 634.719 1092.82 633.995C1093.18 633.262 1094.05 632.959 1094.78 633.311L1135.14 652.724C1135.87 653.076 1136.17 653.956 1135.82 654.679C1135.57 655.208 1135.05 655.511 1134.5 655.511Z" fill="#A1A1A1"/>
<path d="M1157.22 722.99C1156.98 722.99 1156.73 722.931 1156.49 722.794C1155.79 722.393 1155.54 721.493 1155.95 720.789L1180.26 678.403L1155.34 665.885C1154.61 665.523 1154.32 664.643 1154.68 663.92C1155.04 663.196 1155.92 662.903 1156.65 663.264L1182.95 676.477C1183.32 676.653 1183.58 676.976 1183.7 677.367C1183.81 677.758 1183.77 678.169 1183.56 678.521L1158.48 722.246C1158.21 722.716 1157.72 722.98 1157.21 722.98L1157.22 722.99Z" fill="#A1A1A1"/>
<path d="M1147.27 603.091C1147.03 603.091 1146.8 603.032 1146.58 602.924L1116.18 586.954C1115.49 586.592 1115.2 585.751 1115.54 585.037L1127.3 559.678C1127.47 559.306 1127.79 559.033 1128.17 558.905C1128.56 558.778 1128.97 558.818 1129.33 559.013L1160.52 576.098C1161.21 576.48 1161.48 577.35 1161.11 578.064L1148.57 602.299C1148.39 602.641 1148.08 602.905 1147.71 603.022C1147.56 603.071 1147.41 603.091 1147.27 603.091ZM1118.78 585.008L1146.64 599.638L1157.85 577.986L1129.3 562.338L1118.79 585.008H1118.78Z" fill="#A1A1A1"/>
<path d="M1147.27 603.091C1146.71 603.091 1146.17 602.768 1145.93 602.23L1127.29 560.901C1126.96 560.167 1127.29 559.297 1128.02 558.964C1128.76 558.632 1129.63 558.964 1129.96 559.698L1148.59 601.027C1148.93 601.761 1148.59 602.631 1147.86 602.964C1147.67 603.052 1147.46 603.091 1147.26 603.091H1147.27Z" fill="#A1A1A1"/>
<path d="M1116.86 587.12C1116.18 587.12 1115.56 586.631 1115.43 585.927C1115.27 585.135 1115.8 584.362 1116.59 584.206L1159.54 575.932C1160.33 575.785 1161.1 576.304 1161.26 577.096C1161.42 577.888 1160.89 578.661 1160.1 578.817L1117.15 587.091C1117.05 587.11 1116.96 587.12 1116.86 587.12Z" fill="#A1A1A1"/>
<path d="M1172.32 312.796C1171.51 312.796 1170.86 312.141 1170.86 311.329C1170.86 306.303 1167.13 302.127 1162.31 301.413V311.329C1162.31 312.141 1161.65 312.796 1160.84 312.796C1160.03 312.796 1159.37 312.141 1159.37 311.329V299.838C1159.37 299.026 1160.03 298.371 1160.84 298.371C1167.98 298.371 1173.79 304.18 1173.79 311.329C1173.79 312.141 1173.13 312.796 1172.32 312.796Z" fill="#A1A1A1"/>
<path d="M970.582 324.287C969.771 324.287 969.116 323.631 969.116 322.82V311.328C969.116 310.517 969.771 309.861 970.582 309.861C971.393 309.861 972.048 310.517 972.048 311.328V321.245C976.875 320.531 980.599 316.355 980.599 311.328C980.599 310.517 981.253 309.861 982.065 309.861C982.876 309.861 983.53 310.517 983.53 311.328C983.53 318.477 977.726 324.287 970.582 324.287Z" fill="#A1A1A1"/>
<path d="M993.547 324.287C986.403 324.287 980.599 318.477 980.599 311.328C980.599 310.517 981.253 309.861 982.064 309.861C982.876 309.861 983.53 310.517 983.53 311.328C983.53 316.355 987.254 320.531 992.081 321.245V311.328C992.081 310.517 992.736 309.861 993.547 309.861C994.358 309.861 995.013 310.517 995.013 311.328V322.82C995.013 323.631 994.358 324.287 993.547 324.287Z" fill="#A1A1A1"/>
<path d="M847.47 324.287C846.659 324.287 846.004 323.631 846.004 322.82V311.328C846.004 310.517 846.659 309.861 847.47 309.861C848.281 309.861 848.936 310.517 848.936 311.328V321.245C853.763 320.531 857.486 316.355 857.486 311.328C857.486 310.517 858.141 309.861 858.952 309.861C859.763 309.861 860.418 310.517 860.418 311.328C860.418 318.477 854.613 324.287 847.47 324.287Z" fill="#A1A1A1"/>
<path d="M870.435 324.287C863.291 324.287 857.486 318.477 857.486 311.328C857.486 310.517 858.141 309.861 858.952 309.861C859.763 309.861 860.418 310.517 860.418 311.328C860.418 316.355 864.141 320.531 868.969 321.245V311.328C868.969 310.517 869.624 309.861 870.435 309.861C871.246 309.861 871.901 310.517 871.901 311.328V322.82C871.901 323.631 871.246 324.287 870.435 324.287Z" fill="#A1A1A1"/>
<path d="M797.347 324.287C796.536 324.287 795.881 323.631 795.881 322.82V311.328C795.881 310.517 796.536 309.861 797.347 309.861C798.158 309.861 798.813 310.517 798.813 311.328V321.245C803.64 320.531 807.363 316.355 807.363 311.328C807.363 310.517 808.018 309.861 808.829 309.861C809.64 309.861 810.295 310.517 810.295 311.328C810.295 318.477 804.49 324.287 797.347 324.287Z" fill="#A1A1A1"/>
<path d="M820.313 324.287C813.169 324.287 807.364 318.477 807.364 311.328C807.364 310.517 808.019 309.861 808.83 309.861C809.641 309.861 810.296 310.517 810.296 311.328C810.296 316.355 814.019 320.531 818.847 321.245V311.328C818.847 310.517 819.502 309.861 820.313 309.861C821.124 309.861 821.778 310.517 821.778 311.328V322.82C821.778 323.631 821.124 324.287 820.313 324.287Z" fill="#A1A1A1"/>
<path d="M488.629 286.664H477.147C476.335 286.664 475.681 286.009 475.681 285.198C475.681 278.048 481.485 272.239 488.629 272.239C489.44 272.239 490.095 272.895 490.095 273.706C490.095 274.518 489.44 275.173 488.629 275.173C483.606 275.173 479.433 278.899 478.72 283.731H488.629C489.44 283.731 490.095 284.386 490.095 285.198C490.095 286.009 489.44 286.664 488.629 286.664Z" fill="#A1A1A1"/>
<path d="M488.629 275.172C481.485 275.172 475.681 269.363 475.681 262.214C475.681 261.402 476.335 260.747 477.147 260.747H488.629C489.44 260.747 490.095 261.402 490.095 262.214C490.095 263.026 489.44 263.681 488.629 263.681H478.72C479.433 268.512 483.606 272.238 488.629 272.238C489.44 272.238 490.095 272.894 490.095 273.705C490.095 274.517 489.44 275.172 488.629 275.172Z" fill="#A1A1A1"/>
<path d="M460.758 286.664H449.275C448.464 286.664 447.81 286.009 447.81 285.198C447.81 284.386 448.464 283.731 449.275 283.731H459.185C458.471 278.899 454.298 275.173 449.275 275.173C448.464 275.173 447.81 274.518 447.81 273.706C447.81 272.895 448.464 272.239 449.275 272.239C456.419 272.239 462.224 278.048 462.224 285.198C462.224 286.009 461.569 286.664 460.758 286.664Z" fill="#A1A1A1"/>
<path d="M449.275 275.172C448.464 275.172 447.81 274.517 447.81 273.705C447.81 272.894 448.464 272.238 449.275 272.238C454.298 272.238 458.471 268.512 459.185 263.681H449.275C448.464 263.681 447.81 263.026 447.81 262.214C447.81 261.402 448.464 260.747 449.275 260.747H460.758C461.569 260.747 462.224 261.402 462.224 262.214C462.224 269.363 456.419 275.172 449.275 275.172Z" fill="#A1A1A1"/>
<path d="M488.649 33.1215C481.505 33.1215 475.7 27.3123 475.7 20.1633C475.7 19.3515 476.355 18.6963 477.166 18.6963C477.977 18.6963 478.632 19.3515 478.632 20.1633C478.632 25.6889 483.127 30.1876 488.649 30.1876C489.46 30.1876 490.114 30.8428 490.114 31.6545C490.114 32.4663 489.46 33.1215 488.649 33.1215Z" fill="#A1A1A1"/>
<path d="M465.684 33.1215C464.873 33.1215 464.218 32.4663 464.218 31.6545V20.1633C464.218 19.3515 464.873 18.6963 465.684 18.6963C466.495 18.6963 467.149 19.3515 467.149 20.1633V30.08C471.977 29.3661 475.7 25.1901 475.7 20.1633C475.7 19.3515 476.355 18.6963 477.166 18.6963C477.977 18.6963 478.632 19.3515 478.632 20.1633C478.632 27.3123 472.827 33.1215 465.684 33.1215Z" fill="#A1A1A1"/>
<path d="M504.235 312.796C503.424 312.796 502.77 312.141 502.77 311.329C502.77 306.303 499.046 302.127 494.219 301.413V311.329C494.219 312.141 493.564 312.796 492.753 312.796C491.942 312.796 491.287 312.141 491.287 311.329V299.838C491.287 299.026 491.942 298.371 492.753 298.371C499.897 298.371 505.701 304.18 505.701 311.329C505.701 312.141 505.047 312.796 504.235 312.796Z" fill="#A1A1A1"/>
<path d="M515.718 312.796C514.907 312.796 514.252 312.141 514.252 311.329V301.413C509.425 302.127 505.701 306.303 505.701 311.329C505.701 312.141 505.046 312.796 504.235 312.796C503.424 312.796 502.77 312.141 502.77 311.329C502.77 304.18 508.574 298.371 515.718 298.371C516.529 298.371 517.184 299.026 517.184 299.838V311.329C517.184 312.141 516.529 312.796 515.718 312.796Z" fill="#A1A1A1"/>
<path d="M433.093 312.796C432.282 312.796 431.627 312.141 431.627 311.329C431.627 306.303 427.904 302.127 423.076 301.413V311.329C423.076 312.141 422.421 312.796 421.61 312.796C420.799 312.796 420.145 312.141 420.145 311.329V299.838C420.145 299.026 420.799 298.371 421.61 298.371C428.754 298.371 434.559 304.18 434.559 311.329C434.559 312.141 433.904 312.796 433.093 312.796Z" fill="#A1A1A1"/>
<path d="M444.575 312.796C443.764 312.796 443.109 312.141 443.109 311.329V301.413C438.282 302.127 434.559 306.303 434.559 311.329C434.559 312.141 433.904 312.796 433.093 312.796C432.282 312.796 431.627 312.141 431.627 311.329C431.627 304.18 437.432 298.371 444.575 298.371C445.386 298.371 446.041 299.026 446.041 299.838V311.329C446.041 312.141 445.386 312.796 444.575 312.796Z" fill="#A1A1A1"/>
<path d="M462.546 380.11H451.064C450.252 380.11 449.598 379.455 449.598 378.643C449.598 377.831 450.252 377.176 451.064 377.176H460.973C460.259 372.345 456.086 368.619 451.064 368.619C450.252 368.619 449.598 367.963 449.598 367.152C449.598 366.34 450.252 365.685 451.064 365.685C458.207 365.685 464.012 371.494 464.012 378.643C464.012 379.455 463.357 380.11 462.546 380.11Z" fill="#A1A1A1"/>
<path d="M451.064 368.619C450.252 368.619 449.598 367.963 449.598 367.152C449.598 366.34 450.252 365.685 451.064 365.685C456.086 365.685 460.259 361.959 460.973 357.127H451.064C450.252 357.127 449.598 356.472 449.598 355.66C449.598 354.849 450.252 354.193 451.064 354.193H462.546C463.357 354.193 464.012 354.849 464.012 355.66C464.012 362.809 458.207 368.619 451.064 368.619Z" fill="#A1A1A1"/>
<path d="M506.61 433.792C499.467 433.792 493.662 427.983 493.662 420.834C493.662 420.022 494.317 419.367 495.128 419.367C495.939 419.367 496.594 420.022 496.594 420.834C496.594 426.36 501.089 430.858 506.61 430.858C507.422 430.858 508.076 431.514 508.076 432.325C508.076 433.137 507.422 433.792 506.61 433.792Z" fill="#A1A1A1"/>
<path d="M483.645 433.792C482.833 433.792 482.179 433.137 482.179 432.325V420.834C482.179 420.022 482.833 419.367 483.645 419.367C484.456 419.367 485.11 420.022 485.11 420.834V430.751C489.938 430.037 493.661 425.861 493.661 420.834C493.661 420.022 494.316 419.367 495.127 419.367C495.938 419.367 496.593 420.022 496.593 420.834C496.593 427.983 490.788 433.792 483.645 433.792Z" fill="#A1A1A1"/>
<path d="M314.212 200.866C313.4 200.866 312.746 200.21 312.746 199.399V189.374H310.586C309.775 189.374 309.12 188.719 309.12 187.907C309.12 187.096 309.775 186.44 310.586 186.44H314.212C315.023 186.44 315.677 187.096 315.677 187.907V197.824C320.505 197.11 324.228 192.934 324.228 187.907C324.228 187.096 324.883 186.44 325.694 186.44C326.505 186.44 327.16 187.096 327.16 187.907C327.16 195.056 321.355 200.866 314.212 200.866Z" fill="#A1A1A1"/>
<path d="M337.255 200.866C330.072 200.866 324.229 195.056 324.229 187.907C324.229 187.096 324.883 186.44 325.694 186.44C326.505 186.44 327.16 187.096 327.16 187.907C327.16 193.433 331.685 197.932 337.255 197.932C338.066 197.932 338.721 198.587 338.721 199.399C338.721 200.21 338.066 200.866 337.255 200.866Z" fill="#A1A1A1"/>
<path d="M652.902 54.9301H641.42C640.609 54.9301 639.954 54.2749 639.954 53.4631C639.954 50.0011 641.303 46.7444 643.746 44.2994C646.189 41.8545 649.443 40.5049 652.902 40.5049C653.714 40.5049 654.368 41.1601 654.368 41.9719C654.368 42.7836 653.714 43.4388 652.902 43.4388C650.225 43.4388 647.713 44.4853 645.818 46.3728C644.273 47.918 643.296 49.8739 642.993 51.9962H652.902C653.714 51.9962 654.368 52.6514 654.368 53.4631C654.368 54.2749 653.714 54.9301 652.902 54.9301Z" fill="#A1A1A1"/>
<path d="M652.902 43.4399C649.443 43.4399 646.189 42.0903 643.746 39.6453C641.303 37.2003 639.954 33.9437 639.954 30.4816C639.954 29.6699 640.609 29.0146 641.42 29.0146H652.902C653.714 29.0146 654.368 29.6699 654.368 30.4816C654.368 31.2933 653.714 31.9486 652.902 31.9486H642.993C643.306 34.0708 644.283 36.0268 645.818 37.572C647.713 39.4693 650.225 40.5059 652.902 40.5059C653.714 40.5059 654.368 41.1612 654.368 41.9729C654.368 42.7846 653.714 43.4399 652.902 43.4399Z" fill="#A1A1A1"/>
<path d="M677.685 324.287C670.541 324.287 664.736 318.477 664.736 311.328C664.736 310.517 665.391 309.861 666.202 309.861C667.013 309.861 667.668 310.517 667.668 311.328C667.668 316.355 671.391 320.531 676.219 321.245V311.328C676.219 310.517 676.874 309.861 677.685 309.861C678.496 309.861 679.151 310.517 679.151 311.328V322.82C679.151 323.631 678.496 324.287 677.685 324.287Z" fill="#A1A1A1"/>
<path d="M820.313 170.382C819.502 170.382 818.847 169.727 818.847 168.915V158.999C814.019 159.712 810.296 163.888 810.296 168.915C810.296 169.727 809.641 170.382 808.83 170.382C808.019 170.382 807.364 169.727 807.364 168.915C807.364 161.766 813.169 155.957 820.313 155.957C821.124 155.957 821.778 156.612 821.778 157.424V168.915C821.778 169.727 821.124 170.382 820.313 170.382Z" fill="#A1A1A1"/>
<path d="M836.69 163.488C835.879 163.488 835.225 162.832 835.225 162.021C835.225 161.209 835.879 160.554 836.69 160.554C841.713 160.554 845.886 156.828 846.6 151.996H836.69C835.879 151.996 835.225 151.341 835.225 150.529C835.225 149.718 835.879 149.062 836.69 149.062H848.173C848.984 149.062 849.639 149.718 849.639 150.529C849.639 157.679 843.834 163.488 836.69 163.488Z" fill="#A1A1A1"/>
<path d="M836.69 100.632C835.879 100.632 835.225 99.977 835.225 99.1653C835.225 98.3536 835.879 97.6983 836.69 97.6983C841.713 97.6983 845.886 93.9722 846.6 89.141H836.69C835.879 89.141 835.225 88.4857 835.225 87.674C835.225 86.8623 835.879 86.207 836.69 86.207H848.173C848.984 86.207 849.639 86.8623 849.639 87.674C849.639 94.823 843.834 100.632 836.69 100.632Z" fill="#A1A1A1"/>
<path d="M702.008 89.141C701.197 89.141 700.542 88.4858 700.542 87.6741C700.542 86.8623 701.197 86.2071 702.008 86.2071C707.031 86.2071 711.204 82.481 711.917 77.6498H702.008C701.197 77.6498 700.542 76.9945 700.542 76.1828C700.542 75.3711 701.197 74.7158 702.008 74.7158H713.49C714.301 74.7158 714.956 75.3711 714.956 76.1828C714.956 83.3318 709.151 89.141 702.008 89.141Z" fill="#A1A1A1"/>
<path d="M702.008 113.865C701.197 113.865 700.542 113.209 700.542 112.398C700.542 111.586 701.197 110.931 702.008 110.931C707.031 110.931 711.204 107.205 711.917 102.373H702.008C701.197 102.373 700.542 101.718 700.542 100.906C700.542 100.095 701.197 99.4395 702.008 99.4395H713.49C714.301 99.4395 714.956 100.095 714.956 100.906C714.956 108.055 709.151 113.865 702.008 113.865Z" fill="#A1A1A1"/>
<path d="M702.008 135.644C701.197 135.644 700.542 134.989 700.542 134.177C700.542 133.365 701.197 132.71 702.008 132.71C707.031 132.71 711.204 128.984 711.917 124.153H702.008C701.197 124.153 700.542 123.497 700.542 122.686C700.542 121.874 701.197 121.219 702.008 121.219H713.49C714.301 121.219 714.956 121.874 714.956 122.686C714.956 129.835 709.151 135.644 702.008 135.644Z" fill="#A1A1A1"/>
<path d="M652.922 158.92C652.111 158.92 651.456 158.265 651.456 157.453C651.456 156.642 652.111 155.986 652.922 155.986C657.945 155.986 662.118 152.26 662.831 147.429H652.922C652.111 147.429 651.456 146.774 651.456 145.962C651.456 145.15 652.111 144.495 652.922 144.495H664.404C665.216 144.495 665.87 145.15 665.87 145.962C665.87 153.111 660.065 158.92 652.922 158.92Z" fill="#A1A1A1"/>
<path d="M488.629 207.564C487.818 207.564 487.163 206.909 487.163 206.097C487.163 205.285 487.818 204.63 488.629 204.63C493.652 204.63 497.825 200.904 498.538 196.073H488.629C487.818 196.073 487.163 195.417 487.163 194.606C487.163 193.794 487.818 193.139 488.629 193.139H500.111C500.923 193.139 501.577 193.794 501.577 194.606C501.577 201.755 495.773 207.564 488.629 207.564Z" fill="#A1A1A1"/>
<path d="M472.564 189.373C471.752 189.373 471.098 188.718 471.098 187.906C471.098 182.88 467.374 178.704 462.547 177.99V187.906C462.547 188.718 461.892 189.373 461.081 189.373C460.27 189.373 459.615 188.718 459.615 187.906V176.415C459.615 175.603 460.27 174.948 461.081 174.948C468.225 174.948 474.029 180.757 474.029 187.906C474.029 188.718 473.375 189.373 472.564 189.373Z" fill="#A1A1A1"/>
<path d="M449.276 207.564C442.132 207.564 436.327 201.755 436.327 194.606C436.327 193.794 436.982 193.139 437.793 193.139H449.276C450.087 193.139 450.741 193.794 450.741 194.606C450.741 195.417 450.087 196.073 449.276 196.073H439.366C440.08 200.904 444.253 204.63 449.276 204.63C450.087 204.63 450.741 205.285 450.741 206.097C450.741 206.909 450.087 207.564 449.276 207.564Z" fill="#A1A1A1"/>
<path d="M294.306 207.564C287.162 207.564 281.357 201.755 281.357 194.606C281.357 193.794 282.012 193.139 282.823 193.139H294.306C295.117 193.139 295.772 193.794 295.772 194.606C295.772 195.417 295.117 196.073 294.306 196.073H284.397C285.11 200.904 289.283 204.63 294.306 204.63C295.117 204.63 295.772 205.285 295.772 206.097C295.772 206.909 295.117 207.564 294.306 207.564Z" fill="#A1A1A1"/>
<path d="M294.306 253.99C287.162 253.99 281.357 248.18 281.357 241.031C281.357 240.22 282.012 239.564 282.823 239.564H294.306C295.117 239.564 295.772 240.22 295.772 241.031C295.772 241.843 295.117 242.498 294.306 242.498H284.397C285.11 247.33 289.283 251.056 294.306 251.056C295.117 251.056 295.772 251.711 295.772 252.523C295.772 253.334 295.117 253.99 294.306 253.99Z" fill="#A1A1A1"/>
<path d="M294.306 284.336C287.162 284.336 281.357 278.527 281.357 271.378C281.357 270.566 282.012 269.911 282.823 269.911H294.306C295.117 269.911 295.772 270.566 295.772 271.378C295.772 272.19 295.117 272.845 294.306 272.845H284.397C285.11 277.676 289.283 281.402 294.306 281.402C295.117 281.402 295.772 282.058 295.772 282.869C295.772 283.681 295.117 284.336 294.306 284.336Z" fill="#A1A1A1"/>
<path d="M294.306 329.852C287.162 329.852 281.357 324.043 281.357 316.894C281.357 316.082 282.012 315.427 282.823 315.427H294.306C295.117 315.427 295.772 316.082 295.772 316.894C295.772 317.705 295.117 318.361 294.306 318.361H284.397C285.11 323.192 289.283 326.918 294.306 326.918C295.117 326.918 295.772 327.573 295.772 328.385C295.772 329.197 295.117 329.852 294.306 329.852Z" fill="#A1A1A1"/>
<path d="M177.829 374.339C170.686 374.339 164.881 368.53 164.881 361.381C164.881 360.569 165.536 359.914 166.347 359.914H177.829C178.64 359.914 179.295 360.569 179.295 361.381C179.295 362.193 178.64 362.848 177.829 362.848H167.92C168.633 367.679 172.806 371.405 177.829 371.405C178.64 371.405 179.295 372.061 179.295 372.872C179.295 373.684 178.64 374.339 177.829 374.339Z" fill="#A1A1A1"/>
<path d="M177.829 488.499C170.686 488.499 164.881 482.69 164.881 475.541C164.881 474.729 165.536 474.074 166.347 474.074H177.829C178.64 474.074 179.295 474.729 179.295 475.541C179.295 476.353 178.64 477.008 177.829 477.008H167.92C168.633 481.839 172.806 485.565 177.829 485.565C178.64 485.565 179.295 486.221 179.295 487.032C179.295 487.844 178.64 488.499 177.829 488.499Z" fill="#A1A1A1"/>
<path d="M177.829 467.102H166.347C165.536 467.102 164.881 466.447 164.881 465.635C164.881 458.486 170.686 452.677 177.829 452.677C178.64 452.677 179.295 453.332 179.295 454.144C179.295 454.955 178.64 455.611 177.829 455.611C172.806 455.611 168.633 459.337 167.92 464.168H177.829C178.64 464.168 179.295 464.823 179.295 465.635C179.295 466.447 178.64 467.102 177.829 467.102Z" fill="#A1A1A1"/>
<path d="M282.823 341.353C282.432 341.353 282.061 341.196 281.787 340.923C281.514 340.649 281.357 340.277 281.357 339.886C281.357 332.737 287.162 326.928 294.306 326.928C295.117 326.928 295.772 327.583 295.772 328.395C295.772 329.206 295.117 329.862 294.306 329.862C289.283 329.862 285.11 333.588 284.397 338.419H294.306C295.117 338.419 295.772 339.074 295.772 339.886C295.772 340.698 295.117 341.353 294.306 341.353H282.823Z" fill="#A1A1A1"/>
<path d="M240.421 414.027C233.277 414.027 227.473 408.218 227.473 401.069C227.473 400.257 228.127 399.602 228.939 399.602C229.75 399.602 230.404 400.257 230.404 401.069C230.404 406.594 234.9 411.093 240.421 411.093C241.232 411.093 241.887 411.748 241.887 412.56C241.887 413.372 241.232 414.027 240.421 414.027Z" fill="#A1A1A1"/>
<path d="M258.666 402.535H254.894C254.083 402.535 253.428 401.879 253.428 401.068V391.151C248.61 391.865 244.906 396.041 244.906 401.068C244.906 401.879 244.252 402.535 243.44 402.535C242.629 402.535 241.975 401.879 241.975 401.068C241.975 393.919 247.77 388.109 254.894 388.109C255.705 388.109 256.36 388.765 256.36 389.576V399.601H258.666C259.477 399.601 260.132 400.256 260.132 401.068C260.132 401.879 259.477 402.535 258.666 402.535Z" fill="#A1A1A1"/>
<path d="M258.695 352.825H254.776C253.965 352.825 253.311 352.169 253.311 351.358V341.441C248.483 342.155 244.76 346.331 244.76 351.358C244.76 352.169 244.105 352.825 243.294 352.825H236.326C235.515 352.825 234.86 352.169 234.86 351.358C234.86 350.546 235.515 349.891 236.326 349.891H241.916C242.649 343.436 248.141 338.399 254.786 338.399C255.597 338.399 256.252 339.055 256.252 339.866V349.891H258.705C259.516 349.891 260.171 350.546 260.171 351.358C260.171 352.169 259.516 352.825 258.705 352.825H258.695Z" fill="#A1A1A1"/>
<path d="M591.913 105.737C591.102 105.737 590.447 105.081 590.447 104.27C590.447 97.1207 596.252 91.3115 603.396 91.3115C604.207 91.3115 604.861 91.9668 604.861 92.7785C604.861 93.5902 604.207 94.2455 603.396 94.2455C597.874 94.2455 593.379 98.7442 593.379 104.27C593.379 105.081 592.724 105.737 591.913 105.737Z" fill="#A1A1A1"/>
<path d="M500.111 105.737C499.3 105.737 498.646 105.081 498.646 104.27C498.646 98.7442 494.15 94.2455 488.629 94.2455C487.818 94.2455 487.163 93.5902 487.163 92.7785C487.163 91.9668 487.818 91.3115 488.629 91.3115C495.773 91.3115 501.577 97.1207 501.577 104.27C501.577 105.081 500.923 105.737 500.111 105.737Z" fill="#A1A1A1"/>
<path d="M664.404 141.756C663.593 141.756 662.939 141.101 662.939 140.289C662.939 134.764 658.443 130.265 652.922 130.265C652.111 130.265 651.456 129.61 651.456 128.798C651.456 127.986 652.111 127.331 652.922 127.331C660.065 127.331 665.87 133.14 665.87 140.289C665.87 141.101 665.216 141.756 664.404 141.756Z" fill="#A1A1A1"/>
<path d="M848.173 126.597H836.69C835.879 126.597 835.225 125.942 835.225 125.13C835.225 124.318 835.879 123.663 836.69 123.663H846.6C845.886 118.832 841.713 115.106 836.69 115.106C835.879 115.106 835.225 114.451 835.225 113.639C835.225 112.827 835.879 112.172 836.69 112.172C843.834 112.172 849.639 117.981 849.639 125.13C849.639 125.942 848.984 126.597 848.173 126.597Z" fill="#A1A1A1"/>
<path d="M893.331 530.23C892.168 530.23 890.995 530.073 889.823 529.741C889.451 529.633 889.129 529.389 888.943 529.046C888.757 528.704 888.709 528.303 888.816 527.932L891.933 516.871C892.148 516.088 892.959 515.638 893.741 515.854L904.794 518.973C905.165 519.081 905.488 519.325 905.673 519.668C905.859 520.01 905.908 520.411 905.8 520.783C904.198 526.494 898.989 530.23 893.331 530.23ZM892.06 527.218C896.419 527.785 900.68 525.389 902.478 521.379L894.347 519.091L892.06 527.227V527.218Z" fill="#A1A1A1"/>
<path d="M912.329 536.031C912.202 536.031 912.065 536.011 911.928 535.972C908.596 535.033 905.83 532.852 904.14 529.83C902.449 526.808 902.039 523.317 902.977 519.982C903.192 519.2 904.003 518.75 904.785 518.965L915.837 522.085C916.619 522.3 917.069 523.111 916.854 523.894L913.736 534.955C913.55 535.6 912.964 536.021 912.329 536.021V536.031ZM905.508 522.222C905.234 524.344 905.645 526.495 906.71 528.402C907.775 530.309 909.397 531.776 911.352 532.647L913.638 524.51L905.508 522.222Z" fill="#A1A1A1"/>
<path d="M919.355 537.841C918.192 537.841 917.019 537.684 915.846 537.352C915.065 537.136 914.615 536.325 914.83 535.542L917.947 524.481C918.055 524.11 918.299 523.787 918.641 523.601C918.983 523.415 919.384 523.367 919.755 523.464L930.808 526.584C931.179 526.692 931.502 526.936 931.687 527.278C931.873 527.621 931.922 528.022 931.814 528.393C930.212 534.105 925.003 537.841 919.345 537.841H919.355ZM918.084 534.828C922.452 535.396 926.703 533 928.502 528.99L920.371 526.701L918.084 534.838V534.828Z" fill="#A1A1A1"/>
<path d="M938.352 543.646C938.225 543.646 938.088 543.626 937.952 543.587C934.619 542.648 931.854 540.467 930.163 537.445C928.472 534.423 928.062 530.932 929 527.597C929.215 526.815 930.026 526.365 930.808 526.58L941.861 529.7C942.642 529.915 943.092 530.727 942.877 531.509L939.76 542.57C939.574 543.216 938.988 543.636 938.352 543.636V543.646ZM931.531 529.837C931.258 531.959 931.668 534.111 932.733 536.018C933.798 537.925 935.421 539.392 937.375 540.262L939.662 532.125L931.531 529.837Z" fill="#A1A1A1"/>
<path d="M1033 643.637C1032.81 643.637 1032.63 643.598 1032.44 643.529L1028.7 641.984C1027.95 641.671 1027.59 640.82 1027.9 640.067L1070.65 535.814C1070.8 535.452 1071.09 535.159 1071.45 535.012C1071.81 534.866 1072.22 534.866 1072.58 535.012L1103.25 547.971C1103.99 548.284 1104.35 549.144 1104.03 549.897C1103.72 550.641 1102.86 550.993 1102.12 550.68L1072.8 538.298L1031.17 639.823L1033.55 640.81C1034.31 641.123 1034.66 641.974 1034.35 642.727C1034.11 643.294 1033.56 643.637 1032.99 643.637H1033Z" fill="#A1A1A1"/>
<path d="M652.902 31.9495C652.091 31.9495 651.437 31.2942 651.437 30.4825V-6.46565C651.437 -7.27737 652.091 -7.93262 652.902 -7.93262C653.713 -7.93262 654.368 -7.27737 654.368 -6.46565V30.4825C654.368 31.2942 653.713 31.9495 652.902 31.9495Z" fill="#A1A1A1"/>
<path d="M652.902 147.428C652.091 147.428 651.437 146.773 651.437 145.962V53.464C651.437 52.6523 652.091 51.9971 652.902 51.9971C653.713 51.9971 654.368 52.6523 654.368 53.464V145.962C654.368 146.773 653.713 147.428 652.902 147.428Z" fill="#A1A1A1"/>
<path d="M666.203 312.796H652.912C652.101 312.796 651.446 312.141 651.446 311.329V157.453C651.446 156.642 652.101 155.986 652.912 155.986C653.723 155.986 654.378 156.642 654.378 157.453V309.862H666.203C667.014 309.862 667.668 310.517 667.668 311.329C667.668 312.141 667.014 312.796 666.203 312.796Z" fill="#A1A1A1"/>
<path d="M797.347 312.795H677.685C676.873 312.795 676.219 312.14 676.219 311.328C676.219 310.517 676.873 309.861 677.685 309.861H797.347C798.158 309.861 798.813 310.517 798.813 311.328C798.813 312.14 798.158 312.795 797.347 312.795Z" fill="#A1A1A1"/>
<path d="M847.47 312.795H820.313C819.501 312.795 818.847 312.14 818.847 311.328C818.847 310.517 819.501 309.861 820.313 309.861H847.47C848.281 309.861 848.936 310.517 848.936 311.328C848.936 312.14 848.281 312.795 847.47 312.795Z" fill="#A1A1A1"/>
<path d="M970.582 312.795H870.435C869.623 312.795 868.969 312.14 868.969 311.328C868.969 310.517 869.623 309.861 870.435 309.861H970.582C971.393 309.861 972.047 310.517 972.047 311.328C972.047 312.14 971.393 312.795 970.582 312.795Z" fill="#A1A1A1"/>
<path d="M1160.84 312.795H993.557C992.746 312.795 992.091 312.14 992.091 311.328C992.091 310.517 992.746 309.861 993.557 309.861H1160.84C1161.65 309.861 1162.31 310.517 1162.31 311.328C1162.31 312.14 1161.65 312.795 1160.84 312.795Z" fill="#A1A1A1"/>
<path d="M1302.45 427.757H1050.36C1049.55 427.757 1048.9 427.102 1048.9 426.29C1048.9 425.478 1049.55 424.823 1050.36 424.823H1300.98V312.795H1270.97C1270.16 312.795 1269.51 312.14 1269.51 311.328C1269.51 310.517 1270.16 309.861 1270.97 309.861H1302.45C1303.26 309.861 1303.92 310.517 1303.92 311.328V426.29C1303.92 427.102 1303.26 427.757 1302.45 427.757Z" fill="#A1A1A1"/>
<path d="M950.92 312.795C950.109 312.795 949.454 312.14 949.454 311.328V-21.8699C949.454 -22.6817 950.109 -23.3369 950.92 -23.3369C951.731 -23.3369 952.386 -22.6817 952.386 -21.8699V311.328C952.386 312.14 951.731 312.795 950.92 312.795Z" fill="#A1A1A1"/>
<path d="M1035.26 142.804H950.92C950.109 142.804 949.454 142.149 949.454 141.337C949.454 140.525 950.109 139.87 950.92 139.87H1035.26C1036.07 139.87 1036.72 140.525 1036.72 141.337C1036.72 142.149 1036.07 142.804 1035.26 142.804Z" fill="#A1A1A1"/>
<path d="M1202.3 142.804H1133.46C1132.65 142.804 1131.99 142.149 1131.99 141.337C1131.99 140.525 1132.65 139.87 1133.46 139.87H1202.3C1203.12 139.87 1203.77 140.525 1203.77 141.337C1203.77 142.149 1203.12 142.804 1202.3 142.804Z" fill="#A1A1A1"/>
<path d="M808.83 170.381H652.912C652.101 170.381 651.446 169.726 651.446 168.914C651.446 168.103 652.101 167.447 652.912 167.447H808.83C809.641 167.447 810.296 168.103 810.296 168.914C810.296 169.726 809.641 170.381 808.83 170.381Z" fill="#A1A1A1"/>
<path d="M836.691 312.795C835.88 312.795 835.225 312.14 835.225 311.328V170.381H820.313C819.501 170.381 818.847 169.726 818.847 168.914C818.847 168.103 819.501 167.447 820.313 167.447H836.691C837.502 167.447 838.157 168.103 838.157 168.914V311.328C838.157 312.14 837.502 312.795 836.691 312.795Z" fill="#A1A1A1"/>
<path d="M836.69 89.1409C835.879 89.1409 835.225 88.4856 835.225 87.6739V65.5226C835.225 64.7109 835.879 64.0557 836.69 64.0557H842.593C843.404 64.0557 844.059 64.7109 844.059 65.5226C844.059 66.3344 843.404 66.9896 842.593 66.9896H838.156V87.6739C838.156 88.4856 837.502 89.1409 836.69 89.1409Z" fill="#A1A1A1"/>
<path d="M836.69 115.107C835.879 115.107 835.225 114.452 835.225 113.64V99.1662C835.225 98.3545 835.879 97.6992 836.69 97.6992C837.502 97.6992 838.156 98.3545 838.156 99.1662V113.64C838.156 114.452 837.502 115.107 836.69 115.107Z" fill="#A1A1A1"/>
<path d="M836.69 151.996C835.879 151.996 835.225 151.341 835.225 150.529V125.131C835.225 124.319 835.879 123.664 836.69 123.664C837.502 123.664 838.156 124.319 838.156 125.131V150.529C838.156 151.341 837.502 151.996 836.69 151.996Z" fill="#A1A1A1"/>
<path d="M836.69 169.804C835.879 169.804 835.225 169.149 835.225 168.337V162.02C835.225 161.208 835.879 160.553 836.69 160.553C837.502 160.553 838.156 161.208 838.156 162.02V168.337C838.156 169.149 837.502 169.804 836.69 169.804Z" fill="#A1A1A1"/>
<path d="M836.691 85.8548H820.576C819.765 85.8548 819.111 85.1995 819.111 84.3878V69.7279H652.912C652.101 69.7279 651.446 69.0726 651.446 68.2609C651.446 67.4492 652.101 66.7939 652.912 66.7939H820.576C821.387 66.7939 822.042 67.4492 822.042 68.2609V82.9208H836.691C837.502 82.9208 838.157 83.5761 838.157 84.3878C838.157 85.1995 837.502 85.8548 836.691 85.8548Z" fill="#A1A1A1"/>
<path d="M830.212 85.8547C829.401 85.8547 828.746 85.1995 828.746 84.3878V52.134C828.746 51.3222 829.401 50.667 830.212 50.667C831.023 50.667 831.678 51.3222 831.678 52.134V84.3878C831.678 85.1995 831.023 85.8547 830.212 85.8547Z" fill="#A1A1A1"/>
<path d="M830.212 18.4631C829.401 18.4631 828.746 17.8078 828.746 16.9961V-6.46565C828.746 -7.27737 829.401 -7.93262 830.212 -7.93262C831.023 -7.93262 831.678 -7.27737 831.678 -6.46565V16.9961C831.678 17.8078 831.023 18.4631 830.212 18.4631Z" fill="#A1A1A1"/>
<path d="M729.928 169.805C729.117 169.805 728.462 169.149 728.462 168.338V159.262C728.462 158.45 729.117 157.795 729.928 157.795C730.739 157.795 731.394 158.45 731.394 159.262V168.338C731.394 169.149 730.739 169.805 729.928 169.805Z" fill="#A1A1A1"/>
<path d="M729.928 149.424C729.117 149.424 728.462 148.769 728.462 147.957V132.622C728.462 131.811 729.117 131.155 729.928 131.155C730.739 131.155 731.394 131.811 731.394 132.622V147.957C731.394 148.769 730.739 149.424 729.928 149.424Z" fill="#A1A1A1"/>
<path d="M652.902 141.757C652.091 141.757 651.437 141.102 651.437 140.29V68.2521C651.437 67.4404 652.091 66.7852 652.902 66.7852H702.008C702.82 66.7852 703.474 67.4404 703.474 68.2521V76.1738C703.474 76.9855 702.82 77.6408 702.008 77.6408C701.197 77.6408 700.543 76.9855 700.543 76.1738V69.7191H654.368V140.29C654.368 141.102 653.713 141.757 652.902 141.757Z" fill="#A1A1A1"/>
<path d="M702.008 141.755H664.404C663.593 141.755 662.938 141.1 662.938 140.288C662.938 139.477 663.593 138.821 664.404 138.821H700.542V134.166C700.542 133.354 701.197 132.699 702.008 132.699C702.819 132.699 703.474 133.354 703.474 134.166V140.288C703.474 141.1 702.819 141.755 702.008 141.755Z" fill="#A1A1A1"/>
<path d="M702.008 124.152C701.197 124.152 700.542 123.497 700.542 122.685V112.406C700.542 111.595 701.197 110.939 702.008 110.939C702.819 110.939 703.474 111.595 703.474 112.406V122.685C703.474 123.497 702.819 124.152 702.008 124.152Z" fill="#A1A1A1"/>
<path d="M702.008 102.373C701.197 102.373 700.542 101.718 700.542 100.906V87.674C700.542 86.8623 701.197 86.207 702.008 86.207C702.819 86.207 703.474 86.8623 703.474 87.674V100.906C703.474 101.718 702.819 102.373 702.008 102.373Z" fill="#A1A1A1"/>
<path d="M671.255 141.757C670.444 141.757 669.789 141.101 669.789 140.29V96.3C669.789 95.4883 670.444 94.833 671.255 94.833H702.008C702.82 94.833 703.474 95.4883 703.474 96.3C703.474 97.1117 702.82 97.767 702.008 97.767H672.721V140.29C672.721 141.101 672.066 141.757 671.255 141.757Z" fill="#A1A1A1"/>
<path d="M702.008 119.047H671.255C670.444 119.047 669.789 118.392 669.789 117.58C669.789 116.769 670.444 116.113 671.255 116.113H702.008C702.82 116.113 703.474 116.769 703.474 117.58C703.474 118.392 702.82 119.047 702.008 119.047Z" fill="#A1A1A1"/>
<path d="M671.255 114.833H652.912C652.101 114.833 651.446 114.178 651.446 113.366C651.446 112.555 652.101 111.899 652.912 111.899H671.255C672.066 111.899 672.721 112.555 672.721 113.366C672.721 114.178 672.066 114.833 671.255 114.833Z" fill="#A1A1A1"/>
<path d="M603.396 312.796H515.718C514.907 312.796 514.252 312.14 514.252 311.329C514.252 310.517 514.907 309.862 515.718 309.862H601.93V189.374H472.564C471.752 189.374 471.098 188.719 471.098 187.907C471.098 187.096 471.752 186.44 472.564 186.44H603.396C604.207 186.44 604.862 187.096 604.862 187.907V311.329C604.862 312.14 604.207 312.796 603.396 312.796Z" fill="#A1A1A1"/>
<path d="M421.61 312.796H337.255C336.444 312.796 335.789 312.14 335.789 311.329V187.907C335.789 187.096 336.444 186.44 337.255 186.44H461.08C461.891 186.44 462.546 187.096 462.546 187.907C462.546 188.719 461.891 189.374 461.08 189.374H338.721V309.862H421.61C422.421 309.862 423.076 310.517 423.076 311.329C423.076 312.14 422.421 312.796 421.61 312.796Z" fill="#A1A1A1"/>
<path d="M492.753 312.795H444.575C443.764 312.795 443.109 312.14 443.109 311.328C443.109 310.517 443.764 309.861 444.575 309.861H492.753C493.564 309.861 494.219 310.517 494.219 311.328C494.219 312.14 493.564 312.795 492.753 312.795Z" fill="#A1A1A1"/>
<path d="M603.396 189.375C602.584 189.375 601.93 188.72 601.93 187.908V160.564C601.93 159.752 602.584 159.097 603.396 159.097C604.207 159.097 604.861 159.752 604.861 160.564V187.908C604.861 188.72 604.207 189.375 603.396 189.375Z" fill="#A1A1A1"/>
<path d="M603.395 94.2459C602.584 94.2459 601.93 93.5906 601.93 92.7789V-5.00942H488.629C487.818 -5.00942 487.163 -5.66466 487.163 -6.47639C487.163 -7.28811 487.818 -7.94336 488.629 -7.94336H603.395C604.207 -7.94336 604.861 -7.28811 604.861 -6.47639V92.7789C604.861 93.5906 604.207 94.2459 603.395 94.2459Z" fill="#A1A1A1"/>
<path d="M603.395 105.737H488.629C487.818 105.737 487.163 105.081 487.163 104.27C487.163 103.458 487.818 102.803 488.629 102.803H603.395C604.207 102.803 604.861 103.458 604.861 104.27C604.861 105.081 604.207 105.737 603.395 105.737Z" fill="#A1A1A1"/>
<path d="M488.629 94.2459C487.818 94.2459 487.163 93.5906 487.163 92.7789V-6.47639C487.163 -7.28811 487.818 -7.94336 488.629 -7.94336C489.44 -7.94336 490.095 -7.28811 490.095 -6.47639V92.7789C490.095 93.5906 489.44 94.2459 488.629 94.2459Z" fill="#A1A1A1"/>
<path d="M603.396 134.304C602.584 134.304 601.93 133.648 601.93 132.837V104.27C601.93 103.458 602.584 102.803 603.396 102.803C604.207 102.803 604.861 103.458 604.861 104.27V132.837C604.861 133.648 604.207 134.304 603.396 134.304Z" fill="#A1A1A1"/>
<path d="M519.852 147.448H488.629C487.818 147.448 487.163 146.792 487.163 145.981V127.154C487.163 126.343 487.818 125.687 488.629 125.687C489.44 125.687 490.095 126.343 490.095 127.154V144.514H518.386V105.746H490.095V114.382H499.711C500.522 114.382 501.177 115.037 501.177 115.849C501.177 116.661 500.522 117.316 499.711 117.316H488.629C487.818 117.316 487.163 116.661 487.163 115.849V104.279C487.163 103.468 487.818 102.812 488.629 102.812H519.852C520.663 102.812 521.317 103.468 521.317 104.279V145.981C521.317 146.792 520.663 147.448 519.852 147.448Z" fill="#A1A1A1"/>
<path d="M519.852 189.375H488.629C487.818 189.375 487.163 188.719 487.163 187.908V145.982C487.163 145.17 487.818 144.515 488.629 144.515H519.852C520.663 144.515 521.317 145.17 521.317 145.982V187.908C521.317 188.719 520.663 189.375 519.852 189.375ZM490.095 186.441H518.386V147.449H490.095V186.441Z" fill="#A1A1A1"/>
<path d="M587.398 147.449H519.842C519.031 147.449 518.376 146.793 518.376 145.982C518.376 145.17 519.031 144.515 519.842 144.515H587.398C588.209 144.515 588.864 145.17 588.864 145.982C588.864 146.793 588.209 147.449 587.398 147.449Z" fill="#A1A1A1"/>
<path d="M587.398 171.204C586.587 171.204 585.933 170.549 585.933 169.737V124.378C585.933 123.566 586.587 122.911 587.398 122.911C588.21 122.911 588.864 123.566 588.864 124.378V169.737C588.864 170.549 588.21 171.204 587.398 171.204Z" fill="#A1A1A1"/>
<path d="M488.629 196.074C487.818 196.074 487.163 195.418 487.163 194.607V187.907C487.163 187.096 487.818 186.44 488.629 186.44C489.44 186.44 490.095 187.096 490.095 187.907V194.607C490.095 195.418 489.44 196.074 488.629 196.074Z" fill="#A1A1A1"/>
<path d="M488.629 312.795C487.818 312.795 487.163 312.14 487.163 311.328V285.206C487.163 284.395 487.818 283.739 488.629 283.739C489.44 283.739 490.095 284.395 490.095 285.206V311.328C490.095 312.14 489.44 312.795 488.629 312.795Z" fill="#A1A1A1"/>
<path d="M488.629 263.681C487.818 263.681 487.163 263.026 487.163 262.214V206.088C487.163 205.276 487.818 204.621 488.629 204.621C489.44 204.621 490.095 205.276 490.095 206.088V262.214C490.095 263.026 489.44 263.681 488.629 263.681Z" fill="#A1A1A1"/>
<path d="M449.275 263.681C448.464 263.681 447.81 263.026 447.81 262.214V206.088C447.81 205.276 448.464 204.621 449.275 204.621C450.087 204.621 450.741 205.276 450.741 206.088V262.214C450.741 263.026 450.087 263.681 449.275 263.681Z" fill="#A1A1A1"/>
<path d="M449.275 196.074C448.464 196.074 447.81 195.418 447.81 194.607V187.907C447.81 187.096 448.464 186.44 449.275 186.44C450.087 186.44 450.741 187.096 450.741 187.907V194.607C450.741 195.418 450.087 196.074 449.275 196.074Z" fill="#A1A1A1"/>
<path d="M449.275 312.795C448.464 312.795 447.81 312.14 447.81 311.328V285.206C447.81 284.395 448.464 283.739 449.275 283.739C450.087 283.739 450.741 284.395 450.741 285.206V311.328C450.741 312.14 450.087 312.795 449.275 312.795Z" fill="#A1A1A1"/>
<path d="M488.629 245.619H449.275C448.464 245.619 447.81 244.963 447.81 244.152C447.81 243.34 448.464 242.685 449.275 242.685H488.629C489.44 242.685 490.095 243.34 490.095 244.152C490.095 244.963 489.44 245.619 488.629 245.619Z" fill="#A1A1A1"/>
<path d="M451.064 532.892C450.252 532.892 449.598 532.237 449.598 531.425V378.654C449.598 377.843 450.252 377.188 451.064 377.188C451.875 377.188 452.529 377.843 452.529 378.654V531.425C452.529 532.237 451.875 532.892 451.064 532.892Z" fill="#A1A1A1"/>
<path d="M451.064 357.127C450.253 357.127 449.598 356.472 449.598 355.66V349.616H294.306C293.495 349.616 292.84 348.961 292.84 348.149V339.875C292.84 339.063 293.495 338.408 294.306 338.408C295.117 338.408 295.772 339.063 295.772 339.875V346.682H451.064C451.875 346.682 452.53 347.337 452.53 348.149V355.66C452.53 356.472 451.875 357.127 451.064 357.127Z" fill="#A1A1A1"/>
<path d="M294.306 318.36C293.495 318.36 292.84 317.705 292.84 316.893V282.869C292.84 282.058 293.495 281.402 294.306 281.402C295.117 281.402 295.772 282.058 295.772 282.869V316.893C295.772 317.705 295.117 318.36 294.306 318.36Z" fill="#A1A1A1"/>
<path d="M294.306 272.844C293.495 272.844 292.84 272.189 292.84 271.377V252.522C292.84 251.71 293.495 251.055 294.306 251.055C295.117 251.055 295.772 251.71 295.772 252.522V271.377C295.772 272.189 295.117 272.844 294.306 272.844Z" fill="#A1A1A1"/>
<path d="M294.306 242.498C293.495 242.498 292.84 241.843 292.84 241.031V206.098C292.84 205.286 293.495 204.631 294.306 204.631C295.117 204.631 295.772 205.286 295.772 206.098V241.031C295.772 241.843 295.117 242.498 294.306 242.498Z" fill="#A1A1A1"/>
<path d="M294.306 196.074C293.495 196.074 292.84 195.418 292.84 194.607V187.907C292.84 187.096 293.495 186.44 294.306 186.44C295.117 186.44 295.772 187.096 295.772 187.907V194.607C295.772 195.418 295.117 196.074 294.306 196.074Z" fill="#A1A1A1"/>
<path d="M483.645 422.301H451.064C450.252 422.301 449.598 421.646 449.598 420.834C449.598 420.022 450.252 419.367 451.064 419.367H483.645C484.456 419.367 485.11 420.022 485.11 420.834C485.11 421.646 484.456 422.301 483.645 422.301Z" fill="#A1A1A1"/>
<path d="M293.846 237.736H226.788C225.977 237.736 225.322 237.08 225.322 236.269C225.322 235.457 225.977 234.802 226.788 234.802H293.846C294.657 234.802 295.312 235.457 295.312 236.269C295.312 237.08 294.657 237.736 293.846 237.736Z" fill="#A1A1A1"/>
<path d="M293.846 268.189H226.788C225.977 268.189 225.322 267.534 225.322 266.722C225.322 265.91 225.977 265.255 226.788 265.255H293.846C294.657 265.255 295.312 265.91 295.312 266.722C295.312 267.534 294.657 268.189 293.846 268.189Z" fill="#A1A1A1"/>
<path d="M294.306 310.399H236.316C235.505 310.399 234.851 309.744 234.851 308.932C234.851 308.12 235.505 307.465 236.316 307.465H294.306C295.117 307.465 295.771 308.12 295.771 308.932C295.771 309.744 295.117 310.399 294.306 310.399Z" fill="#A1A1A1"/>
<path d="M294.306 376.081H258.695C257.884 376.081 257.229 375.425 257.229 374.614C257.229 373.802 257.884 373.147 258.695 373.147H292.84V349.617H260.161V351.348C260.161 352.159 259.506 352.815 258.695 352.815C257.884 352.815 257.229 352.159 257.229 351.348V348.15C257.229 347.338 257.884 346.683 258.695 346.683H294.306C295.117 346.683 295.772 347.338 295.772 348.15V374.614C295.772 375.425 295.117 376.081 294.306 376.081Z" fill="#A1A1A1"/>
<path d="M294.306 402.535H258.695C257.884 402.535 257.229 401.88 257.229 401.068C257.229 400.256 257.884 399.601 258.695 399.601H292.84V376.071H258.695C257.884 376.071 257.229 375.415 257.229 374.604C257.229 373.792 257.884 373.137 258.695 373.137H294.306C295.117 373.137 295.772 373.792 295.772 374.604V401.068C295.772 401.88 295.117 402.535 294.306 402.535Z" fill="#A1A1A1"/>
<path d="M177.829 362.848C177.018 362.848 176.363 362.193 176.363 361.381V351.357C176.363 350.545 177.018 349.89 177.829 349.89C178.64 349.89 179.295 350.545 179.295 351.357V361.381C179.295 362.193 178.64 362.848 177.829 362.848Z" fill="#A1A1A1"/>
<path d="M243.441 402.535H177.829C177.018 402.535 176.363 401.88 176.363 401.068V372.873C176.363 372.061 177.018 371.406 177.829 371.406C178.64 371.406 179.295 372.061 179.295 372.873V399.601H243.441C244.252 399.601 244.907 400.257 244.907 401.068C244.907 401.88 244.252 402.535 243.441 402.535Z" fill="#A1A1A1"/>
<path d="M177.829 504.597C177.018 504.597 176.363 503.942 176.363 503.13V487.032C176.363 486.221 177.018 485.565 177.829 485.565C178.64 485.565 179.295 486.221 179.295 487.032V503.13C179.295 503.942 178.64 504.597 177.829 504.597Z" fill="#A1A1A1"/>
<path d="M177.829 477.008C177.018 477.008 176.363 476.353 176.363 475.541V465.634C176.363 464.822 177.018 464.167 177.829 464.167C178.64 464.167 179.295 464.822 179.295 465.634V475.541C179.295 476.353 178.64 477.008 177.829 477.008Z" fill="#A1A1A1"/>
<path d="M177.829 455.611C177.018 455.611 176.363 454.955 176.363 454.144V401.069C176.363 400.257 177.018 399.602 177.829 399.602C178.64 399.602 179.295 400.257 179.295 401.069V454.144C179.295 454.955 178.64 455.611 177.829 455.611Z" fill="#A1A1A1"/>
<path d="M240.421 429.86H177.829C177.018 429.86 176.363 429.205 176.363 428.393C176.363 427.582 177.018 426.926 177.829 426.926H238.955V412.56C238.955 411.748 239.61 411.093 240.421 411.093C241.232 411.093 241.887 411.748 241.887 412.56V428.393C241.887 429.205 241.232 429.86 240.421 429.86Z" fill="#A1A1A1"/>
<path d="M85.4513 472.049H48.4434C47.6323 472.049 46.9775 471.394 46.9775 470.582C46.9775 469.77 47.6323 469.115 48.4434 469.115H85.4513C86.2624 469.115 86.9171 469.77 86.9171 470.582C86.9171 471.394 86.2624 472.049 85.4513 472.049Z" fill="#A1A1A1"/>
<path d="M177.829 472.049H126.603C125.791 472.049 125.137 471.394 125.137 470.582C125.137 469.77 125.791 469.115 126.603 469.115H177.829C178.64 469.115 179.295 469.77 179.295 470.582C179.295 471.394 178.64 472.049 177.829 472.049Z" fill="#A1A1A1"/>
<path d="M133.081 537.448C132.27 537.448 131.615 536.793 131.615 535.981V505.429C131.615 504.617 132.27 503.962 133.081 503.962C133.892 503.962 134.547 504.617 134.547 505.429V535.981C134.547 536.793 133.892 537.448 133.081 537.448Z" fill="#A1A1A1"/>
<path d="M1119.42 427.757C1118.61 427.757 1117.96 427.102 1117.96 426.29V311.328C1117.96 310.517 1118.61 309.861 1119.42 309.861C1120.24 309.861 1120.89 310.517 1120.89 311.328V426.29C1120.89 427.102 1120.24 427.757 1119.42 427.757Z" fill="#A1A1A1"/>
<path d="M1165.4 427.757H1119.43C1118.62 427.757 1117.97 427.101 1117.97 426.29V370.183C1117.97 369.371 1118.62 368.716 1119.43 368.716H1165.4C1166.21 368.716 1166.87 369.371 1166.87 370.183V426.29C1166.87 427.101 1166.21 427.757 1165.4 427.757ZM1120.9 424.823H1163.94V371.65H1120.9V424.823Z" fill="#A1A1A1"/>
<path d="M1119.42 426.534H1095.43C1095.3 426.534 1095.19 426.427 1095.19 426.29V403.18C1095.19 403.043 1095.3 402.936 1095.43 402.936H1119.42C1119.56 402.936 1119.67 403.043 1119.67 403.18V426.29C1119.67 426.427 1119.56 426.534 1119.42 426.534ZM1095.68 426.045H1119.18V403.425H1095.68V426.045Z" fill="#A1A1A1"/>
<path d="M1054.82 403.415H950.92C950.783 403.415 950.676 403.308 950.676 403.171V311.319C950.676 311.182 950.783 311.074 950.92 311.074C951.057 311.074 951.164 311.182 951.164 311.319V402.926H1054.82C1054.96 402.926 1055.06 403.034 1055.06 403.171C1055.06 403.308 1054.96 403.415 1054.82 403.415Z" fill="#A1A1A1"/>
<path d="M1049 400.081H954.252C954.115 400.081 954.008 399.974 954.008 399.837V311.329C954.008 311.193 954.115 311.085 954.252 311.085C954.389 311.085 954.496 311.193 954.496 311.329V399.592H1049C1049.14 399.592 1049.25 399.7 1049.25 399.837C1049.25 399.974 1049.14 400.081 1049 400.081Z" fill="#A1A1A1"/>
<path d="M1049 396.541H957.799C957.662 396.541 957.555 396.433 957.555 396.296V311.329C957.555 311.193 957.662 311.085 957.799 311.085C957.936 311.085 958.043 311.193 958.043 311.329V396.052H1049C1049.14 396.052 1049.25 396.16 1049.25 396.296C1049.25 396.433 1049.14 396.541 1049 396.541Z" fill="#A1A1A1"/>
<path d="M1058.13 403.415H1049.01C1048.87 403.415 1048.76 403.308 1048.76 403.171V311.319C1048.76 311.182 1048.87 311.074 1049.01 311.074H1058.13C1058.27 311.074 1058.38 311.182 1058.38 311.319V403.171C1058.38 403.308 1058.27 403.415 1058.13 403.415ZM1049.25 402.926H1057.89V311.563H1049.25V402.926Z" fill="#A1A1A1"/>
<path d="M1067.26 403.415H1058.13C1058 403.415 1057.89 403.308 1057.89 403.171V311.319C1057.89 311.182 1058 311.074 1058.13 311.074H1067.26C1067.4 311.074 1067.5 311.182 1067.5 311.319V403.171C1067.5 403.308 1067.4 403.415 1067.26 403.415ZM1058.38 402.926H1067.02V311.563H1058.38V402.926Z" fill="#A1A1A1"/>
<path d="M1076.39 403.415H1067.26C1067.12 403.415 1067.02 403.308 1067.02 403.171V311.319C1067.02 311.182 1067.12 311.074 1067.26 311.074H1076.39C1076.52 311.074 1076.63 311.182 1076.63 311.319V403.171C1076.63 403.308 1076.52 403.415 1076.39 403.415ZM1067.5 402.926H1076.14V311.563H1067.5V402.926Z" fill="#A1A1A1"/>
<path d="M1085.51 403.415H1076.39C1076.25 403.415 1076.14 403.308 1076.14 403.171V311.319C1076.14 311.182 1076.25 311.074 1076.39 311.074H1085.51C1085.65 311.074 1085.76 311.182 1085.76 311.319V403.171C1085.76 403.308 1085.65 403.415 1085.51 403.415ZM1076.63 402.926H1085.27V311.563H1076.63V402.926Z" fill="#A1A1A1"/>
<path d="M1094.64 403.415H1085.51C1085.38 403.415 1085.27 403.308 1085.27 403.171V311.319C1085.27 311.182 1085.38 311.074 1085.51 311.074H1094.64C1094.78 311.074 1094.89 311.182 1094.89 311.319V403.171C1094.89 403.308 1094.78 403.415 1094.64 403.415ZM1085.76 402.926H1094.4V311.563H1085.76V402.926Z" fill="#A1A1A1"/>
<path d="M1023.7 407.151C1023.57 407.151 1023.46 407.044 1023.46 406.907V389.196C1023.46 389.059 1023.57 388.951 1023.7 388.951C1023.84 388.951 1023.95 389.059 1023.95 389.196V406.907C1023.95 407.044 1023.84 407.151 1023.7 407.151Z" fill="#A1A1A1"/>
<path d="M1001.63 407.151C1001.49 407.151 1001.38 407.044 1001.38 406.907V389.196C1001.38 389.059 1001.49 388.951 1001.63 388.951C1001.76 388.951 1001.87 389.059 1001.87 389.196V406.907C1001.87 407.044 1001.76 407.151 1001.63 407.151Z" fill="#A1A1A1"/>
<path d="M978.956 407.151C978.819 407.151 978.712 407.044 978.712 406.907V389.196C978.712 389.059 978.819 388.951 978.956 388.951C979.093 388.951 979.201 389.059 979.201 389.196V406.907C979.201 407.044 979.093 407.151 978.956 407.151Z" fill="#A1A1A1"/>
<path d="M964.377 330.36H946.679C946.542 330.36 946.435 330.253 946.435 330.116C946.435 329.979 946.542 329.871 946.679 329.871H964.377C964.513 329.871 964.621 329.979 964.621 330.116C964.621 330.253 964.513 330.36 964.377 330.36Z" fill="#A1A1A1"/>
<path d="M964.377 355.201H946.679C946.542 355.201 946.435 355.093 946.435 354.956C946.435 354.819 946.542 354.712 946.679 354.712H964.377C964.513 354.712 964.621 354.819 964.621 354.956C964.621 355.093 964.513 355.201 964.377 355.201Z" fill="#A1A1A1"/>
<path d="M964.377 379.885H946.679C946.542 379.885 946.435 379.778 946.435 379.641C946.435 379.504 946.542 379.396 946.679 379.396H964.377C964.513 379.396 964.621 379.504 964.621 379.641C964.621 379.778 964.513 379.885 964.377 379.885Z" fill="#A1A1A1"/>
<path d="M392.508 557.339C391.697 557.339 391.042 556.684 391.042 555.872V505.242C391.042 504.431 391.697 503.775 392.508 503.775C393.319 503.775 393.974 504.431 393.974 505.242V555.872C393.974 556.684 393.319 557.339 392.508 557.339Z" fill="#A1A1A1"/>
<path d="M465.683 21.6308H409.776C408.965 21.6308 408.31 20.9756 408.31 20.1639C408.31 19.3521 408.965 18.6969 409.776 18.6969H464.218V10.4525H339.689V18.6969H387.905C388.716 18.6969 389.371 19.3521 389.371 20.1639C389.371 20.9756 388.716 21.6308 387.905 21.6308H338.223C337.412 21.6308 336.757 20.9756 336.757 20.1639V8.98553C336.757 8.1738 337.412 7.51855 338.223 7.51855H465.683C466.495 7.51855 467.149 8.1738 467.149 8.98553V20.1639C467.149 20.9756 466.495 21.6308 465.683 21.6308Z" fill="#A1A1A1"/>
<path d="M409.776 -6.4668H387.446V8.9853H409.776V-6.4668Z" fill="#A1A1A1"/>
<path d="M1147.27 527.542C1148.52 527.542 1149.53 526.526 1149.53 525.273C1149.53 524.02 1148.52 523.004 1147.27 523.004C1146.01 523.004 1145 524.02 1145 525.273C1145 526.526 1146.01 527.542 1147.27 527.542Z" fill="#A1A1A1"/>
<path d="M1061.16 492.762C1062.41 492.762 1063.43 491.747 1063.43 490.494C1063.43 489.24 1062.41 488.225 1061.16 488.225C1059.91 488.225 1058.89 489.24 1058.89 490.494C1058.89 491.747 1059.91 492.762 1061.16 492.762Z" fill="#A1A1A1"/>
<path d="M977.09 464.158C978.343 464.158 979.358 463.142 979.358 461.889C979.358 460.636 978.343 459.62 977.09 459.62C975.838 459.62 974.823 460.636 974.823 461.889C974.823 463.142 975.838 464.158 977.09 464.158Z" fill="#A1A1A1"/>
<path d="M849.101 425.341C850.353 425.341 851.368 424.325 851.368 423.072C851.368 421.819 850.353 420.803 849.101 420.803C847.849 420.803 846.834 421.819 846.834 423.072C846.834 424.325 847.849 425.341 849.101 425.341Z" fill="#A1A1A1"/>
<path d="M853.695 426.456C854.947 426.456 855.962 425.44 855.962 424.187C855.962 422.934 854.947 421.918 853.695 421.918C852.443 421.918 851.428 422.934 851.428 424.187C851.428 425.44 852.443 426.456 853.695 426.456Z" fill="#A1A1A1"/>
<path d="M1143.03 525.704C1144.29 525.704 1145.3 524.688 1145.3 523.435C1145.3 522.182 1144.29 521.166 1143.03 521.166C1141.78 521.166 1140.77 522.182 1140.77 523.435C1140.77 524.688 1141.78 525.704 1143.03 525.704Z" fill="#A1A1A1"/>
<path d="M982.993 508.313C984.245 508.313 985.26 507.297 985.26 506.044C985.26 504.791 984.245 503.775 982.993 503.775C981.741 503.775 980.726 504.791 980.726 506.044C980.726 507.297 981.741 508.313 982.993 508.313Z" fill="#A1A1A1"/>
<path d="M932.674 339.369C933.927 339.369 934.942 338.353 934.942 337.1C934.942 335.847 933.927 334.831 932.674 334.831C931.422 334.831 930.407 335.847 930.407 337.1C930.407 338.353 931.422 339.369 932.674 339.369Z" fill="#A1A1A1"/>
<path d="M236.317 321.549C234.968 321.549 233.874 320.454 233.874 319.104V311.378H226.789C225.44 311.378 224.346 310.283 224.346 308.933V187.908C224.346 186.558 225.44 185.463 226.789 185.463H250.575C251.923 185.463 253.018 186.558 253.018 187.908C253.018 189.257 251.923 190.353 250.575 190.353H229.232V306.488H236.317C237.665 306.488 238.76 307.583 238.76 308.933V319.104C238.76 320.454 237.665 321.549 236.317 321.549Z" fill="#A1A1A1"/>
<path d="M236.317 353.802H127.355C126.007 353.802 124.912 352.706 124.912 351.357C124.912 350.007 126.007 348.912 127.355 348.912H233.874V342.115C233.874 340.765 234.968 339.67 236.317 339.67C237.665 339.67 238.76 340.765 238.76 342.115V351.367C238.76 352.012 238.506 352.638 238.047 353.098C237.587 353.557 236.972 353.812 236.317 353.812V353.802Z" fill="#A1A1A1"/>
<path d="M310.586 190.352H271.155C269.806 190.352 268.712 189.256 268.712 187.907C268.712 186.557 269.806 185.462 271.155 185.462H308.143V-6.46716C308.143 -7.81677 309.238 -8.91211 310.586 -8.91211H316.538C317.886 -8.91211 318.981 -7.81677 318.981 -6.46716C318.981 -5.11754 317.886 -4.0222 316.538 -4.0222H313.03V187.907C313.03 189.256 311.935 190.352 310.586 190.352Z" fill="#A1A1A1"/>
<path d="M1622.45 1057.09C1621.77 1057.09 1621.1 1056.81 1620.62 1056.27L1586.84 1018.12L1574.66 1030.3C1573.72 1031.24 1572.21 1031.26 1571.25 1030.34C1511.72 973.56 1430.18 895.791 1354.1 842.471C1257.9 775.059 1166.3 727.764 1073.12 681.29C1071.97 680.713 1071.46 679.334 1071.96 678.151L1078.17 663.472L1050.79 652.166C1049.54 651.648 1048.96 650.22 1049.46 648.978C1049.98 647.726 1051.41 647.13 1052.65 647.648L1082.3 659.892C1082.9 660.137 1083.38 660.616 1083.63 661.222C1083.87 661.829 1083.87 662.503 1083.63 663.1L1077.35 677.936C1169.99 724.165 1261.12 771.353 1356.89 838.462C1432.55 891.478 1513.4 968.406 1572.88 1025.15L1585.2 1012.82C1585.68 1012.34 1586.34 1012.07 1587 1012.1C1587.68 1012.12 1588.31 1012.43 1588.76 1012.92L1622.74 1051.29L1721.46 973.482C1722.52 972.641 1724.06 972.827 1724.89 973.893C1725.72 974.949 1725.54 976.494 1724.48 977.325L1623.95 1056.56C1623.5 1056.91 1622.97 1057.09 1622.44 1057.09H1622.45Z" fill="#A1A1A1"/>
<path d="M1033 644.614C1032.68 644.614 1032.37 644.555 1032.07 644.428L1028.33 642.883C1027.09 642.365 1026.49 640.946 1027 639.695L1054.41 572.84C1046.19 569.476 1015.57 557.251 966.604 541.241C962.871 540.019 959.001 538.718 955.19 537.437C949.767 535.608 944.646 533.887 940.229 532.498C938.939 532.097 938.225 530.718 938.626 529.437C939.027 528.146 940.405 527.432 941.685 527.833C946.151 529.232 951.291 530.963 956.734 532.801C960.526 534.073 964.386 535.373 968.1 536.596C1025.83 555.481 1058.2 569.133 1058.52 569.27C1059.75 569.789 1060.34 571.207 1059.83 572.449L1032.42 639.303L1033.91 639.92C1035.16 640.438 1035.74 641.866 1035.24 643.108C1034.84 644.047 1033.94 644.624 1032.98 644.624L1033 644.614Z" fill="#A1A1A1"/>
<path d="M920.752 526.669C920.518 526.669 920.283 526.64 920.049 526.561C919.208 526.307 918.075 526.014 916.98 525.73C915.905 525.446 914.85 525.173 914.068 524.948C912.778 524.566 912.035 523.207 912.416 521.906C912.797 520.615 914.156 519.872 915.456 520.253C916.189 520.469 917.185 520.733 918.211 520.997C919.374 521.3 920.566 521.613 921.456 521.877C922.746 522.268 923.479 523.627 923.098 524.918C922.785 525.974 921.808 526.659 920.762 526.659L920.752 526.669Z" fill="#A1A1A1"/>
<path d="M874.207 533.867H477.655C476.306 533.867 475.212 532.772 475.212 531.422C475.212 530.073 476.306 528.977 477.655 528.977H872.419L877.745 512.107C878.126 510.885 879.396 510.171 880.628 510.464C880.686 510.474 886.54 511.853 895.237 514.239C896.537 514.601 897.299 515.941 896.948 517.242C896.586 518.542 895.237 519.305 893.947 518.953C888.485 517.447 884.165 516.352 881.722 515.755L876.543 532.156C876.22 533.173 875.282 533.867 874.217 533.867H874.207Z" fill="#A1A1A1"/>
<path d="M451.064 558.318H247.799C246.45 558.318 245.356 557.223 245.356 555.873V538.436H242.052C240.704 538.436 239.609 537.34 239.609 535.991C239.609 534.641 240.704 533.546 242.052 533.546H247.799C249.147 533.546 250.242 534.641 250.242 535.991V553.428H448.62V531.423C448.62 530.074 449.715 528.979 451.064 528.979H457.504C458.852 528.979 459.947 530.074 459.947 531.423C459.947 532.773 458.852 533.868 457.504 533.868H453.507V555.873C453.507 557.223 452.412 558.318 451.064 558.318Z" fill="#A1A1A1"/>
<path d="M230.58 538.425H48.4431C47.0945 538.425 46 537.33 46 535.98V351.357C46 350.007 47.0945 348.912 48.4431 348.912H83.8679C85.2164 348.912 86.3109 350.007 86.3109 351.357C86.3109 352.707 85.2164 353.802 83.8679 353.802H50.8862V533.535H230.58C231.929 533.535 233.023 534.631 233.023 535.98C233.023 537.33 231.929 538.425 230.58 538.425Z" fill="#A1A1A1"/>
<path d="M136.531 344.864C135.72 344.864 135.065 344.209 135.065 343.397V325.793C135.065 324.982 135.72 324.326 136.531 324.326C137.342 324.326 137.997 324.982 137.997 325.793V343.397C137.997 344.209 137.342 344.864 136.531 344.864ZM136.531 309.657C135.72 309.657 135.065 309.001 135.065 308.19V305.422C135.065 304.61 135.72 303.955 136.531 303.955H151.356C152.167 303.955 152.822 304.61 152.822 305.422C152.822 306.234 152.167 306.889 151.356 306.889H137.997V308.19C137.997 309.001 137.342 309.657 136.531 309.657Z" fill="#A1A1A1"/>
<path d="M226.788 317.001H206.843C206.032 317.001 205.377 316.346 205.377 315.534C205.377 314.722 206.032 314.067 206.843 314.067H225.322V308.923C225.322 308.111 225.977 307.456 226.788 307.456C227.599 307.456 228.254 308.111 228.254 308.923V315.534C228.254 316.346 227.599 317.001 226.788 317.001Z" fill="#A1A1A1"/>
<path d="M247.799 557.34H225.02C224.208 557.34 223.554 556.685 223.554 555.873V535.99C223.554 535.179 224.208 534.523 225.02 534.523C225.831 534.523 226.485 535.179 226.485 535.99V554.406H247.799C248.61 554.406 249.265 555.061 249.265 555.873C249.265 556.685 248.61 557.34 247.799 557.34Z" fill="#A1A1A1"/>
<path d="M455.95 545.359C455.139 545.359 454.484 544.704 454.484 543.892V532.401C454.484 531.589 455.139 530.934 455.95 530.934H467.433C468.244 530.934 468.899 531.589 468.899 532.401C468.899 539.55 463.094 545.359 455.95 545.359ZM457.416 533.868V542.317C461.765 541.672 465.214 538.22 465.859 533.868H457.416Z" fill="#A1A1A1"/>
<path d="M478.915 545.359C471.772 545.359 465.967 539.55 465.967 532.401C465.967 531.589 466.622 530.934 467.433 530.934H478.915C479.726 530.934 480.381 531.589 480.381 532.401V543.892C480.381 544.704 479.726 545.359 478.915 545.359ZM469.006 533.868C469.651 538.22 473.101 541.672 477.449 542.317V533.868H469.006Z" fill="#A1A1A1"/>
<path d="M242.053 549.8C234.909 549.8 229.104 543.991 229.104 536.842C229.104 536.03 229.759 535.375 230.57 535.375H242.053C242.864 535.375 243.519 536.03 243.519 536.842V548.333C243.519 549.145 242.864 549.8 242.053 549.8ZM232.144 538.309C232.789 542.661 236.238 546.113 240.587 546.759V538.309H232.144Z" fill="#A1A1A1"/>
<path d="M1031.26 655.684C1029.6 655.684 1027.92 655.362 1026.28 654.687C1025.54 654.374 1025.19 653.513 1025.49 652.77L1029.92 642.169C1030.07 641.807 1030.36 641.523 1030.71 641.377C1031.07 641.23 1031.47 641.23 1031.83 641.377L1042.43 645.807C1042.79 645.954 1043.07 646.247 1043.22 646.599C1043.37 646.961 1043.37 647.362 1043.22 647.724C1041.15 652.692 1036.32 655.694 1031.25 655.694L1031.26 655.684ZM1028.82 652.447C1033.08 653.533 1037.59 651.675 1039.86 647.9L1032.07 644.643L1028.82 652.438V652.447Z" fill="#A1A1A1"/>
<path d="M1048.05 663.656C1047.86 663.656 1047.67 663.617 1047.48 663.539C1044.28 662.209 1041.8 659.705 1040.49 656.507C1039.18 653.309 1039.18 649.779 1040.52 646.591C1040.84 645.847 1041.69 645.485 1042.44 645.798L1053.03 650.229C1053.39 650.375 1053.68 650.669 1053.82 651.021C1053.97 651.383 1053.97 651.784 1053.82 652.145L1049.4 662.747C1049.16 663.314 1048.61 663.647 1048.05 663.647V663.656ZM1042.76 649.114C1042.23 651.187 1042.38 653.378 1043.21 655.392C1044.04 657.407 1045.47 659.07 1047.3 660.165L1050.56 652.37L1042.76 649.114Z" fill="#A1A1A1"/>
<path d="M249.275 188.465C248.884 188.465 248.512 188.308 248.239 188.035C247.965 187.761 247.809 187.389 247.809 186.998V175.507C247.799 174.695 248.473 174.001 249.275 174.04C256.408 174.04 262.213 179.839 262.223 186.988C262.223 187.379 262.067 187.751 261.793 188.025C261.519 188.299 261.148 188.455 260.757 188.455H249.275V188.465ZM250.731 177.081V185.531H259.184C258.539 181.179 255.079 177.727 250.731 177.091V177.081Z" fill="#A1A1A1"/>
<path d="M272.239 188.463H260.757C260.366 188.454 259.995 188.297 259.721 188.023C259.447 187.749 259.291 187.378 259.291 186.987C259.291 179.847 265.106 174.038 272.239 174.038C272.65 174.058 273.011 174.195 273.285 174.468C273.559 174.742 273.715 175.114 273.715 175.505V186.996C273.705 187.808 273.05 188.463 272.239 188.463ZM262.33 185.52H270.774V177.08C266.425 177.715 262.965 181.168 262.32 185.52H262.33Z" fill="#A1A1A1"/>
<path d="M224.042 343.574C223.231 343.574 222.576 342.918 222.576 342.107C222.576 334.958 228.371 329.139 235.515 329.139C236.326 329.139 236.981 329.794 236.981 330.606V342.097C236.99 342.488 236.844 342.86 236.56 343.134C236.287 343.407 235.915 343.564 235.525 343.564H224.042V343.574ZM234.049 332.18C229.7 332.826 226.251 336.288 225.615 340.64H234.059V332.18H234.049Z" fill="#A1A1A1"/>
<path d="M235.515 332.071C228.371 332.071 222.576 326.242 222.576 319.103C222.576 318.712 222.733 318.34 223.006 318.066C223.28 317.792 223.651 317.636 224.042 317.636H235.525C236.336 317.646 236.99 318.311 236.99 319.113V330.604C236.981 330.995 236.824 331.367 236.551 331.64C236.277 331.914 235.906 332.071 235.515 332.071ZM225.615 320.57C226.251 324.922 229.7 328.384 234.049 329.029V320.579H225.615V320.57Z" fill="#A1A1A1"/>
<path d="M618.894 539.794C620.794 539.794 622.334 538.253 622.334 536.352C622.334 534.45 620.794 532.909 618.894 532.909C616.994 532.909 615.454 534.45 615.454 536.352C615.454 538.253 616.994 539.794 618.894 539.794Z" fill="#A1A1A1"/>
<path d="M754.974 553.947C756.874 553.947 758.414 552.406 758.414 550.505C758.414 548.604 756.874 547.062 754.974 547.062C753.074 547.062 751.534 548.604 751.534 550.505C751.534 552.406 753.074 553.947 754.974 553.947Z" fill="#A1A1A1"/>
<path d="M932.91 607.852C934.809 607.852 936.35 606.311 936.35 604.409C936.35 602.508 934.809 600.967 932.91 600.967C931.01 600.967 929.47 602.508 929.47 604.409C929.47 606.311 931.01 607.852 932.91 607.852Z" fill="#A1A1A1"/>
<path d="M674.254 542.377C676.154 542.377 677.694 540.836 677.694 538.935C677.694 537.033 676.154 535.492 674.254 535.492C672.355 535.492 670.814 537.033 670.814 538.935C670.814 540.836 672.355 542.377 674.254 542.377Z" fill="#A1A1A1"/>
<path d="M842.749 575.726C844.649 575.726 846.189 574.185 846.189 572.283C846.189 570.382 844.649 568.841 842.749 568.841C840.85 568.841 839.31 570.382 839.31 572.283C839.31 574.185 840.85 575.726 842.749 575.726Z" fill="#A1A1A1"/>
</g>
</svg>
