<svg width="1165" height="808" fill="none" xmlns="http://www.w3.org/2000/svg">
    <mask id="a" style="mask-type:alpha" maskUnits="userSpaceOnUse" x="0" y="0" width="1165" height="808">
        <rect width="1165" height="808" rx="50" fill="#C2C2C2"/>
    </mask>
    <g mask="url(#a)" fill="#A1A1A1">
        <path d="M591.649 386.232h-7.418a1.464 1.464 0 0 1-1.465-1.467c0-.812.654-1.467 1.465-1.467h7.418c.811 0 1.466.655 1.466 1.467s-.655 1.467-1.466 1.467Z"/>
        <path d="M874.207 532.89H506.61a1.464 1.464 0 0 1-1.465-1.467V384.765c0-.812.654-1.467 1.465-1.467h65.876c.811 0 1.466.655 1.466 1.467s-.655 1.467-1.466 1.467h-64.41v143.724h365.056l19.994-63.373a1.466 1.466 0 1 1 2.795.88l-20.316 64.4a1.48 1.48 0 0 1-1.398 1.027ZM898.062 457.302a1.465 1.465 0 0 1-1.398-1.907l4.564-14.465-95.085-22.337a1.464 1.464 0 0 1-1.134-1.428v-30.933H654.026a1.464 1.464 0 0 1-1.465-1.467c0-.812.654-1.467 1.465-1.467h152.449c.811 0 1.466.655 1.466 1.467v31.237l95.495 22.434c.401.098.733.353.938.705.206.352.245.782.128 1.163l-5.043 15.981a1.463 1.463 0 0 1-1.397 1.026v-.009ZM642.28 386.232h-38.884a1.464 1.464 0 0 1-1.466-1.467c0-.812.654-1.467 1.466-1.467h38.884c.811 0 1.466.655 1.466 1.467s-.655 1.467-1.466 1.467Z"/>
        <path d="M788.504 532.89a1.464 1.464 0 0 1-1.466-1.467v-44.537h-30.93a1.464 1.464 0 0 1-1.465-1.467c0-.812.654-1.467 1.465-1.467h32.396c.811 0 1.466.655 1.466 1.467v46.004c0 .812-.655 1.467-1.466 1.467ZM744.361 532.89a1.464 1.464 0 0 1-1.466-1.467v-44.537h-32.327a1.464 1.464 0 0 1-1.465-1.467c0-.812.654-1.467 1.465-1.467h33.793c.811 0 1.466.655 1.466 1.467v46.004c0 .812-.655 1.467-1.466 1.467ZM698.822 532.89a1.464 1.464 0 0 1-1.466-1.467v-46.004c0-.812.655-1.467 1.466-1.467.811 0 1.466.655 1.466 1.467v46.004c0 .812-.655 1.467-1.466 1.467Z"/>
        <path d="M744.645 498.661h-.303a1.472 1.472 0 0 1-1.437-1.467v-11.716c0-.812.655-1.467 1.456-1.467.811 0 1.466.655 1.466 1.467v10.181a9.82 9.82 0 0 0 5.756-2.758c1.964-1.927 3.049-4.587 3.049-7.482 0-.812.655-1.467 1.466-1.467.811 0 1.466.655 1.466 1.467 0 3.697-1.398 7.1-3.938 9.584a12.786 12.786 0 0 1-9.001 3.658h.02ZM715.143 466.397a1.464 1.464 0 0 1-1.466-1.467v-11.775c0-.792.645-1.447 1.436-1.467 3.528-.068 6.812 1.223 9.304 3.658 2.54 2.484 3.938 5.887 3.938 9.584 0 .812-.655 1.467-1.466 1.467a1.464 1.464 0 0 1-1.466-1.467c0-2.895-1.085-5.555-3.049-7.482a9.901 9.901 0 0 0-5.756-2.757v10.239a1.47 1.47 0 0 1-1.466 1.467h-.009ZM763.486 418.632a1.464 1.464 0 0 1-1.465-1.467V405.39c0-.792.644-1.447 1.436-1.467 3.528-.078 6.811 1.223 9.303 3.658 2.541 2.484 3.939 5.887 3.939 9.584 0 .812-.655 1.467-1.466 1.467a1.464 1.464 0 0 1-1.466-1.467c0-2.895-1.085-5.555-3.049-7.481a9.9 9.9 0 0 0-5.756-2.758v10.239a1.47 1.47 0 0 1-1.466 1.467h-.01ZM894.435 468.461c-.146 0-.293-.02-.439-.069-3.518-1.115-6.343-3.481-7.935-6.65-1.574-3.11-1.808-6.66-.675-9.975l.46-1.36 12.577 3.981a1.464 1.464 0 0 1 .957 1.838 1.464 1.464 0 0 1-1.837.959l-9.753-3.091a9.828 9.828 0 0 0 .89 6.318c1.241 2.465 3.449 4.293 6.205 5.174a1.465 1.465 0 0 1-.44 2.865l-.01.01ZM699.106 498.661h-.303a1.472 1.472 0 0 1-1.437-1.467v-11.716c0-.812.655-1.467 1.456-1.467.811 0 1.466.655 1.466 1.467v10.181a9.82 9.82 0 0 0 5.756-2.758c1.964-1.927 3.049-4.587 3.049-7.482 0-.812.655-1.467 1.466-1.467.811 0 1.466.655 1.466 1.467 0 3.697-1.398 7.1-3.938 9.584a12.786 12.786 0 0 1-9.001 3.658h.02Z"/>
        <path d="M698.549 498.661a12.782 12.782 0 0 1-9-3.658c-2.541-2.484-3.939-5.887-3.939-9.584 0-.812.655-1.467 1.466-1.467.811 0 1.466.655 1.466 1.467 0 2.895 1.085 5.555 3.049 7.482a9.909 9.909 0 0 0 5.756 2.758v-10.181c0-.812.655-1.467 1.466-1.467.811 0 1.466.655 1.466 1.467v11.716c0 .792-.645 1.447-1.437 1.467h-.303.01ZM606.874 478.173a12.782 12.782 0 0 1-9-3.658c-2.541-2.484-3.938-5.887-3.938-9.584 0-.812.654-1.467 1.465-1.467.812 0 1.466.655 1.466 1.467 0 2.895 1.085 5.555 3.049 7.481a9.9 9.9 0 0 0 5.756 2.758v-10.18a1.47 1.47 0 0 1 1.466-1.467c.811 0 1.466.655 1.466 1.467v11.716c0 .792-.645 1.447-1.437 1.467h-.303.01ZM576.238 446.809a1.464 1.464 0 0 1-1.466-1.467c0-3.697 1.398-7.1 3.939-9.584a12.823 12.823 0 0 1 9.303-3.658 1.47 1.47 0 0 1 1.436 1.467v11.716c0 .812-.654 1.467-1.456 1.467a1.464 1.464 0 0 1-1.465-1.467v-10.181a9.82 9.82 0 0 0-5.756 2.758c-1.974 1.927-3.049 4.587-3.049 7.482 0 .812-.655 1.467-1.466 1.467h-.02ZM654.026 446.818a1.465 1.465 0 0 1-1.466-1.467c0-2.895-1.085-5.555-3.049-7.482a9.905 9.905 0 0 0-5.756-2.758v10.181a1.47 1.47 0 0 1-1.466 1.467 1.464 1.464 0 0 1-1.466-1.467v-11.716c0-.792.645-1.448 1.437-1.467 3.498-.078 6.811 1.222 9.303 3.657 2.541 2.485 3.938 5.888 3.938 9.585 0 .811-.654 1.467-1.466 1.467h-.009ZM642.553 398.007h-.303a1.472 1.472 0 0 1-1.437-1.467v-11.717c0-.811.655-1.466 1.457-1.466.811 0 1.465.655 1.465 1.466v10.181a9.809 9.809 0 0 0 5.756-2.758c1.974-1.926 3.049-4.586 3.049-7.481 0-.812.655-1.467 1.466-1.467.811 0 1.466.655 1.466 1.467 0 3.697-1.397 7.1-3.938 9.584a12.786 12.786 0 0 1-9.001 3.658h.02Z"/>
        <path d="M607.431 478.173h-.303a1.472 1.472 0 0 1-1.437-1.467V464.99c0-.812.655-1.467 1.456-1.467.812 0 1.466.655 1.466 1.467v10.18a9.809 9.809 0 0 0 5.756-2.758c1.974-1.926 3.049-4.586 3.049-7.481 0-.812.655-1.467 1.466-1.467.811 0 1.466.655 1.466 1.467 0 3.697-1.397 7.1-3.938 9.584a12.768 12.768 0 0 1-9.001 3.658h.02ZM591.923 398.007h-.303a1.471 1.471 0 0 1-1.436-1.467v-11.717c0-.811.654-1.466 1.465-1.466.812 0 1.466.655 1.466 1.466v10.181a9.809 9.809 0 0 0 5.756-2.758c1.974-1.926 3.049-4.586 3.049-7.481 0-.812.655-1.467 1.466-1.467.811 0 1.466.655 1.466 1.467 0 3.697-1.398 7.1-3.938 9.584a12.786 12.786 0 0 1-9.001 3.658h.01ZM583.948 397.969a12.76 12.76 0 0 1-8.941-3.609c-2.551-2.465-3.968-5.858-3.997-9.555 0-.812.645-1.467 1.456-1.477.811.01 1.466.646 1.475 1.457.02 2.895 1.115 5.555 3.098 7.462a9.843 9.843 0 0 0 5.776 2.719l-.059-10.181a1.47 1.47 0 0 1 1.456-1.476c.811 0 1.466.655 1.466 1.457l.068 11.716c0 .792-.625 1.447-1.426 1.477h-.381l.009.01ZM561.609 458.573c-3.694 0-7.095-1.398-9.577-3.941-2.433-2.494-3.733-5.8-3.655-9.311a1.471 1.471 0 0 1 1.466-1.437h11.707c.812 0 1.466.655 1.466 1.457a1.47 1.47 0 0 1-1.466 1.467h-10.173a9.835 9.835 0 0 0 2.756 5.76c1.925 1.976 4.583 3.052 7.476 3.052.811 0 1.466.655 1.466 1.467 0 .811-.655 1.467-1.466 1.467v.019ZM763.486 466.398h-36.597a1.464 1.464 0 0 1-1.466-1.467c0-.812.655-1.467 1.466-1.467h35.131v-78.708c0-.812.655-1.467 1.466-1.467.811 0 1.466.655 1.466 1.467v80.175c0 .812-.655 1.467-1.466 1.467ZM715.142 466.398h-8.384a1.464 1.464 0 0 1-1.466-1.467v-80.175c0-.812.655-1.467 1.466-1.467.811 0 1.466.655 1.466 1.467v78.708h6.918c.812 0 1.466.655 1.466 1.467s-.654 1.467-1.466 1.467Z"/>
        <path d="M706.758 446.818h-52.732a1.464 1.464 0 0 1-1.465-1.467c0-.812.654-1.467 1.465-1.467h52.732c.811 0 1.466.655 1.466 1.467 0 .811-.655 1.467-1.466 1.467ZM642.28 446.818h-18.079a1.465 1.465 0 0 1-1.466-1.467c0-.812.655-1.467 1.466-1.467h16.613v-59.119c0-.812.655-1.467 1.466-1.467.811 0 1.466.655 1.466 1.467v60.586c0 .811-.655 1.467-1.466 1.467ZM613.197 446.818h-3.665a1.465 1.465 0 0 1-1.466-1.467v-60.586c0-.812.655-1.467 1.466-1.467.811 0 1.466.655 1.466 1.467v59.119h2.199c.811 0 1.466.655 1.466 1.467 0 .811-.655 1.467-1.466 1.467ZM652.853 532.89a1.464 1.464 0 0 1-1.465-1.467v-65.016h-32.493a1.464 1.464 0 0 1-1.466-1.467c0-.812.654-1.467 1.466-1.467h33.958c.812 0 1.466.655 1.466 1.467v66.483c0 .811-.654 1.467-1.466 1.467Z"/>
        <path d="M687.086 486.886h-34.232a1.464 1.464 0 0 1-1.466-1.467c0-.812.654-1.467 1.466-1.467h34.232c.811 0 1.466.655 1.466 1.467s-.655 1.467-1.466 1.467ZM607.147 532.89a1.464 1.464 0 0 1-1.465-1.467V464.94c0-.812.654-1.467 1.465-1.467.812 0 1.466.655 1.466 1.467v66.483c0 .811-.654 1.467-1.466 1.467ZM626.253 418.417h-16.731a1.464 1.464 0 0 1-1.465-1.467c0-.811.654-1.467 1.465-1.467h16.731c.811 0 1.466.656 1.466 1.467 0 .812-.655 1.467-1.466 1.467ZM587.975 446.818a1.465 1.465 0 0 1-1.466-1.467v-60.586a1.464 1.464 0 1 1 2.931 0v60.586c0 .811-.654 1.467-1.465 1.467ZM561.608 532.89a1.464 1.464 0 0 1-1.465-1.467V464.94c0-.812.654-1.467 1.465-1.467h33.793c.811 0 1.466.655 1.466 1.467 0 .811-.655 1.467-1.466 1.467h-32.327v65.016c0 .811-.654 1.467-1.466 1.467ZM576.238 446.818H506.61a1.464 1.464 0 0 1-1.465-1.467c0-.812.654-1.467 1.465-1.467h69.628c.812 0 1.466.655 1.466 1.467 0 .811-.654 1.467-1.466 1.467Z"/>
        <path d="M561.608 466.396a1.464 1.464 0 0 1-1.465-1.467v-7.823c0-.812.654-1.467 1.465-1.467.812 0 1.466.655 1.466 1.467v7.823c0 .812-.654 1.467-1.466 1.467ZM806.475 418.633h-31.243a1.464 1.464 0 0 1-1.465-1.467c0-.812.654-1.467 1.465-1.467h31.243c.811 0 1.466.655 1.466 1.467s-.655 1.467-1.466 1.467ZM927.583 503.042a1.468 1.468 0 0 1-1.417-1.877l1.749-6.083-3.704-1.066-1.749 6.083a1.474 1.474 0 0 1-1.817 1.007 1.468 1.468 0 0 1-1.007-1.819l2.15-7.491a1.467 1.467 0 0 1 1.818-1.008l6.518 1.878a1.477 1.477 0 0 1 1.006 1.819l-2.15 7.492a1.468 1.468 0 0 1-1.407 1.065h.01ZM949.708 555.345c-.137 0-.273-.02-.41-.059l-76.576-22.004a1.469 1.469 0 0 1-1.007-1.82 1.467 1.467 0 0 1 1.818-1.007l75.169 21.594 13.515-47.109-11.092-3.189-1.749 6.083a1.475 1.475 0 0 1-1.818 1.008 1.468 1.468 0 0 1-1.006-1.819l2.15-7.492c.107-.371.361-.694.694-.88a1.473 1.473 0 0 1 1.114-.127l13.906 4a1.468 1.468 0 0 1 1.006 1.819l-14.326 49.936a1.47 1.47 0 0 1-1.407 1.066h.019ZM900.66 495.306a1.468 1.468 0 0 1-1.417-1.877l1.749-6.083-11.57-3.326a1.468 1.468 0 0 1-1.007-1.819 1.475 1.475 0 0 1 1.818-1.007l12.987 3.726a1.468 1.468 0 0 1 1.007 1.819l-2.15 7.492a1.47 1.47 0 0 1-1.407 1.066l-.01.009ZM1114.06 553.569l-.38.901.13.053.38-.901-.13-.053ZM1081.38 663.606c-.2 0-.42-.039-.61-.137a1.465 1.465 0 0 1-.72-1.946l46.62-100.468-3.19-1.35a1.47 1.47 0 0 1-.78-1.917 1.46 1.46 0 0 1 1.91-.782l4.59 1.936c.37.157.65.45.8.822.14.371.13.782-.04 1.144l-47.26 101.847c-.24.538-.78.851-1.33.851h.01Z"/>
        <path d="M1102.48 562.65c-1.67 0-3.38-.323-5.01-1.017-.37-.147-.65-.44-.8-.802a1.51 1.51 0 0 1 .01-1.125l4.66-10.943a1.457 1.457 0 0 1 1.92-.773 1.46 1.46 0 0 1 .77 1.927l-4.03 9.486c4.73 1.223 9.77-1.183 11.72-5.809a1.474 1.474 0 0 1 1.92-.782 1.47 1.47 0 0 1 .78 1.916c-2.08 4.949-6.9 7.922-11.95 7.922h.01Z"/>
        <path d="M1119.19 570.679c-.19 0-.38-.039-.57-.117-3.18-1.35-5.66-3.853-6.95-7.061a12.913 12.913 0 0 1 .06-9.917 1.474 1.474 0 0 1 1.92-.782 1.47 1.47 0 0 1 .78 1.917 9.988 9.988 0 0 0-.05 7.667 9.932 9.932 0 0 0 4.11 4.812l4.23-9.448a1.45 1.45 0 0 1 1.93-.733c.75.332 1.07 1.203.74 1.936l-4.87 10.846c-.25.548-.77.871-1.34.871l.01.009ZM1106.09 596.763s-.06 0-.09-.02l-20.96-9.692a.235.235 0 0 1-.12-.322l1.22-2.651a.256.256 0 0 1 .14-.127.291.291 0 0 1 .18 0l20.96 9.692c.06.029.11.078.13.137.02.059.02.127 0 .186l-1.22 2.65a.253.253 0 0 1-.23.147h-.01Zm-20.63-10.054 20.52 9.486 1.01-2.2-20.52-9.486-1.01 2.2Z"/>
        <path d="M1104.86 599.423s-.06 0-.09-.02l-20.98-9.691a.24.24 0 0 1-.11-.323l1.22-2.651a.256.256 0 0 1 .14-.127.29.29 0 0 1 .18 0l20.97 9.692c.06.03.11.078.13.137.02.059.02.127 0 .186l-1.22 2.65a.253.253 0 0 1-.23.147h-.01Zm-20.64-10.054 20.53 9.487 1.01-2.201-20.52-9.486-1.02 2.2Z"/>
        <path d="M1103.64 602.073s-.07 0-.1-.019l-20.96-9.692a.24.24 0 0 1-.11-.323l1.22-2.65c.03-.059.07-.108.13-.127.06-.02.13-.02.19 0l20.97 9.692a.25.25 0 0 1 .13.136c.02.059.02.128 0 .186l-1.22 2.651a.252.252 0 0 1-.23.146h-.02ZM1083 592.02l20.52 9.486 1.02-2.2-20.52-9.487-1.02 2.201Z"/>
        <path d="M1102.42 604.734s-.07 0-.1-.02l-20.97-9.692a.249.249 0 0 1-.13-.137.293.293 0 0 1 0-.185l1.23-2.651c.05-.127.2-.176.32-.117l20.96 9.692c.13.058.18.205.12.322l-1.22 2.651a.256.256 0 0 1-.14.127.29.29 0 0 1-.09.019l.02-.009Zm-20.64-10.054 20.52 9.486 1.02-2.2-20.52-9.486-1.02 2.2Z"/>
        <path d="M1101.2 607.385s-.07 0-.1-.02l-20.97-9.692a.235.235 0 0 1-.12-.322l1.22-2.651a.256.256 0 0 1 .14-.127.324.324 0 0 1 .19 0l20.97 9.692a.24.24 0 0 1 .11.323l-1.22 2.65a.266.266 0 0 1-.13.127c-.03.01-.06.02-.09.02Zm-20.64-10.054 20.52 9.487 1.02-2.201-20.52-9.486-1.02 2.2Z"/>
        <path d="M1099.97 610.044s-.07 0-.1-.02l-20.96-9.691a.237.237 0 0 1-.12-.323l1.22-2.65a.254.254 0 0 1 .14-.128.324.324 0 0 1 .19 0l20.96 9.692c.06.03.1.079.12.137.02.059.02.127 0 .186l-1.22 2.65a.24.24 0 0 1-.22.147h-.01Zm-20.64-10.054 20.52 9.487 1.02-2.201-20.53-9.486-1.01 2.2Z"/>
        <path d="M1098.75 612.695s-.07 0-.1-.019l-20.96-9.692a.236.236 0 0 1-.12-.323l1.22-2.65a.248.248 0 0 1 .14-.127c.06-.02.13-.02.18 0l20.97 9.692a.24.24 0 0 1 .11.322l-1.22 2.651a.256.256 0 0 1-.14.127c-.03.01-.05.019-.08.019Zm-20.64-10.053 20.52 9.486 1.02-2.2-20.53-9.487-1.01 2.201Z"/>
        <path d="M1097.51 615.354s-.06 0-.09-.019l-20.97-9.692a.252.252 0 0 1-.13-.137.296.296 0 0 1 0-.186l1.22-2.65c.06-.118.21-.176.32-.118l20.97 9.692c.13.059.18.205.12.323l-1.22 2.65a.248.248 0 0 1-.14.127c-.03.01-.06.02-.09.02l.01-.01Zm-20.63-10.054 20.52 9.487 1.01-2.201-20.52-9.486-1.01 2.2Z"/>
        <path d="M1096.28 618.015s-.07 0-.09-.02l-20.97-9.691a.277.277 0 0 1-.12-.137.296.296 0 0 1 0-.186l1.22-2.651c.06-.127.2-.176.32-.117l20.96 9.692c.13.059.18.205.12.323l-1.22 2.65a.248.248 0 0 1-.14.127c-.03.01-.06.02-.09.02l.01-.01Zm-20.64-10.054 20.53 9.487 1.01-2.201-20.52-9.486-1.02 2.2Z"/>
        <path d="M1095.06 620.684s-.07 0-.1-.02l-20.97-9.692a.24.24 0 0 1-.11-.322l1.22-2.651c.03-.058.07-.107.13-.127a.324.324 0 0 1 .19 0l20.97 9.692c.13.059.18.205.12.323l-1.22 2.65a.248.248 0 0 1-.14.127c-.03.01-.06.02-.09.02Zm-20.64-10.054 20.52 9.486 1.02-2.2-20.52-9.486-1.02 2.2Z"/>
        <path d="M1093.84 623.326s-.07 0-.1-.019l-20.97-9.692a.236.236 0 0 1-.12-.323l1.23-2.65a.205.205 0 0 1 .13-.127c.06-.02.13-.02.19 0l20.97 9.691c.06.03.11.079.13.137.02.059.02.128 0 .186l-1.23 2.651a.228.228 0 0 1-.22.146h-.01Zm-20.64-10.053 20.52 9.486 1.02-2.2-20.52-9.487-1.02 2.201Z"/>
        <path d="M1092.61 625.994s-.07 0-.1-.019l-20.96-9.692a.237.237 0 0 1-.12-.323l1.22-2.65a.248.248 0 0 1 .14-.127c.06-.02.13-.02.19 0l20.96 9.691a.24.24 0 0 1 .11.323l-1.22 2.651c-.03.058-.07.107-.13.127-.03.009-.06.019-.09.019Zm-20.64-10.053 20.52 9.486 1.02-2.2-20.52-9.487-1.02 2.201Z"/>
        <path d="M1091.38 628.656s-.07 0-.1-.02l-20.97-9.692a.25.25 0 0 1-.13-.136.296.296 0 0 1 0-.186l1.22-2.651c.06-.117.21-.176.33-.117l20.97 9.692a.24.24 0 0 1 .11.323l-1.22 2.65a.27.27 0 0 1-.13.127c-.03.01-.06.02-.09.02l.01-.01Zm-20.64-10.054 20.52 9.487 1.02-2.201-20.53-9.486-1.01 2.2Z"/>
        <path d="M1090.15 631.315s-.07 0-.1-.02l-20.96-9.692a.249.249 0 0 1-.13-.137.293.293 0 0 1 0-.185l1.22-2.651c.06-.127.21-.176.32-.117l20.97 9.692a.24.24 0 0 1 .11.322l-1.22 2.651a.256.256 0 0 1-.14.127c-.02.01-.05.02-.08.02l.01-.01Zm-20.64-10.054 20.52 9.486 1.02-2.2-20.53-9.486-1.01 2.2Z"/>
        <path d="M1088.92 633.965s-.06 0-.09-.02l-20.96-9.691a.237.237 0 0 1-.12-.323l1.22-2.651a.256.256 0 0 1 .14-.127.291.291 0 0 1 .18 0l20.96 9.692c.06.029.11.078.13.137.02.059.02.127 0 .186l-1.22 2.65a.253.253 0 0 1-.23.147h-.01Zm-20.63-10.054 20.52 9.487 1.01-2.201-20.52-9.486-1.01 2.2Z"/>
        <path d="M1087.7 636.625s-.07 0-.09-.019l-20.98-9.692a.24.24 0 0 1-.11-.323l1.22-2.65a.254.254 0 0 1 .14-.128.29.29 0 0 1 .18 0l20.97 9.692c.06.03.11.079.13.137.02.059.02.127 0 .186l-1.22 2.65a.253.253 0 0 1-.23.147h-.01Zm-20.64-10.054 20.53 9.487 1.01-2.201-20.52-9.486-1.02 2.2ZM502.692 471.19H479.6a.243.243 0 0 1-.245-.245v-3.1c0-.137.108-.244.245-.244h23.092c.137 0 .244.107.244.244v3.1a.242.242 0 0 1-.244.245Zm-22.848-.489h22.604v-2.611h-22.604v2.611Z"/>
        <path d="M502.692 474.32H479.6a.243.243 0 0 1-.245-.245v-3.1c0-.137.108-.245.245-.245h23.092c.137 0 .244.108.244.245v3.1a.242.242 0 0 1-.244.245Zm-22.848-.489h22.604v-2.612h-22.604v2.612Z"/>
        <path d="M502.692 477.418H479.6a.242.242 0 0 1-.245-.244v-3.1c0-.137.108-.245.245-.245h23.092c.137 0 .244.108.244.245v3.1a.241.241 0 0 1-.244.244Zm-22.848-.489h22.604v-2.611h-22.604v2.611Z"/>
        <path d="M502.692 480.539H479.6a.242.242 0 0 1-.245-.244v-3.1c0-.137.108-.245.245-.245h23.092c.137 0 .244.108.244.245v3.1a.241.241 0 0 1-.244.244Zm-22.848-.489h22.604v-2.611h-22.604v2.611Z"/>
        <path d="M502.692 483.659H479.6a.243.243 0 0 1-.245-.245v-3.1c0-.137.108-.245.245-.245h23.092c.137 0 .244.108.244.245v3.1a.242.242 0 0 1-.244.245Zm-22.848-.489h22.604v-2.612h-22.604v2.612Z"/>
        <path d="M502.692 486.787H479.6a.242.242 0 0 1-.245-.244v-3.1c0-.137.108-.245.245-.245h23.092c.137 0 .244.108.244.245v3.1a.241.241 0 0 1-.244.244Zm-22.848-.489h22.604v-2.611h-22.604v2.611Z"/>
        <path d="M502.692 489.888H479.6a.243.243 0 0 1-.245-.244v-3.101c0-.137.108-.244.245-.244h23.092c.137 0 .244.107.244.244v3.101a.242.242 0 0 1-.244.244Zm-22.848-.489h22.604v-2.611h-22.604v2.611Z"/>
        <path d="M502.692 493.007H479.6a.242.242 0 0 1-.245-.244v-3.101c0-.136.108-.244.245-.244h23.092c.137 0 .244.108.244.244v3.101a.241.241 0 0 1-.244.244Zm-22.848-.489h22.604v-2.611h-22.604v2.611Z"/>
        <path d="M502.692 496.128H479.6a.242.242 0 0 1-.245-.244v-3.1c0-.137.108-.245.245-.245h23.092c.137 0 .244.108.244.245v3.1a.241.241 0 0 1-.244.244Zm-22.848-.489h22.604v-2.611h-22.604v2.611Z"/>
        <path d="M502.692 499.256H479.6a.242.242 0 0 1-.245-.244v-3.101c0-.136.108-.244.245-.244h23.092c.137 0 .244.108.244.244v3.101a.241.241 0 0 1-.244.244Zm-22.848-.489h22.604v-2.611h-22.604v2.611Z"/>
        <path d="M502.692 502.358H479.6a.243.243 0 0 1-.245-.245v-3.1c0-.137.108-.244.245-.244h23.092c.137 0 .244.107.244.244v3.1a.242.242 0 0 1-.244.245Zm-22.848-.489h22.604v-2.611h-22.604v2.611Z"/>
        <path d="M502.692 505.477H479.6a.243.243 0 0 1-.245-.245v-3.1c0-.137.108-.244.245-.244h23.092c.137 0 .244.107.244.244v3.1a.242.242 0 0 1-.244.245Zm-22.848-.489h22.604v-2.611h-22.604v2.611ZM1057.35 426.536h-2.53a.236.236 0 0 1-.24-.244v-23.11c0-.137.1-.244.24-.244h2.53c.14 0 .24.107.24.244v23.11c0 .137-.1.244-.24.244Zm-2.29-.489h2.05v-22.621h-2.05v22.621Z"/>
        <path d="M1059.89 426.536h-2.53a.236.236 0 0 1-.24-.244v-23.11c0-.137.1-.244.24-.244h2.53c.14 0 .25.107.25.244v23.11c0 .137-.11.244-.25.244Zm-2.29-.489h2.05v-22.621h-2.05v22.621Z"/>
        <path d="M1062.42 426.536h-2.53a.236.236 0 0 1-.24-.244v-23.11c0-.137.1-.244.24-.244h2.53c.14 0 .25.107.25.244v23.11c0 .137-.11.244-.25.244Zm-2.28-.489h2.04v-22.621h-2.04v22.621Z"/>
        <path d="M1064.97 426.536h-2.53a.236.236 0 0 1-.24-.244v-23.11c0-.137.1-.244.24-.244h2.53c.14 0 .25.107.25.244v23.11c0 .137-.11.244-.25.244Zm-2.28-.489h2.04v-22.621h-2.04v22.621Z"/>
        <path d="M1067.49 426.536h-2.53a.242.242 0 0 1-.24-.244v-23.11c0-.137.11-.244.24-.244h2.53c.14 0 .25.107.25.244v23.11c0 .137-.11.244-.25.244Zm-2.28-.489h2.04v-22.621h-2.04v22.621Z"/>
        <path d="M1070.04 426.536h-2.53a.242.242 0 0 1-.24-.244v-23.11c0-.137.11-.244.24-.244h2.53c.14 0 .25.107.25.244v23.11c0 .137-.11.244-.25.244Zm-2.28-.489h2.04v-22.621h-2.04v22.621Z"/>
        <path d="M1072.57 426.536h-2.53a.244.244 0 0 1-.25-.244v-23.11c0-.137.11-.244.25-.244h2.53c.13 0 .24.107.24.244v23.11c0 .137-.11.244-.24.244Zm-2.29-.489h2.04v-22.621h-2.04v22.621Z"/>
        <path d="M1075.12 426.536h-2.53a.244.244 0 0 1-.25-.244v-23.11c0-.137.11-.244.25-.244h2.53c.13 0 .24.107.24.244v23.11c0 .137-.11.244-.24.244Zm-2.29-.489h2.04v-22.621h-2.04v22.621Z"/>
        <path d="M1077.66 426.536h-2.53a.244.244 0 0 1-.25-.244v-23.11c0-.137.11-.244.25-.244h2.53c.13 0 .24.107.24.244v23.11c0 .137-.11.244-.24.244Zm-2.29-.489h2.04v-22.621h-2.04v22.621Z"/>
        <path d="M1080.2 426.536h-2.53a.244.244 0 0 1-.25-.244v-23.11c0-.137.11-.244.25-.244h2.53c.14 0 .24.107.24.244v23.11c0 .137-.1.244-.24.244Zm-2.29-.489h2.04v-22.621h-2.04v22.621Z"/>
        <path d="M1082.73 426.536h-2.53a.244.244 0 0 1-.25-.244v-23.11c0-.137.11-.244.25-.244h2.53c.14 0 .24.107.24.244v23.11c0 .137-.1.244-.24.244Zm-2.29-.489h2.05v-22.621h-2.05v22.621Z"/>
        <path d="M1085.27 426.536h-2.53a.236.236 0 0 1-.24-.244v-23.11c0-.137.1-.244.24-.244h2.53c.14 0 .24.107.24.244v23.11c0 .137-.1.244-.24.244Zm-2.29-.489h2.05v-22.621h-2.05v22.621Z"/>
        <path d="M1087.82 426.536h-2.53a.236.236 0 0 1-.24-.244v-23.11c0-.137.1-.244.24-.244h2.53c.14 0 .25.107.25.244v23.11c0 .137-.11.244-.25.244Zm-2.29-.489h2.05v-22.621h-2.05v22.621Z"/>
        <path d="M1090.36 426.536h-2.53a.236.236 0 0 1-.24-.244v-23.11c0-.137.1-.244.24-.244h2.53c.14 0 .25.107.25.244v23.11c0 .137-.11.244-.25.244Zm-2.29-.489h2.05v-22.621h-2.05v22.621Z"/>
        <path d="M1092.89 426.536h-2.53a.236.236 0 0 1-.24-.244v-23.11c0-.137.1-.244.24-.244h2.53c.14 0 .25.107.25.244v23.11c0 .137-.11.244-.25.244Zm-2.28-.489h2.04v-22.621h-2.04v22.621Z"/>
        <path d="M1095.43 426.536h-2.53a.242.242 0 0 1-.24-.244v-23.11c0-.137.11-.244.24-.244h2.53c.14 0 .25.107.25.244v23.11c0 .137-.11.244-.25.244Zm-2.28-.489h2.04v-22.621h-2.04v22.621ZM1260.26 780.252c-.24 0-.49-.059-.71-.186l-92.98-52.126-93.02-47.54c-.68-.352-.97-1.174-.68-1.878l7.16-16.948 35.51-76.537c.17-.362.48-.645.86-.772.39-.128.8-.098 1.16.088l29.09 15.285 11.86-22.923c.19-.353.5-.617.87-.724.38-.118.79-.078 1.14.117l6.39 3.501c.71.392.97 1.281.57 1.995-.39.714-1.28.969-1.99.577l-5.07-2.777-11.85 22.904c-.18.343-.49.607-.86.724-.38.117-.78.078-1.13-.098l-29.03-15.256-34.84 75.089-6.62 15.648 91.85 46.953 91.87 51.49 71.07-104.027-41.39-22.572a1.462 1.462 0 0 1-.58-1.986 1.462 1.462 0 0 1 1.99-.586l42.8 23.354c.36.195.63.538.73.948.09.401.02.832-.22 1.174l-72.73 106.483c-.29.41-.75.635-1.22.635v-.029Z"/>
        <path d="M1166.54 594.249c-2.09 0-4.17-.509-6.06-1.506a1.477 1.477 0 0 1-.65-1.927l5.05-10.562a1.458 1.458 0 0 1 1.95-.694c.73.352 1.04 1.222.69 1.956l-4.39 9.203c2.04.733 4.27.792 6.39.146 2.58-.792 4.68-2.523 5.92-4.88a1.465 1.465 0 0 1 1.98-.616c.72.381.99 1.262.62 1.985a12.82 12.82 0 0 1-7.66 6.328c-1.26.381-2.56.577-3.84.577v-.01ZM1145.53 672.557c-1.95 0-3.9-.44-5.74-1.379a1.47 1.47 0 0 1-.64-1.976 1.485 1.485 0 0 1 1.98-.645c4.83 2.464 11.04.332 13.57-4.646a1.466 1.466 0 1 1 2.61 1.34c-2.35 4.626-7.01 7.306-11.78 7.306Z"/>
        <path d="M1140.45 671.333c-.21 0-.43-.049-.62-.147-6.56-3.12-9.66-11.432-6.64-17.789a1.472 1.472 0 0 1 1.96-.695c.73.352 1.04 1.223.69 1.956-2.3 4.851.2 11.472 5.25 13.878.73.352 1.05 1.222.69 1.956-.25.528-.77.841-1.33.841Z"/>
        <path d="M1123.07 705.534c-.22 0-.45-.049-.66-.156a1.474 1.474 0 0 1-.65-1.976l22.69-44.625a1.478 1.478 0 0 1 1.98-.645c.72.371 1 1.251.64 1.975l-22.69 44.625c-.25.509-.77.802-1.31.802ZM1134.5 655.511c-.21 0-.43-.049-.63-.147l-40.36-19.413a1.47 1.47 0 0 1-.69-1.956 1.468 1.468 0 0 1 1.96-.684l40.36 19.413c.73.352 1.03 1.232.68 1.955a1.45 1.45 0 0 1-1.32.832ZM1157.22 722.99a1.465 1.465 0 0 1-1.27-2.201l24.31-42.386-24.92-12.518a1.463 1.463 0 0 1-.66-1.965 1.469 1.469 0 0 1 1.97-.656l26.3 13.213c.37.176.63.499.75.89.11.391.07.802-.14 1.154l-25.08 43.725c-.27.47-.76.734-1.27.734l.01.01ZM1147.27 603.091c-.24 0-.47-.059-.69-.167l-30.4-15.97a1.455 1.455 0 0 1-.64-1.917l11.76-25.359a1.463 1.463 0 0 1 2.03-.665l31.19 17.085c.69.382.96 1.252.59 1.966l-12.54 24.235a1.484 1.484 0 0 1-1.3.792Zm-28.49-18.083 27.86 14.63 11.21-21.652-28.55-15.648-10.51 22.67h-.01Z"/>
        <path d="M1147.27 603.091c-.56 0-1.1-.323-1.34-.861l-18.64-41.329c-.33-.734 0-1.604.73-1.937.74-.332 1.61 0 1.94.734l18.63 41.329c.34.734 0 1.604-.73 1.937-.19.088-.4.127-.6.127h.01Z"/>
        <path d="M1116.86 587.12c-.68 0-1.3-.489-1.43-1.193a1.47 1.47 0 0 1 1.16-1.721l42.95-8.274c.79-.147 1.56.372 1.72 1.164a1.47 1.47 0 0 1-1.16 1.721l-42.95 8.274c-.1.019-.19.029-.29.029ZM1172.32 312.796a1.46 1.46 0 0 1-1.46-1.467c0-5.026-3.73-9.202-8.55-9.916v9.916c0 .812-.66 1.467-1.47 1.467-.81 0-1.47-.655-1.47-1.467v-11.491c0-.812.66-1.467 1.47-1.467 7.14 0 12.95 5.809 12.95 12.958 0 .812-.66 1.467-1.47 1.467ZM970.582 324.287a1.465 1.465 0 0 1-1.466-1.467v-11.492a1.465 1.465 0 1 1 2.932 0v9.917c4.827-.714 8.551-4.89 8.551-9.917a1.464 1.464 0 1 1 2.931 0c0 7.149-5.804 12.959-12.948 12.959Z"/>
        <path d="M993.547 324.287c-7.144 0-12.948-5.81-12.948-12.959a1.464 1.464 0 1 1 2.931 0c0 5.027 3.724 9.203 8.551 9.917v-9.917a1.465 1.465 0 1 1 2.932 0v11.492c0 .811-.655 1.467-1.466 1.467ZM847.47 324.287a1.465 1.465 0 0 1-1.466-1.467v-11.492a1.465 1.465 0 1 1 2.932 0v9.917c4.827-.714 8.55-4.89 8.55-9.917a1.465 1.465 0 1 1 2.932 0c0 7.149-5.805 12.959-12.948 12.959Z"/>
        <path d="M870.435 324.287c-7.144 0-12.949-5.81-12.949-12.959a1.465 1.465 0 1 1 2.932 0c0 5.027 3.723 9.203 8.551 9.917v-9.917a1.465 1.465 0 1 1 2.932 0v11.492c0 .811-.655 1.467-1.466 1.467ZM797.347 324.287a1.465 1.465 0 0 1-1.466-1.467v-11.492a1.465 1.465 0 1 1 2.932 0v9.917c4.827-.714 8.55-4.89 8.55-9.917a1.465 1.465 0 1 1 2.932 0c0 7.149-5.805 12.959-12.948 12.959Z"/>
        <path d="M820.313 324.287c-7.144 0-12.949-5.81-12.949-12.959a1.465 1.465 0 1 1 2.932 0c0 5.027 3.723 9.203 8.551 9.917v-9.917a1.465 1.465 0 1 1 2.931 0v11.492c0 .811-.654 1.467-1.465 1.467ZM488.629 286.664h-11.482a1.464 1.464 0 0 1-1.466-1.466c0-7.15 5.804-12.959 12.948-12.959.811 0 1.466.656 1.466 1.467 0 .812-.655 1.467-1.466 1.467-5.023 0-9.196 3.726-9.909 8.558h9.909c.811 0 1.466.655 1.466 1.467 0 .811-.655 1.466-1.466 1.466Z"/>
        <path d="M488.629 275.172c-7.144 0-12.948-5.809-12.948-12.958 0-.812.654-1.467 1.466-1.467h11.482c.811 0 1.466.655 1.466 1.467s-.655 1.467-1.466 1.467h-9.909c.713 4.831 4.886 8.557 9.909 8.557.811 0 1.466.656 1.466 1.467 0 .812-.655 1.467-1.466 1.467ZM460.758 286.664h-11.483a1.463 1.463 0 0 1-1.465-1.466c0-.812.654-1.467 1.465-1.467h9.91c-.714-4.832-4.887-8.558-9.91-8.558a1.464 1.464 0 0 1-1.465-1.467c0-.811.654-1.467 1.465-1.467 7.144 0 12.949 5.809 12.949 12.959 0 .811-.655 1.466-1.466 1.466Z"/>
        <path d="M449.275 275.172a1.464 1.464 0 0 1-1.465-1.467c0-.811.654-1.467 1.465-1.467 5.023 0 9.196-3.726 9.91-8.557h-9.91a1.464 1.464 0 0 1-1.465-1.467c0-.812.654-1.467 1.465-1.467h11.483c.811 0 1.466.655 1.466 1.467 0 7.149-5.805 12.958-12.949 12.958ZM488.649 33.121c-7.144 0-12.949-5.809-12.949-12.958 0-.811.655-1.467 1.466-1.467.811 0 1.466.655 1.466 1.467 0 5.526 4.495 10.025 10.017 10.025.811 0 1.465.655 1.465 1.466 0 .812-.654 1.467-1.465 1.467Z"/>
        <path d="M465.684 33.121a1.465 1.465 0 0 1-1.466-1.467v-11.49a1.465 1.465 0 1 1 2.931 0v9.916c4.828-.714 8.551-4.89 8.551-9.917 0-.811.655-1.467 1.466-1.467.811 0 1.466.655 1.466 1.467 0 7.15-5.805 12.958-12.948 12.958ZM504.235 312.796a1.464 1.464 0 0 1-1.465-1.467c0-5.026-3.724-9.202-8.551-9.916v9.916c0 .812-.655 1.467-1.466 1.467a1.464 1.464 0 0 1-1.466-1.467v-11.491c0-.812.655-1.467 1.466-1.467 7.144 0 12.948 5.809 12.948 12.958 0 .812-.654 1.467-1.466 1.467Z"/>
        <path d="M515.718 312.796a1.464 1.464 0 0 1-1.466-1.467v-9.916c-4.827.714-8.551 4.89-8.551 9.916a1.464 1.464 0 1 1-2.931 0c0-7.149 5.804-12.958 12.948-12.958.811 0 1.466.655 1.466 1.467v11.491c0 .812-.655 1.467-1.466 1.467ZM433.093 312.796a1.464 1.464 0 0 1-1.466-1.467c0-5.026-3.723-9.202-8.551-9.916v9.916a1.464 1.464 0 1 1-2.931 0v-11.491c0-.812.654-1.467 1.465-1.467 7.144 0 12.949 5.809 12.949 12.958 0 .812-.655 1.467-1.466 1.467Z"/>
        <path d="M444.575 312.796a1.464 1.464 0 0 1-1.466-1.467v-9.916c-4.827.714-8.55 4.89-8.55 9.916 0 .812-.655 1.467-1.466 1.467a1.464 1.464 0 0 1-1.466-1.467c0-7.149 5.805-12.958 12.948-12.958.811 0 1.466.655 1.466 1.467v11.491c0 .812-.655 1.467-1.466 1.467ZM462.546 380.11h-11.482a1.464 1.464 0 0 1-1.466-1.467c0-.812.654-1.467 1.466-1.467h9.909c-.714-4.831-4.887-8.557-9.909-8.557a1.464 1.464 0 0 1-1.466-1.467c0-.812.654-1.467 1.466-1.467 7.143 0 12.948 5.809 12.948 12.958 0 .812-.655 1.467-1.466 1.467Z"/>
        <path d="M451.064 368.619a1.464 1.464 0 0 1-1.466-1.467c0-.812.654-1.467 1.466-1.467 5.022 0 9.195-3.726 9.909-8.558h-9.909a1.464 1.464 0 0 1-1.466-1.467c0-.811.654-1.467 1.466-1.467h11.482c.811 0 1.466.656 1.466 1.467 0 7.149-5.805 12.959-12.948 12.959ZM506.61 433.792c-7.143 0-12.948-5.809-12.948-12.958 0-.812.655-1.467 1.466-1.467.811 0 1.466.655 1.466 1.467 0 5.526 4.495 10.024 10.016 10.024.812 0 1.466.656 1.466 1.467 0 .812-.654 1.467-1.466 1.467Z"/>
        <path d="M483.645 433.792a1.464 1.464 0 0 1-1.466-1.467v-11.491c0-.812.654-1.467 1.466-1.467.811 0 1.465.655 1.465 1.467v9.917c4.828-.714 8.551-4.89 8.551-9.917 0-.812.655-1.467 1.466-1.467.811 0 1.466.655 1.466 1.467 0 7.149-5.805 12.958-12.948 12.958ZM314.212 200.866a1.464 1.464 0 0 1-1.466-1.467v-10.025h-2.16a1.464 1.464 0 0 1-1.466-1.467c0-.811.655-1.467 1.466-1.467h3.626c.811 0 1.465.656 1.465 1.467v9.917c4.828-.714 8.551-4.89 8.551-9.917a1.465 1.465 0 1 1 2.932 0c0 7.149-5.805 12.959-12.948 12.959Z"/>
        <path d="M337.255 200.866c-7.183 0-13.026-5.81-13.026-12.959a1.464 1.464 0 1 1 2.931 0c0 5.526 4.525 10.025 10.095 10.025.811 0 1.466.655 1.466 1.467 0 .811-.655 1.467-1.466 1.467ZM652.902 54.93H641.42a1.465 1.465 0 0 1-1.466-1.467c0-3.462 1.349-6.719 3.792-9.164a12.864 12.864 0 0 1 9.156-3.794c.812 0 1.466.655 1.466 1.467s-.654 1.467-1.466 1.467a9.975 9.975 0 0 0-7.084 2.934 9.9 9.9 0 0 0-2.825 5.623h9.909c.812 0 1.466.655 1.466 1.467s-.654 1.467-1.466 1.467Z"/>
        <path d="M652.902 43.44c-3.459 0-6.713-1.35-9.156-3.795a12.885 12.885 0 0 1-3.792-9.163c0-.812.655-1.467 1.466-1.467h11.482c.812 0 1.466.655 1.466 1.467 0 .811-.654 1.467-1.466 1.467h-9.909a10.025 10.025 0 0 0 2.825 5.623 9.934 9.934 0 0 0 7.084 2.934c.812 0 1.466.655 1.466 1.467s-.654 1.467-1.466 1.467ZM677.685 324.287c-7.144 0-12.949-5.81-12.949-12.959a1.465 1.465 0 1 1 2.932 0c0 5.027 3.723 9.203 8.551 9.917v-9.917a1.465 1.465 0 1 1 2.932 0v11.492c0 .811-.655 1.467-1.466 1.467ZM820.313 170.382a1.464 1.464 0 0 1-1.466-1.467v-9.916c-4.828.713-8.551 4.889-8.551 9.916 0 .812-.655 1.467-1.466 1.467a1.464 1.464 0 0 1-1.466-1.467c0-7.149 5.805-12.958 12.949-12.958.811 0 1.465.655 1.465 1.467v11.491c0 .812-.654 1.467-1.465 1.467ZM836.69 163.488a1.464 1.464 0 0 1-1.465-1.467c0-.812.654-1.467 1.465-1.467 5.023 0 9.196-3.726 9.91-8.558h-9.91a1.464 1.464 0 0 1-1.465-1.467c0-.811.654-1.467 1.465-1.467h11.483c.811 0 1.466.656 1.466 1.467 0 7.15-5.805 12.959-12.949 12.959ZM836.69 100.632a1.464 1.464 0 0 1-1.465-1.467c0-.811.654-1.467 1.465-1.467 5.023 0 9.196-3.726 9.91-8.557h-9.91a1.464 1.464 0 0 1-1.465-1.467c0-.812.654-1.467 1.465-1.467h11.483c.811 0 1.466.655 1.466 1.467 0 7.149-5.805 12.958-12.949 12.958ZM702.008 89.141a1.465 1.465 0 0 1-1.466-1.467c0-.812.655-1.467 1.466-1.467 5.023 0 9.196-3.726 9.909-8.557h-9.909a1.465 1.465 0 0 1-1.466-1.467c0-.812.655-1.467 1.466-1.467h11.482c.811 0 1.466.655 1.466 1.467 0 7.149-5.805 12.958-12.948 12.958ZM702.008 113.865a1.465 1.465 0 0 1-1.466-1.467c0-.812.655-1.467 1.466-1.467 5.023 0 9.196-3.726 9.909-8.558h-9.909a1.464 1.464 0 0 1-1.466-1.467c0-.811.655-1.467 1.466-1.467h11.482c.811 0 1.466.656 1.466 1.467 0 7.149-5.805 12.959-12.948 12.959ZM702.008 135.644a1.464 1.464 0 0 1-1.466-1.467c0-.812.655-1.467 1.466-1.467 5.023 0 9.196-3.726 9.909-8.557h-9.909a1.465 1.465 0 0 1-1.466-1.467c0-.812.655-1.467 1.466-1.467h11.482c.811 0 1.466.655 1.466 1.467 0 7.149-5.805 12.958-12.948 12.958ZM652.922 158.92a1.464 1.464 0 0 1-1.466-1.467c0-.811.655-1.467 1.466-1.467 5.023 0 9.196-3.726 9.909-8.557h-9.909a1.464 1.464 0 0 1-1.466-1.467c0-.812.655-1.467 1.466-1.467h11.482c.812 0 1.466.655 1.466 1.467 0 7.149-5.805 12.958-12.948 12.958ZM488.629 207.564a1.464 1.464 0 0 1-1.466-1.467c0-.812.655-1.467 1.466-1.467 5.023 0 9.196-3.726 9.909-8.557h-9.909a1.465 1.465 0 0 1-1.466-1.467c0-.812.655-1.467 1.466-1.467h11.482c.812 0 1.466.655 1.466 1.467 0 7.149-5.804 12.958-12.948 12.958ZM472.564 189.373a1.464 1.464 0 0 1-1.466-1.467c0-5.026-3.724-9.202-8.551-9.916v9.916c0 .812-.655 1.467-1.466 1.467a1.464 1.464 0 0 1-1.466-1.467v-11.491c0-.812.655-1.467 1.466-1.467 7.144 0 12.948 5.809 12.948 12.958 0 .812-.654 1.467-1.465 1.467ZM449.276 207.564c-7.144 0-12.949-5.809-12.949-12.958 0-.812.655-1.467 1.466-1.467h11.483c.811 0 1.465.655 1.465 1.467 0 .811-.654 1.467-1.465 1.467h-9.91c.714 4.831 4.887 8.557 9.91 8.557.811 0 1.465.655 1.465 1.467s-.654 1.467-1.465 1.467ZM294.306 207.564c-7.144 0-12.949-5.809-12.949-12.958 0-.812.655-1.467 1.466-1.467h11.483c.811 0 1.466.655 1.466 1.467 0 .811-.655 1.467-1.466 1.467h-9.909c.713 4.831 4.886 8.557 9.909 8.557.811 0 1.466.655 1.466 1.467s-.655 1.467-1.466 1.467ZM294.306 253.99c-7.144 0-12.949-5.81-12.949-12.959 0-.811.655-1.467 1.466-1.467h11.483c.811 0 1.466.656 1.466 1.467 0 .812-.655 1.467-1.466 1.467h-9.909c.713 4.832 4.886 8.558 9.909 8.558.811 0 1.466.655 1.466 1.467 0 .811-.655 1.467-1.466 1.467ZM294.306 284.336c-7.144 0-12.949-5.809-12.949-12.958 0-.812.655-1.467 1.466-1.467h11.483c.811 0 1.466.655 1.466 1.467s-.655 1.467-1.466 1.467h-9.909c.713 4.831 4.886 8.557 9.909 8.557.811 0 1.466.656 1.466 1.467 0 .812-.655 1.467-1.466 1.467ZM294.306 329.852c-7.144 0-12.949-5.809-12.949-12.958 0-.812.655-1.467 1.466-1.467h11.483c.811 0 1.466.655 1.466 1.467 0 .811-.655 1.467-1.466 1.467h-9.909c.713 4.831 4.886 8.557 9.909 8.557.811 0 1.466.655 1.466 1.467s-.655 1.467-1.466 1.467ZM177.829 374.339c-7.143 0-12.948-5.809-12.948-12.958 0-.812.655-1.467 1.466-1.467h11.482c.811 0 1.466.655 1.466 1.467s-.655 1.467-1.466 1.467h-9.909c.713 4.831 4.886 8.557 9.909 8.557.811 0 1.466.656 1.466 1.467 0 .812-.655 1.467-1.466 1.467ZM177.829 488.499c-7.143 0-12.948-5.809-12.948-12.958 0-.812.655-1.467 1.466-1.467h11.482c.811 0 1.466.655 1.466 1.467s-.655 1.467-1.466 1.467h-9.909c.713 4.831 4.886 8.557 9.909 8.557.811 0 1.466.656 1.466 1.467 0 .812-.655 1.467-1.466 1.467ZM177.829 467.102h-11.482a1.464 1.464 0 0 1-1.466-1.467c0-7.149 5.805-12.958 12.948-12.958.811 0 1.466.655 1.466 1.467 0 .811-.655 1.467-1.466 1.467-5.023 0-9.196 3.726-9.909 8.557h9.909c.811 0 1.466.655 1.466 1.467s-.655 1.467-1.466 1.467Z"/>
        <path d="M282.823 341.353a1.468 1.468 0 0 1-1.466-1.467c0-7.149 5.805-12.958 12.949-12.958.811 0 1.466.655 1.466 1.467 0 .811-.655 1.467-1.466 1.467-5.023 0-9.196 3.726-9.909 8.557h9.909c.811 0 1.466.655 1.466 1.467s-.655 1.467-1.466 1.467h-11.483ZM240.421 414.027c-7.144 0-12.948-5.809-12.948-12.958 0-.812.654-1.467 1.466-1.467.811 0 1.465.655 1.465 1.467 0 5.525 4.496 10.024 10.017 10.024.811 0 1.466.655 1.466 1.467s-.655 1.467-1.466 1.467ZM258.666 402.535h-3.772a1.465 1.465 0 0 1-1.466-1.467v-9.917c-4.818.714-8.522 4.89-8.522 9.917a1.464 1.464 0 1 1-2.931 0c0-7.149 5.795-12.959 12.919-12.959.811 0 1.466.656 1.466 1.467v10.025h2.306c.811 0 1.466.655 1.466 1.467 0 .811-.655 1.467-1.466 1.467ZM258.695 352.825h-3.919a1.464 1.464 0 0 1-1.465-1.467v-9.917c-4.828.714-8.551 4.89-8.551 9.917 0 .811-.655 1.467-1.466 1.467h-6.968a1.465 1.465 0 0 1-1.466-1.467c0-.812.655-1.467 1.466-1.467h5.59c.733-6.455 6.225-11.492 12.87-11.492.811 0 1.466.656 1.466 1.467v10.025h2.453c.811 0 1.466.655 1.466 1.467 0 .811-.655 1.467-1.466 1.467h-.01ZM591.913 105.737a1.465 1.465 0 0 1-1.466-1.467c0-7.15 5.805-12.959 12.949-12.959.811 0 1.465.656 1.465 1.467 0 .812-.654 1.468-1.465 1.468-5.522 0-10.017 4.498-10.017 10.024 0 .811-.655 1.467-1.466 1.467ZM500.111 105.737a1.464 1.464 0 0 1-1.465-1.467c0-5.526-4.496-10.024-10.017-10.024a1.465 1.465 0 0 1-1.466-1.468c0-.811.655-1.467 1.466-1.467 7.144 0 12.948 5.81 12.948 12.959 0 .811-.654 1.467-1.466 1.467ZM664.404 141.756a1.464 1.464 0 0 1-1.465-1.467c0-5.525-4.496-10.024-10.017-10.024a1.464 1.464 0 0 1-1.466-1.467c0-.812.655-1.467 1.466-1.467 7.143 0 12.948 5.809 12.948 12.958 0 .812-.654 1.467-1.466 1.467ZM848.173 126.597H836.69a1.464 1.464 0 0 1-1.465-1.467c0-.812.654-1.467 1.465-1.467h9.91c-.714-4.831-4.887-8.557-9.91-8.557a1.464 1.464 0 0 1-1.465-1.467c0-.812.654-1.467 1.465-1.467 7.144 0 12.949 5.809 12.949 12.958 0 .812-.655 1.467-1.466 1.467ZM893.331 530.23c-1.163 0-2.336-.157-3.508-.489a1.455 1.455 0 0 1-.88-.695 1.479 1.479 0 0 1-.127-1.114l3.117-11.061a1.464 1.464 0 0 1 1.808-1.017l11.053 3.119c.371.108.694.352.879.695.186.342.235.743.127 1.115-1.602 5.711-6.811 9.447-12.469 9.447Zm-1.271-3.012c4.359.567 8.62-1.829 10.418-5.839l-8.131-2.288-2.287 8.136v-.009Z"/>
        <path d="M912.329 536.031a1.48 1.48 0 0 1-.401-.059 12.86 12.86 0 0 1-7.788-6.142 12.877 12.877 0 0 1-1.163-9.848 1.466 1.466 0 0 1 1.808-1.017l11.052 3.12a1.466 1.466 0 0 1 1.017 1.809l-3.118 11.061a1.47 1.47 0 0 1-1.407 1.066v.01Zm-6.821-13.809a10.002 10.002 0 0 0 1.202 6.18 9.917 9.917 0 0 0 4.642 4.245l2.286-8.137-8.13-2.288ZM919.355 537.841c-1.163 0-2.336-.157-3.509-.489a1.468 1.468 0 0 1-1.016-1.81l3.117-11.061a1.46 1.46 0 0 1 .694-.88 1.53 1.53 0 0 1 1.114-.137l11.053 3.12a1.455 1.455 0 0 1 1.006 1.809c-1.602 5.712-6.811 9.448-12.469 9.448h.01Zm-1.271-3.013c4.368.568 8.619-1.828 10.418-5.838l-8.131-2.289-2.287 8.137v-.01Z"/>
        <path d="M938.352 543.646c-.127 0-.264-.02-.4-.059a12.863 12.863 0 0 1-7.789-6.142 12.877 12.877 0 0 1-1.163-9.848 1.466 1.466 0 0 1 1.808-1.017l11.053 3.12a1.467 1.467 0 0 1 1.016 1.809l-3.117 11.061a1.469 1.469 0 0 1-1.408 1.066v.01Zm-6.821-13.809a10.012 10.012 0 0 0 1.202 6.181 9.915 9.915 0 0 0 4.642 4.244l2.287-8.137-8.131-2.288ZM1033 643.637c-.19 0-.37-.039-.56-.108l-3.74-1.545a1.468 1.468 0 0 1-.8-1.917l42.75-104.253c.15-.362.44-.655.8-.802.36-.146.77-.146 1.13 0l30.67 12.959a1.47 1.47 0 0 1 .78 1.926 1.459 1.459 0 0 1-1.91.783l-29.32-12.382-41.63 101.525 2.38.987a1.46 1.46 0 0 1 .8 1.917c-.24.567-.79.91-1.36.91h.01ZM652.902 31.95a1.464 1.464 0 0 1-1.465-1.467V-6.466a1.465 1.465 0 1 1 2.931 0v36.948c0 .812-.655 1.468-1.466 1.468ZM652.902 147.428a1.463 1.463 0 0 1-1.465-1.466V53.464a1.465 1.465 0 1 1 2.931 0v92.498c0 .811-.655 1.466-1.466 1.466ZM666.203 312.796h-13.291a1.464 1.464 0 0 1-1.466-1.467V157.453a1.465 1.465 0 1 1 2.932 0v152.409h11.825c.811 0 1.465.655 1.465 1.467s-.654 1.467-1.465 1.467ZM797.347 312.795H677.685a1.464 1.464 0 0 1-1.466-1.467c0-.811.654-1.467 1.466-1.467h119.662c.811 0 1.466.656 1.466 1.467 0 .812-.655 1.467-1.466 1.467ZM847.47 312.795h-27.157a1.464 1.464 0 0 1-1.466-1.467c0-.811.654-1.467 1.466-1.467h27.157c.811 0 1.466.656 1.466 1.467 0 .812-.655 1.467-1.466 1.467ZM970.582 312.795H870.435a1.464 1.464 0 0 1-1.466-1.467c0-.811.654-1.467 1.466-1.467h100.147c.811 0 1.465.656 1.465 1.467 0 .812-.654 1.467-1.465 1.467ZM1160.84 312.795H993.557a1.464 1.464 0 0 1-1.466-1.467c0-.811.655-1.467 1.466-1.467h167.283c.81 0 1.47.656 1.47 1.467 0 .812-.66 1.467-1.47 1.467ZM1302.45 427.757h-252.09a1.46 1.46 0 0 1-1.46-1.467c0-.812.65-1.467 1.46-1.467h250.62V312.795h-30.01a1.46 1.46 0 0 1-1.46-1.467c0-.811.65-1.467 1.46-1.467h31.48c.81 0 1.47.656 1.47 1.467V426.29c0 .812-.66 1.467-1.47 1.467Z"/>
        <path d="M950.92 312.795a1.464 1.464 0 0 1-1.466-1.467V-21.87c0-.812.655-1.467 1.466-1.467.811 0 1.466.655 1.466 1.467v333.198c0 .812-.655 1.467-1.466 1.467Z"/>
        <path d="M1035.26 142.804h-84.34a1.464 1.464 0 0 1-1.466-1.467c0-.812.655-1.467 1.466-1.467h84.34c.81 0 1.46.655 1.46 1.467a1.46 1.46 0 0 1-1.46 1.467ZM1202.3 142.804h-68.84c-.81 0-1.47-.655-1.47-1.467s.66-1.467 1.47-1.467h68.84c.82 0 1.47.655 1.47 1.467s-.65 1.467-1.47 1.467ZM808.83 170.381H652.912a1.464 1.464 0 0 1-1.466-1.467c0-.811.655-1.467 1.466-1.467H808.83c.811 0 1.466.656 1.466 1.467 0 .812-.655 1.467-1.466 1.467ZM836.691 312.795a1.464 1.464 0 0 1-1.466-1.467V170.381h-14.912a1.464 1.464 0 0 1-1.466-1.467c0-.811.654-1.467 1.466-1.467h16.378c.811 0 1.466.656 1.466 1.467v142.414c0 .812-.655 1.467-1.466 1.467ZM836.69 89.14a1.464 1.464 0 0 1-1.465-1.466V65.523c0-.812.654-1.467 1.465-1.467h5.903c.811 0 1.466.655 1.466 1.467 0 .811-.655 1.467-1.466 1.467h-4.437v20.684c0 .812-.654 1.467-1.466 1.467ZM836.69 115.107a1.464 1.464 0 0 1-1.465-1.467V99.166c0-.811.654-1.467 1.465-1.467.812 0 1.466.656 1.466 1.467v14.474c0 .812-.654 1.467-1.466 1.467ZM836.69 151.996a1.464 1.464 0 0 1-1.465-1.467v-25.398c0-.812.654-1.467 1.465-1.467.812 0 1.466.655 1.466 1.467v25.398c0 .812-.654 1.467-1.466 1.467Z"/>
        <path d="M836.69 169.804a1.464 1.464 0 0 1-1.465-1.467v-6.317c0-.812.654-1.467 1.465-1.467.812 0 1.466.655 1.466 1.467v6.317c0 .812-.654 1.467-1.466 1.467ZM836.691 85.855h-16.115a1.464 1.464 0 0 1-1.465-1.467v-14.66H652.912a1.465 1.465 0 0 1-1.466-1.467c0-.812.655-1.467 1.466-1.467h167.664c.811 0 1.466.655 1.466 1.467v14.66h14.649c.811 0 1.466.655 1.466 1.467 0 .811-.655 1.467-1.466 1.467Z"/>
        <path d="M830.212 85.855a1.465 1.465 0 0 1-1.466-1.467V52.134c0-.812.655-1.467 1.466-1.467.811 0 1.466.655 1.466 1.467v32.254c0 .811-.655 1.467-1.466 1.467ZM830.212 18.463a1.465 1.465 0 0 1-1.466-1.467V-6.466c0-.811.655-1.467 1.466-1.467.811 0 1.466.656 1.466 1.467v23.462c0 .812-.655 1.467-1.466 1.467ZM729.928 169.805a1.465 1.465 0 0 1-1.466-1.467v-9.076c0-.812.655-1.467 1.466-1.467.811 0 1.466.655 1.466 1.467v9.076c0 .811-.655 1.467-1.466 1.467ZM729.928 149.424a1.464 1.464 0 0 1-1.466-1.467v-15.335a1.465 1.465 0 1 1 2.932 0v15.335c0 .812-.655 1.467-1.466 1.467ZM652.902 141.757a1.464 1.464 0 0 1-1.465-1.467V68.252c0-.812.654-1.467 1.465-1.467h49.106c.812 0 1.466.655 1.466 1.467v7.922c0 .811-.654 1.467-1.466 1.467a1.464 1.464 0 0 1-1.465-1.467v-6.455h-46.175v70.571c0 .812-.655 1.467-1.466 1.467ZM702.008 141.755h-37.604a1.464 1.464 0 0 1-1.466-1.467c0-.811.655-1.467 1.466-1.467h36.138v-4.655c0-.812.655-1.467 1.466-1.467.811 0 1.466.655 1.466 1.467v6.122c0 .812-.655 1.467-1.466 1.467ZM702.008 124.152a1.464 1.464 0 0 1-1.466-1.467v-10.279a1.465 1.465 0 1 1 2.932 0v10.279c0 .812-.655 1.467-1.466 1.467ZM702.008 102.373a1.464 1.464 0 0 1-1.466-1.467V87.674c0-.812.655-1.467 1.466-1.467.811 0 1.466.655 1.466 1.467v13.232c0 .812-.655 1.467-1.466 1.467Z"/>
        <path d="M671.255 141.757a1.465 1.465 0 0 1-1.466-1.467V96.3c0-.812.655-1.467 1.466-1.467h30.753c.812 0 1.466.655 1.466 1.467s-.654 1.467-1.466 1.467h-29.287v42.523c0 .811-.655 1.467-1.466 1.467Z"/>
        <path d="M702.008 119.047h-30.753a1.464 1.464 0 0 1-1.466-1.467c0-.811.655-1.467 1.466-1.467h30.753c.812 0 1.466.656 1.466 1.467 0 .812-.654 1.467-1.466 1.467ZM671.255 114.833h-18.343a1.464 1.464 0 0 1-1.466-1.467c0-.811.655-1.467 1.466-1.467h18.343c.811 0 1.466.656 1.466 1.467 0 .812-.655 1.467-1.466 1.467ZM603.396 312.796h-87.678a1.465 1.465 0 0 1-1.466-1.467c0-.812.655-1.467 1.466-1.467h86.212V189.374H472.564a1.464 1.464 0 0 1-1.466-1.467c0-.811.654-1.467 1.466-1.467h130.832c.811 0 1.466.656 1.466 1.467v123.422c0 .811-.655 1.467-1.466 1.467ZM421.61 312.796h-84.355a1.465 1.465 0 0 1-1.466-1.467V187.907c0-.811.655-1.467 1.466-1.467H461.08c.811 0 1.466.656 1.466 1.467 0 .812-.655 1.467-1.466 1.467H338.721v120.488h82.889c.811 0 1.466.655 1.466 1.467 0 .811-.655 1.467-1.466 1.467ZM492.753 312.795h-48.178a1.464 1.464 0 0 1-1.466-1.467c0-.811.655-1.467 1.466-1.467h48.178c.811 0 1.466.656 1.466 1.467 0 .812-.655 1.467-1.466 1.467Z"/>
        <path d="M603.396 189.375a1.464 1.464 0 0 1-1.466-1.467v-27.344c0-.812.654-1.467 1.466-1.467.811 0 1.465.655 1.465 1.467v27.344c0 .812-.654 1.467-1.465 1.467ZM603.395 94.246a1.464 1.464 0 0 1-1.465-1.467V-5.01H488.629a1.465 1.465 0 0 1-1.466-1.467c0-.812.655-1.467 1.466-1.467h114.766c.812 0 1.466.655 1.466 1.467v99.255c0 .812-.654 1.467-1.466 1.467ZM603.395 105.737H488.629a1.465 1.465 0 0 1-1.466-1.467c0-.812.655-1.467 1.466-1.467h114.766c.812 0 1.466.655 1.466 1.467 0 .811-.654 1.467-1.466 1.467Z"/>
        <path d="M488.629 94.246a1.465 1.465 0 0 1-1.466-1.467V-6.476c0-.812.655-1.467 1.466-1.467.811 0 1.466.655 1.466 1.467v99.255c0 .812-.655 1.467-1.466 1.467ZM603.396 134.304a1.464 1.464 0 0 1-1.466-1.467V104.27c0-.812.654-1.467 1.466-1.467.811 0 1.465.655 1.465 1.467v28.567c0 .811-.654 1.467-1.465 1.467ZM519.852 147.448h-31.223a1.465 1.465 0 0 1-1.466-1.467v-18.827a1.465 1.465 0 1 1 2.932 0v17.36h28.291v-38.768h-28.291v8.636h9.616c.811 0 1.466.655 1.466 1.467s-.655 1.467-1.466 1.467h-11.082a1.464 1.464 0 0 1-1.466-1.467v-11.57c0-.811.655-1.467 1.466-1.467h31.223c.811 0 1.465.656 1.465 1.467v41.702c0 .811-.654 1.467-1.465 1.467Z"/>
        <path d="M519.852 189.375h-31.223a1.465 1.465 0 0 1-1.466-1.467v-41.926c0-.812.655-1.467 1.466-1.467h31.223c.811 0 1.465.655 1.465 1.467v41.926c0 .811-.654 1.467-1.465 1.467Zm-29.757-2.934h28.291v-38.992h-28.291v38.992Z"/>
        <path d="M587.398 147.449h-67.556a1.465 1.465 0 0 1-1.466-1.467c0-.812.655-1.467 1.466-1.467h67.556c.811 0 1.466.655 1.466 1.467 0 .811-.655 1.467-1.466 1.467Z"/>
        <path d="M587.398 171.204a1.464 1.464 0 0 1-1.465-1.467v-45.359c0-.812.654-1.467 1.465-1.467.812 0 1.466.655 1.466 1.467v45.359c0 .812-.654 1.467-1.466 1.467ZM488.629 196.074a1.465 1.465 0 0 1-1.466-1.467v-6.7a1.465 1.465 0 1 1 2.932 0v6.7c0 .811-.655 1.467-1.466 1.467ZM488.629 312.795a1.464 1.464 0 0 1-1.466-1.467v-26.122a1.465 1.465 0 1 1 2.932 0v26.122c0 .812-.655 1.467-1.466 1.467ZM488.629 263.681a1.464 1.464 0 0 1-1.466-1.467v-56.126c0-.812.655-1.467 1.466-1.467.811 0 1.466.655 1.466 1.467v56.126c0 .812-.655 1.467-1.466 1.467ZM449.275 263.681a1.464 1.464 0 0 1-1.465-1.467v-56.126c0-.812.654-1.467 1.465-1.467.812 0 1.466.655 1.466 1.467v56.126c0 .812-.654 1.467-1.466 1.467ZM449.275 196.074a1.464 1.464 0 0 1-1.465-1.467v-6.7a1.464 1.464 0 1 1 2.931 0v6.7c0 .811-.654 1.467-1.466 1.467ZM449.275 312.795a1.464 1.464 0 0 1-1.465-1.467v-26.122a1.464 1.464 0 1 1 2.931 0v26.122c0 .812-.654 1.467-1.466 1.467Z"/>
        <path d="M488.629 245.619h-39.354a1.464 1.464 0 0 1-1.465-1.467c0-.812.654-1.467 1.465-1.467h39.354c.811 0 1.466.655 1.466 1.467 0 .811-.655 1.467-1.466 1.467ZM451.064 532.892a1.464 1.464 0 0 1-1.466-1.467V378.654c0-.811.654-1.466 1.466-1.466.811 0 1.465.655 1.465 1.466v152.771c0 .812-.654 1.467-1.465 1.467ZM451.064 357.127a1.464 1.464 0 0 1-1.466-1.467v-6.044H294.306a1.464 1.464 0 0 1-1.466-1.467v-8.274c0-.812.655-1.467 1.466-1.467.811 0 1.466.655 1.466 1.467v6.807h155.292c.811 0 1.466.655 1.466 1.467v7.511c0 .812-.655 1.467-1.466 1.467ZM294.306 318.36a1.464 1.464 0 0 1-1.466-1.467v-34.024a1.465 1.465 0 1 1 2.932 0v34.024c0 .812-.655 1.467-1.466 1.467ZM294.306 272.844a1.464 1.464 0 0 1-1.466-1.467v-18.855c0-.812.655-1.467 1.466-1.467.811 0 1.466.655 1.466 1.467v18.855c0 .812-.655 1.467-1.466 1.467ZM294.306 242.498a1.464 1.464 0 0 1-1.466-1.467v-34.933c0-.812.655-1.467 1.466-1.467.811 0 1.466.655 1.466 1.467v34.933c0 .812-.655 1.467-1.466 1.467ZM294.306 196.074a1.465 1.465 0 0 1-1.466-1.467v-6.7a1.465 1.465 0 1 1 2.932 0v6.7c0 .811-.655 1.467-1.466 1.467Z"/>
        <path d="M483.645 422.301h-32.581a1.464 1.464 0 0 1-1.466-1.467c0-.812.654-1.467 1.466-1.467h32.581c.811 0 1.465.655 1.465 1.467s-.654 1.467-1.465 1.467ZM293.846 237.736h-67.058a1.465 1.465 0 0 1-1.466-1.467c0-.812.655-1.467 1.466-1.467h67.058c.811 0 1.466.655 1.466 1.467 0 .811-.655 1.467-1.466 1.467ZM293.846 268.189h-67.058a1.464 1.464 0 0 1-1.466-1.467c0-.812.655-1.467 1.466-1.467h67.058c.811 0 1.466.655 1.466 1.467s-.655 1.467-1.466 1.467ZM294.306 310.399h-57.99a1.464 1.464 0 0 1-1.465-1.467c0-.812.654-1.467 1.465-1.467h57.99c.811 0 1.465.655 1.465 1.467s-.654 1.467-1.465 1.467ZM294.306 376.081h-35.611a1.465 1.465 0 0 1-1.466-1.467c0-.812.655-1.467 1.466-1.467h34.145v-23.53h-32.679v1.731a1.465 1.465 0 1 1-2.932 0v-3.198c0-.812.655-1.467 1.466-1.467h35.611c.811 0 1.466.655 1.466 1.467v26.464c0 .811-.655 1.467-1.466 1.467Z"/>
        <path d="M294.306 402.535h-35.611a1.464 1.464 0 0 1-1.466-1.467c0-.812.655-1.467 1.466-1.467h34.145v-23.53h-34.145a1.465 1.465 0 0 1-1.466-1.467c0-.812.655-1.467 1.466-1.467h35.611c.811 0 1.466.655 1.466 1.467v26.464c0 .812-.655 1.467-1.466 1.467ZM177.829 362.848a1.464 1.464 0 0 1-1.466-1.467v-10.024c0-.812.655-1.467 1.466-1.467.811 0 1.466.655 1.466 1.467v10.024c0 .812-.655 1.467-1.466 1.467ZM243.441 402.535h-65.612a1.464 1.464 0 0 1-1.466-1.467v-28.195c0-.812.655-1.467 1.466-1.467.811 0 1.466.655 1.466 1.467v26.728h64.146c.811 0 1.466.656 1.466 1.467 0 .812-.655 1.467-1.466 1.467ZM177.829 504.597a1.464 1.464 0 0 1-1.466-1.467v-16.098a1.465 1.465 0 1 1 2.932 0v16.098c0 .812-.655 1.467-1.466 1.467ZM177.829 477.008a1.464 1.464 0 0 1-1.466-1.467v-9.907c0-.812.655-1.467 1.466-1.467.811 0 1.466.655 1.466 1.467v9.907c0 .812-.655 1.467-1.466 1.467Z"/>
        <path d="M177.829 455.611a1.465 1.465 0 0 1-1.466-1.467v-53.075c0-.812.655-1.467 1.466-1.467.811 0 1.466.655 1.466 1.467v53.075c0 .811-.655 1.467-1.466 1.467Z"/>
        <path d="M240.421 429.86h-62.592a1.464 1.464 0 0 1-1.466-1.467c0-.811.655-1.467 1.466-1.467h61.126V412.56c0-.812.655-1.467 1.466-1.467.811 0 1.466.655 1.466 1.467v15.833c0 .812-.655 1.467-1.466 1.467ZM85.451 472.049H48.443a1.464 1.464 0 0 1-1.465-1.467c0-.812.654-1.467 1.465-1.467h37.008c.811 0 1.466.655 1.466 1.467s-.655 1.467-1.466 1.467ZM177.829 472.049h-51.226a1.464 1.464 0 0 1-1.466-1.467c0-.812.654-1.467 1.466-1.467h51.226c.811 0 1.466.655 1.466 1.467s-.655 1.467-1.466 1.467ZM133.081 537.448a1.464 1.464 0 0 1-1.466-1.467v-30.552c0-.812.655-1.467 1.466-1.467.811 0 1.466.655 1.466 1.467v30.552c0 .812-.655 1.467-1.466 1.467ZM1119.42 427.757a1.46 1.46 0 0 1-1.46-1.467V311.328c0-.811.65-1.467 1.46-1.467.82 0 1.47.656 1.47 1.467V426.29c0 .812-.65 1.467-1.47 1.467Z"/>
        <path d="M1165.4 427.757h-45.97a1.46 1.46 0 0 1-1.46-1.467v-56.107c0-.812.65-1.467 1.46-1.467h45.97c.81 0 1.47.655 1.47 1.467v56.107a1.47 1.47 0 0 1-1.47 1.467Zm-44.5-2.934h43.04V371.65h-43.04v53.173Z"/>
        <path d="M1119.42 426.534h-23.99a.242.242 0 0 1-.24-.244v-23.11c0-.137.11-.244.24-.244h23.99c.14 0 .25.107.25.244v23.11c0 .137-.11.244-.25.244Zm-23.74-.489h23.5v-22.62h-23.5v22.62ZM1054.82 403.415h-103.9a.241.241 0 0 1-.244-.244v-91.852c0-.137.107-.245.244-.245s.244.108.244.245v91.607h103.656c.14 0 .24.108.24.245s-.1.244-.24.244Z"/>
        <path d="M1049 400.081h-94.748a.241.241 0 0 1-.244-.244v-88.508c0-.136.107-.244.244-.244s.244.108.244.244v88.263H1049a.244.244 0 1 1 0 .489Z"/>
        <path d="M1049 396.541h-91.201a.242.242 0 0 1-.244-.245v-84.967c0-.136.107-.244.244-.244s.244.108.244.244v84.723H1049c.14 0 .25.108.25.244 0 .137-.11.245-.25.245Z"/>
        <path d="M1058.13 403.415h-9.12a.244.244 0 0 1-.25-.244v-91.852c0-.137.11-.245.25-.245h9.12c.14 0 .25.108.25.245v91.852c0 .137-.11.244-.25.244Zm-8.88-.489h8.64v-91.363h-8.64v91.363Z"/>
        <path d="M1067.26 403.415h-9.13a.242.242 0 0 1-.24-.244v-91.852c0-.137.11-.245.24-.245h9.13c.14 0 .24.108.24.245v91.852c0 .137-.1.244-.24.244Zm-8.88-.489h8.64v-91.363h-8.64v91.363Z"/>
        <path d="M1076.39 403.415h-9.13a.236.236 0 0 1-.24-.244v-91.852c0-.137.1-.245.24-.245h9.13c.13 0 .24.108.24.245v91.852c0 .137-.11.244-.24.244Zm-8.89-.489h8.64v-91.363h-8.64v91.363Z"/>
        <path d="M1085.51 403.415h-9.12a.244.244 0 0 1-.25-.244v-91.852c0-.137.11-.245.25-.245h9.12c.14 0 .25.108.25.245v91.852c0 .137-.11.244-.25.244Zm-8.88-.489h8.64v-91.363h-8.64v91.363Z"/>
        <path d="M1094.64 403.415h-9.13a.242.242 0 0 1-.24-.244v-91.852c0-.137.11-.245.24-.245h9.13c.14 0 .25.108.25.245v91.852c0 .137-.11.244-.25.244Zm-8.88-.489h8.64v-91.363h-8.64v91.363ZM1023.7 407.151a.242.242 0 0 1-.24-.244v-17.711a.245.245 0 0 1 .49 0v17.711c0 .137-.11.244-.25.244ZM1001.63 407.151a.244.244 0 0 1-.25-.244v-17.711a.245.245 0 0 1 .49 0v17.711c0 .137-.11.244-.24.244ZM978.956 407.151a.241.241 0 0 1-.244-.244v-17.711c0-.137.107-.245.244-.245s.245.108.245.245v17.711a.242.242 0 0 1-.245.244ZM964.377 330.36h-17.698a.241.241 0 0 1-.244-.244c0-.137.107-.245.244-.245h17.698c.136 0 .244.108.244.245a.242.242 0 0 1-.244.244ZM964.377 355.201h-17.698a.242.242 0 0 1-.244-.245c0-.137.107-.244.244-.244h17.698c.136 0 .244.107.244.244a.243.243 0 0 1-.244.245ZM964.377 379.885h-17.698a.241.241 0 0 1-.244-.244c0-.137.107-.245.244-.245h17.698c.136 0 .244.108.244.245a.242.242 0 0 1-.244.244ZM392.508 557.339a1.464 1.464 0 0 1-1.466-1.467v-50.63a1.465 1.465 0 1 1 2.932 0v50.63c0 .812-.655 1.467-1.466 1.467ZM465.683 21.63h-55.907a1.465 1.465 0 0 1-1.466-1.466c0-.812.655-1.467 1.466-1.467h54.442v-8.244H339.689v8.244h48.216c.811 0 1.466.655 1.466 1.467s-.655 1.467-1.466 1.467h-49.682a1.465 1.465 0 0 1-1.466-1.467V8.986c0-.812.655-1.467 1.466-1.467h127.46c.812 0 1.466.655 1.466 1.467v11.178c0 .812-.654 1.467-1.466 1.467Z"/>
        <path d="M409.776-6.467h-22.33V8.985h22.33V-6.467ZM1147.27 527.542c1.25 0 2.26-1.016 2.26-2.269a2.266 2.266 0 1 0-4.53 0 2.266 2.266 0 0 0 2.27 2.269ZM1061.16 492.762c1.25 0 2.27-1.015 2.27-2.268a2.271 2.271 0 0 0-2.27-2.269 2.271 2.271 0 0 0-2.27 2.269 2.271 2.271 0 0 0 2.27 2.268ZM977.09 464.158a2.268 2.268 0 1 0 0-4.537 2.268 2.268 0 0 0 0 4.537ZM849.101 425.341a2.268 2.268 0 1 0-.002-4.536 2.268 2.268 0 0 0 .002 4.536Z"/>
        <path d="M853.695 426.456a2.268 2.268 0 1 0-.002-4.536 2.268 2.268 0 0 0 .002 4.536ZM1143.03 525.704c1.26 0 2.27-1.016 2.27-2.269a2.266 2.266 0 1 0-4.53 0 2.263 2.263 0 0 0 2.26 2.269ZM982.993 508.313a2.268 2.268 0 1 0-.002-4.536 2.268 2.268 0 0 0 .002 4.536ZM932.674 339.369a2.268 2.268 0 1 0 0-4.537 2.268 2.268 0 0 0 0 4.537ZM236.317 321.549a2.444 2.444 0 0 1-2.443-2.445v-7.726h-7.085a2.444 2.444 0 0 1-2.443-2.445V187.908a2.444 2.444 0 0 1 2.443-2.445h23.786a2.445 2.445 0 0 1 0 4.89h-21.343v116.135h7.085a2.445 2.445 0 0 1 2.443 2.445v10.171a2.445 2.445 0 0 1-2.443 2.445ZM236.317 353.802H127.355a2.446 2.446 0 0 1 0-4.89h106.519v-6.797a2.444 2.444 0 0 1 2.443-2.445 2.445 2.445 0 0 1 2.443 2.445v9.252a2.435 2.435 0 0 1-2.443 2.445v-.01ZM310.586 190.352h-39.431a2.445 2.445 0 0 1 0-4.89h36.988V-6.468a2.445 2.445 0 0 1 2.443-2.444h5.952a2.445 2.445 0 0 1 0 4.89h-3.508v191.929a2.446 2.446 0 0 1-2.444 2.445ZM1622.45 1057.09c-.68 0-1.35-.28-1.83-.82l-33.78-38.15-12.18 12.18c-.94.94-2.45.96-3.41.04-59.53-56.78-141.07-134.549-217.15-187.869-96.2-67.412-187.8-114.707-280.98-161.181a2.453 2.453 0 0 1-1.16-3.139l6.21-14.679-27.38-11.306a2.455 2.455 0 0 1-1.33-3.188 2.442 2.442 0 0 1 3.19-1.33l29.65 12.244c.6.245 1.08.724 1.33 1.33a2.54 2.54 0 0 1 0 1.878l-6.28 14.836c92.64 46.229 183.77 93.417 279.54 160.526 75.66 53.016 156.51 129.944 215.99 186.688l12.32-12.33a2.42 2.42 0 0 1 1.8-.72 2.5 2.5 0 0 1 1.76.82l33.98 38.37 98.72-77.808a2.431 2.431 0 0 1 3.43.411 2.45 2.45 0 0 1-.41 3.432l-100.53 79.235c-.45.35-.98.53-1.51.53h.01ZM1033 644.614c-.32 0-.63-.059-.93-.186l-3.74-1.545a2.452 2.452 0 0 1-1.33-3.188l27.41-66.855c-8.22-3.364-38.84-15.589-87.806-31.599-3.733-1.222-7.603-2.523-11.414-3.804-5.423-1.829-10.544-3.55-14.961-4.939a2.443 2.443 0 0 1 1.456-4.665c4.466 1.399 9.606 3.13 15.049 4.968 3.792 1.272 7.652 2.572 11.366 3.795 57.73 18.885 90.1 32.537 90.42 32.674a2.445 2.445 0 0 1 1.31 3.179l-27.41 66.854 1.49.617a2.455 2.455 0 0 1 1.33 3.188c-.4.939-1.3 1.516-2.26 1.516l.02-.01ZM920.752 526.669c-.234 0-.469-.029-.703-.108-.841-.254-1.974-.547-3.069-.831-1.075-.284-2.13-.557-2.912-.782a2.452 2.452 0 0 1-1.652-3.042 2.45 2.45 0 0 1 3.04-1.653c.733.216 1.729.48 2.755.744 1.163.303 2.355.616 3.245.88a2.454 2.454 0 0 1 1.642 3.041 2.443 2.443 0 0 1-2.336 1.741l-.01.01ZM874.207 533.867H477.655a2.444 2.444 0 0 1 0-4.89h394.764l5.326-16.87a2.438 2.438 0 0 1 2.883-1.643c.058.01 5.912 1.389 14.609 3.775a2.453 2.453 0 0 1 1.711 3.003 2.455 2.455 0 0 1-3.001 1.711 445.268 445.268 0 0 0-12.225-3.198l-5.179 16.401a2.444 2.444 0 0 1-2.326 1.711h-.01ZM451.064 558.318H247.799a2.444 2.444 0 0 1-2.443-2.445v-17.437h-3.304a2.446 2.446 0 0 1 0-4.89h5.747a2.445 2.445 0 0 1 2.443 2.445v17.437H448.62v-22.005a2.445 2.445 0 0 1 2.444-2.444h6.44a2.445 2.445 0 0 1 0 4.889h-3.997v22.005a2.445 2.445 0 0 1-2.443 2.445ZM230.58 538.425H48.443A2.445 2.445 0 0 1 46 535.98V351.357a2.445 2.445 0 0 1 2.443-2.445h35.425a2.445 2.445 0 0 1 0 4.89H50.886v179.733H230.58a2.445 2.445 0 0 1 0 4.89ZM136.531 344.864a1.464 1.464 0 0 1-1.466-1.467v-17.604a1.465 1.465 0 1 1 2.932 0v17.604c0 .812-.655 1.467-1.466 1.467Zm0-35.207a1.465 1.465 0 0 1-1.466-1.467v-2.768c0-.812.655-1.467 1.466-1.467h14.825c.811 0 1.466.655 1.466 1.467s-.655 1.467-1.466 1.467h-13.359v1.301c0 .811-.655 1.467-1.466 1.467Z"/>
        <path d="M226.788 317.001h-19.945a1.464 1.464 0 0 1-1.466-1.467c0-.812.655-1.467 1.466-1.467h18.479v-5.144c0-.812.655-1.467 1.466-1.467.811 0 1.466.655 1.466 1.467v6.611c0 .812-.655 1.467-1.466 1.467ZM247.799 557.34H225.02a1.464 1.464 0 0 1-1.466-1.467V535.99a1.464 1.464 0 1 1 2.931 0v18.416h21.314c.811 0 1.466.655 1.466 1.467s-.655 1.467-1.466 1.467ZM455.95 545.359a1.464 1.464 0 0 1-1.466-1.467v-11.491c0-.812.655-1.467 1.466-1.467h11.483c.811 0 1.466.655 1.466 1.467 0 7.149-5.805 12.958-12.949 12.958Zm1.466-11.491v8.449c4.349-.645 7.798-4.097 8.443-8.449h-8.443Z"/>
        <path d="M478.915 545.359c-7.143 0-12.948-5.809-12.948-12.958 0-.812.655-1.467 1.466-1.467h11.482c.811 0 1.466.655 1.466 1.467v11.491c0 .812-.655 1.467-1.466 1.467Zm-9.909-11.491c.645 4.352 4.095 7.804 8.443 8.449v-8.449h-8.443ZM242.053 549.8c-7.144 0-12.949-5.809-12.949-12.958 0-.812.655-1.467 1.466-1.467h11.483c.811 0 1.466.655 1.466 1.467v11.491c0 .812-.655 1.467-1.466 1.467Zm-9.909-11.491c.645 4.352 4.094 7.804 8.443 8.45v-8.45h-8.443ZM1031.26 655.684c-1.66 0-3.34-.322-4.98-.997a1.484 1.484 0 0 1-.79-1.917l4.43-10.601c.15-.362.44-.646.79-.792.36-.147.76-.147 1.12 0l10.6 4.43c.36.147.64.44.79.792.15.362.15.763 0 1.125-2.07 4.968-6.9 7.97-11.97 7.97l.01-.01Zm-2.44-3.237c4.26 1.086 8.77-.772 11.04-4.547l-7.79-3.257-3.25 7.795v.009Z"/>
        <path d="M1048.05 663.656c-.19 0-.38-.039-.57-.117a12.83 12.83 0 0 1-6.99-7.032c-1.31-3.198-1.31-6.728.03-9.916a1.475 1.475 0 0 1 1.92-.793l10.59 4.431c.36.146.65.44.79.792.15.362.15.763 0 1.124l-4.42 10.602c-.24.567-.79.9-1.35.9v.009Zm-5.29-14.542a9.96 9.96 0 0 0 .45 6.278 9.952 9.952 0 0 0 4.09 4.773l3.26-7.795-7.8-3.256ZM249.275 188.465a1.466 1.466 0 0 1-1.466-1.467v-11.491c-.01-.812.664-1.506 1.466-1.467 7.133 0 12.938 5.799 12.948 12.948a1.466 1.466 0 0 1-1.466 1.467h-11.482v.01Zm1.456-11.384v8.45h8.453c-.645-4.352-4.105-7.804-8.453-8.44v-.01Z"/>
        <path d="M272.239 188.463h-11.482a1.512 1.512 0 0 1-1.036-.44 1.464 1.464 0 0 1-.43-1.036c0-7.14 5.815-12.949 12.948-12.949.411.02.772.157 1.046.43.274.274.43.646.43 1.037v11.491a1.48 1.48 0 0 1-1.476 1.467Zm-9.909-2.943h8.444v-8.44c-4.349.635-7.809 4.088-8.454 8.44h.01ZM224.042 343.574a1.465 1.465 0 0 1-1.466-1.467c0-7.149 5.795-12.968 12.939-12.968.811 0 1.466.655 1.466 1.467v11.491c.009.391-.137.763-.421 1.037-.273.273-.645.43-1.035.43h-11.483v.01Zm10.007-11.394c-4.349.646-7.798 4.108-8.434 8.46h8.444v-8.46h-.01Z"/>
        <path d="M235.515 332.071c-7.144 0-12.939-5.829-12.939-12.968a1.47 1.47 0 0 1 1.466-1.467h11.483c.811.01 1.465.675 1.465 1.477v11.491a1.514 1.514 0 0 1-.439 1.036 1.465 1.465 0 0 1-1.036.431Zm-9.9-11.501c.636 4.352 4.085 7.814 8.434 8.459v-8.45h-8.434v-.009ZM618.894 539.794a3.44 3.44 0 0 0 3.44-3.442 3.441 3.441 0 1 0-6.88 0 3.44 3.44 0 0 0 3.44 3.442ZM754.974 553.947a3.44 3.44 0 0 0 3.44-3.442 3.442 3.442 0 0 0-3.44-3.443c-1.9 0-3.44 1.542-3.44 3.443a3.44 3.44 0 0 0 3.44 3.442ZM932.91 607.852a3.442 3.442 0 0 0 3.44-3.443 3.44 3.44 0 1 0-6.88 0 3.441 3.441 0 0 0 3.44 3.443ZM674.254 542.377a3.44 3.44 0 0 0 3.44-3.442 3.441 3.441 0 1 0-6.88 0 3.442 3.442 0 0 0 3.44 3.442ZM842.749 575.726c1.9 0 3.44-1.541 3.44-3.443a3.44 3.44 0 1 0-6.879 0 3.44 3.44 0 0 0 3.439 3.443Z"/>
    </g>
</svg>
