<?xml version="1.0" encoding="UTF-8"?>
<svg id="Layer_2" data-name="Layer 2" xmlns="http://www.w3.org/2000/svg" viewBox="0 0 257.44 257.44">
  <defs>
    <style>
      .cls-1 {
        fill: #fff;
      }
    </style>
  </defs>
  <g id="Layer_1-2" data-name="Layer 1">
    <path class="cls-1" d="m117.73,18.66l10.94,45.11,10.61,43.75,4.88-3.73,13.12-10.03-7.26,14.84-2.67,5.47,45.05,1.81,46.38,1.86-45.11,10.94-43.75,10.61,3.73,4.88,10.03,13.12-14.84-7.26-5.47-2.67-1.81,45.05-1.86,46.38-10.94-45.11-10.61-43.75-4.88,3.73-13.12,10.03,7.26-14.84,2.67-5.47-45.05-1.81-46.38-1.86,45.11-10.94,43.75-10.61-3.73-4.88-10.03-13.12,14.84,7.26,5.47,2.67,1.81-45.05,1.86-46.38m5.2,95.77l1.01-1.24,2.25-2.75.45-.92.18.15.23-.29.98,1.28,2.41,1.98,1.03.84,2.16-1.65-11.28-46.53-1.92,47.91,2.49,1.22m20.17-.53l3.43-7.01-6.24,4.77.52,2.14,2.3.09m-31.44,3.27l2.14-.52.09-2.3-7.01-3.43,4.77,6.24m12.33,2.12l-3.72-1.82-.17,4.33-4.13,1,2.48,3.25-2.8,3.41.82.4-.82.62,3.62,2.97-1.82,3.72,4.33.17,1,4.13,3.25-2.48,3.41,2.8.4-.82.62.82,2.97-3.62,3.72,1.82.17-4.33,4.13-1-2.48-3.25,2.8-3.41-.82-.4.82-.62-3.62-2.97,1.82-3.72-4.33-.17-1-4.13-3.25,2.48-3.41-2.8-.4.82-.62-.82-2.97,3.62m21.62,14.36l46.53-11.28-47.91-1.92-1.22,2.49,1.24,1.01,2.75,2.25.92.45-.15.18.29.23-1.28.98-1.98,2.41-.84,1.03,1.65,2.16m-32.4,3.36l1.22-2.49-1.24-1.01-2.75-2.25-.92-.45.15-.18-.29-.23,1.28-.98,1.98-2.41.84-1.03-1.65-2.16-46.53,11.28,47.91,1.92m37.35,9.52l-4.77-6.24-2.14.52-.09,2.3,7.01,3.43m-39.64,4.03l6.24-4.77-.52-2.14-2.3-.09-3.43,7.01m19.88-2.64l-.18-.15-.23.29-.98-1.28-2.41-1.98-1.03-.84-2.16,1.65,11.28,46.53,1.92-47.91-2.49-1.22-1.01,1.24-2.25,2.75-.45.92M115.88,0l-.74,18.55-1.86,46.38-1.65,41.07-1.89-.93-14.84-7.26-9.89-4.84,6.69,8.75,10.03,13.12,1.31,1.72-39.88,9.67-45.11,10.94-18.04,4.38,18.55.74,46.38,1.86,41.07,1.65-.93,1.89-7.26,14.84-4.84,9.89,8.75-6.69,13.12-10.03,1.72-1.31,9.67,39.88,10.94,45.11,4.38,18.04.74-18.55,1.86-46.38,1.65-41.07,1.89.93,14.84,7.26,9.89,4.84-6.69-8.75-10.03-13.12-1.31-1.72,39.88-9.67,45.11-10.94,18.05-4.38-18.55-.74-46.38-1.86-41.07-1.65.93-1.89,7.26-14.84,4.84-9.89-8.75,6.69-13.12,10.03-1.72,1.31-9.67-39.88-10.94-45.11L115.88,0h0Zm7.29,110.05l1.05-26.09,6.12,25.22-.4-.33-.8-1.04-1.99-2.61-.67.82-.71-.58-1.44,2.95-.32.65-.83,1.02h0Zm1.53,12.47l1.3-1.59.89-1.08,1.18,1.55.81-1.65.87.72,1.59,1.3,1.63-1.25.08-.06.06.26.46,1.9,1.96.08h.36s-.07.16-.07.16l-.9,1.85,1.59,1.3,1.08.89-1.55,1.18,1.65.81-.72.88-1.3,1.59,1.25,1.63.06.08-.26.06-1.9.46-.08,1.96v.36s-.16-.07-.16-.07l-1.85-.9-1.3,1.59-.89,1.08-1.18-1.55-.81,1.65-.88-.72-1.59-1.3-1.63,1.25-.08.06-.06-.26-.46-1.9-1.96-.08h-.36s.07-.16.07-.16l.9-1.85-1.59-1.3-1.08-.89,1.55-1.18-1.65-.81.72-.87,1.3-1.59-1.25-1.63-.06-.08.26-.06,1.9-.46.08-1.96v-.36s.16.07.16.07l1.85.9h0Zm23.72,1.48l-1.02-.83,26.09,1.05-25.22,6.12.33-.4,1.04-.8,2.61-1.99-.82-.67.58-.71-2.95-1.44-.65-.32h0Zm-64.46,9.23l25.22-6.12-.33.4-1.04.8-2.61,1.99.81.67-.58.71,2.95,1.44.65.32,1.02.83-26.09-1.05h0Zm49.49,15.18l.83-1.02-1.05,26.09-6.12-25.22.4.33.8,1.04,1.99,2.61.67-.81.71.58,1.44-2.95.32-.65h0Z"/>
    <polygon class="cls-1" points="141.47 134.65 192.14 122.36 139.98 120.27 146.53 106.88 134.65 115.97 122.36 65.3 120.27 117.46 106.88 110.92 115.97 122.8 65.3 135.08 117.46 137.17 110.92 150.56 122.8 141.47 135.08 192.14 137.17 139.98 150.56 146.53 141.47 134.65"/>
    <g>
      <path class="cls-1" d="m139.65,57.34c25.92,3.97,47.83,21.9,56.87,46.5.11.3.39.51.72.52l10.55.42c-9.67-31.98-38.01-55.16-71.28-58.3l2.49,10.25c.08.32.34.55.66.6Z"/>
      <path class="cls-1" d="m57.34,117.79c3.97-25.92,21.9-47.83,46.5-56.87.3-.11.51-.39.52-.72l.42-10.55c-31.98,9.67-55.16,38.01-58.3,71.28l10.25-2.49c.32-.08.55-.34.6-.66Z"/>
      <path class="cls-1" d="m200.1,139.65c-3.97,25.92-21.9,47.83-46.5,56.87-.3.11-.51.39-.52.72l-.42,10.55c31.98-9.67,55.16-38.01,58.3-71.28l-10.25,2.49c-.32.08-.55.34-.6.66Z"/>
      <path class="cls-1" d="m117.8,200.1c-25.92-3.97-47.83-21.9-56.87-46.5-.11-.3-.39-.51-.72-.52l-10.55-.42c9.67,31.98,38,55.16,71.28,58.3l-2.49-10.25c-.08-.32-.34-.55-.66-.6Z"/>
    </g>
    <g>
      <path class="cls-1" d="m133.54,31.3c42.64,2.08,79.24,32.04,89.72,73.41.11.42.47.72.9.73l2.64.11c-10.4-44.13-49.44-76.09-94.77-77.55l.62,2.56c.1.42.47.72.9.74Z"/>
      <path class="cls-1" d="m31.3,123.9c2.08-42.63,32.04-79.24,73.41-89.72.42-.11.72-.47.73-.9l.11-2.64C61.42,41.04,29.46,80.09,28,125.42l2.56-.62c.42-.1.72-.47.74-.9Z"/>
      <path class="cls-1" d="m226.14,133.54c-2.08,42.64-32.04,79.24-73.41,89.72-.42.11-.72.47-.73.9l-.11,2.64c44.14-10.4,76.09-49.44,77.55-94.78l-2.56.62c-.42.1-.72.47-.74.9Z"/>
      <path class="cls-1" d="m123.9,226.14c-42.64-2.08-79.24-32.04-89.72-73.41-.11-.42-.47-.72-.9-.73l-2.64-.11c10.4,44.13,49.44,76.09,94.77,77.55l-.62-2.56c-.1-.42-.47-.72-.9-.74Z"/>
    </g>
  </g>
</svg>