<svg width="279" height="317" fill="none" xmlns="http://www.w3.org/2000/svg">
    <path d="M218.685 268.624 143.387 134.98l79.808-86.604h23.622v-27.4h-75.744v27.4h20.214L82.274 166.654V48.376h26.558v-27.4H21.265v27.4h26.558v220.248H21.265v27.4h87.567v-27.4H82.274v-67.333l41.293-44.784 78.601 139.517h55.844v-27.4h-39.327Z" fill="#A1A1A1"/>
    <path d="M258.012 247.648h-27.083L169.16 137.97l63.237-68.618h35.394V0H150.073v62.115l-46.851 50.815V69.352h26.559V0H.291v69.352h26.558v178.296H.291V317h129.516v-69.352h-26.559v-38.176l16.176-17.568 64.444 114.398 6.004 10.672h89.088v-69.352h-20.974l.026.026Zm7.865 20.976v35.266h-68.323l-2.255-4.012-73.279-130.103-31.855 34.584v56.399h26.559v43.132H13.399v-43.132h26.56V56.242h-26.56V13.11h103.299v43.132H90.139v90.249l83.189-90.25h-10.12V13.11h91.501v43.132h-28.027l-73.594 79.866 70.212 124.65h42.604v7.866h-.027Z" fill="#A1A1A1"/>
</svg>
