<svg width="279" height="317" viewBox="0 0 279 317" fill="none" xmlns="http://www.w3.org/2000/svg">
<path d="M218.685 268.624L143.387 134.98L223.195 48.3755H246.817V20.9756H171.073V48.3755H191.287L82.2736 166.654V48.3755H108.832V20.9756H21.2646V48.3755H47.8233V268.624H21.2646V296.024H108.832V268.624H82.2736V201.291L123.567 156.507L202.168 296.024H258.012V268.624H218.685Z" fill="#A1A1A1"/>
<path d="M258.012 247.648H230.929L169.16 137.97L232.397 69.3519H267.791V0H150.073V62.1152L103.222 112.93V69.3519H129.781V0H0.290527V69.3519H26.8492V247.648H0.290527V317H129.807V247.648H103.248V209.472L119.424 191.904L183.868 306.302L189.872 316.974H278.96V247.622H257.986L258.012 247.648ZM265.877 268.624V303.89H197.554L195.299 299.878L122.02 169.775L90.1654 204.359V260.758H116.724V303.89H13.3995V260.758H39.9582V56.2419H13.3995V13.11H116.698V56.2419H90.1391V146.491L173.328 56.2419H163.208V13.11H254.709V56.2419H226.682L153.088 136.108L223.3 260.758H265.904V268.624H265.877Z" fill="#A1A1A1"/>
</svg>
