<svg width="539" height="539" viewBox="0 0 539 539" fill="none" xmlns="http://www.w3.org/2000/svg">
<g clip-path="url(#clip0_1246_2583)">
<path d="M246.491 39.0683L269.396 133.515L291.61 225.114L301.827 217.304L329.296 196.305L314.096 227.375L308.506 238.827L402.827 242.617L499.932 246.511L405.486 269.416L313.887 291.63L321.696 301.848L342.696 329.317L311.626 314.117L300.173 308.526L296.384 402.847L292.489 499.953L269.584 405.506L247.37 313.907L237.153 321.717L209.684 342.716L224.884 311.646L230.474 300.194L136.153 296.404L39.0479 292.51L133.494 269.605L225.093 247.391L217.284 237.173L196.284 209.704L227.355 224.904L238.807 230.494L242.597 136.174L246.491 39.0683ZM257.378 239.581L259.493 236.985L264.204 231.227L265.146 229.301L265.523 229.615L266.004 229.008L268.056 231.688L273.102 235.833L275.258 237.592L279.781 234.138L256.164 136.718L252.144 237.027L257.357 239.581M299.608 238.451L306.789 223.774L293.725 233.761L294.813 238.241L299.629 238.43M233.782 245.297L238.263 244.208L238.451 239.393L223.774 232.211L233.761 245.276M259.597 249.736L251.809 245.925L251.453 254.991L242.806 257.084L247.998 263.889L242.136 271.028L243.853 271.866L242.136 273.164L249.715 279.382L245.905 287.171L254.97 287.527L257.064 296.174L263.869 290.981L271.008 296.844L271.845 295.127L273.144 296.844L279.362 289.264L287.15 293.075L287.506 284.009L296.153 281.916L290.961 275.111L296.823 267.972L295.106 267.134L296.823 265.836L289.244 259.618L293.055 251.829L283.989 251.473L281.895 242.826L275.091 248.019L267.951 242.156L267.114 243.873L265.816 242.156L259.597 249.736ZM304.863 279.801L402.283 256.184L301.974 252.164L299.419 257.378L302.016 259.492L307.773 264.203L309.699 265.145L309.385 265.522L309.993 266.004L307.313 268.055L303.167 273.101L301.408 275.258L304.863 279.78M237.027 286.836L239.582 281.622L236.986 279.508L231.228 274.797L229.302 273.855L229.616 273.478L229.009 272.996L231.688 270.945L235.834 265.899L237.593 263.742L234.138 259.22L136.719 282.837L237.027 286.857M315.227 306.789L305.24 293.724L300.759 294.813L300.571 299.628L315.248 306.81M232.233 315.226L245.297 305.239L244.209 300.759L239.393 300.57L232.212 315.247M273.834 309.699L273.458 309.385L272.976 309.992L270.924 307.312L265.878 303.167L263.722 301.408L259.2 304.862L282.816 402.282L286.836 301.973L281.623 299.419L279.508 302.015L274.798 307.773L273.855 309.699M242.618 0L241.068 38.838L237.174 135.943L233.719 221.931L229.762 219.984L198.692 204.784L177.985 194.651L191.992 212.97L212.992 240.44L215.735 244.041L132.238 264.287L37.7917 287.192L0.0214844 296.362L38.8595 297.911L135.965 301.806L221.953 305.26L220.006 309.217L204.805 340.288L194.672 360.994L212.992 346.987L240.461 325.988L244.062 323.245L264.308 406.741L287.213 501.188L296.384 538.958L297.933 500.12L301.827 403.015L305.282 317.027L309.239 318.974L340.309 334.174L361.016 344.308L347.009 325.988L326.009 298.519L323.267 294.917L406.763 274.671L501.209 251.766L539.001 242.596L500.163 241.047L403.057 237.152L317.069 233.698L319.016 229.741L334.217 198.67L344.35 177.964L326.03 191.971L298.561 212.97L294.96 215.713L274.714 132.217L251.809 37.7702L242.618 0ZM257.86 230.411L260.058 175.786L272.871 228.589L272.034 227.898L270.359 225.721L266.193 220.256L264.79 221.973L263.303 220.759L260.288 226.935L259.618 228.296L257.881 230.432L257.86 230.411ZM261.084 256.519L263.806 253.19L265.669 250.929L268.14 254.174L269.836 250.72L271.657 252.227L274.986 254.949L278.399 252.332L278.566 252.206L278.692 252.75L279.655 256.728L283.759 256.896H284.512L284.366 257.231L282.481 261.104L285.81 263.826L288.072 265.689L284.826 268.16L288.281 269.856L286.774 271.698L284.052 275.027L286.669 278.44L286.794 278.608L286.25 278.733L282.272 279.696L282.105 283.8V284.554L281.77 284.407L277.896 282.523L275.174 285.852L273.311 288.113L270.841 284.868L269.145 288.322L267.302 286.815L263.973 284.093L260.56 286.71L260.393 286.836L260.267 286.291L259.304 282.313L255.201 282.146H254.447L254.593 281.811L256.478 277.938L253.149 275.216L250.888 273.352L254.133 270.882L250.678 269.186L252.186 267.364L254.908 264.035L252.29 260.623L252.165 260.455L252.709 260.33L256.687 259.367L256.855 255.263V254.509L257.19 254.656L261.063 256.54L261.084 256.519ZM310.725 259.618L308.59 257.88L363.214 260.078L310.411 272.892L311.102 272.054L313.28 270.379L318.744 266.213L317.027 264.81L318.242 263.324L312.065 260.309L310.704 259.639L310.725 259.618ZM175.787 278.943L228.59 266.129L227.899 266.967L225.721 268.642L220.257 272.808L221.953 274.211L220.738 275.697L226.915 278.712L228.276 279.382L230.411 281.12L175.787 278.922V278.943ZM279.383 310.725L281.121 308.589L278.922 363.214L266.109 310.411L266.946 311.102L268.621 313.279L272.788 318.744L274.19 317.048L275.677 318.262L278.692 312.086L279.362 310.725H279.383Z" fill="black"/>
<path d="M296.195 281.916L402.283 256.184L293.076 251.808L306.789 223.774L281.916 242.806L256.185 136.718L251.809 245.925L223.774 232.232L242.806 257.106L136.719 282.816L245.926 287.192L232.233 315.226L257.106 296.195L282.817 402.282L287.192 293.075L315.227 306.789L296.195 281.916Z" fill="black"/>
<path d="M292.383 120.052C346.651 128.364 392.524 165.904 411.451 217.409C411.681 218.037 412.268 218.477 412.959 218.498L435.047 219.377C414.801 152.421 355.466 103.889 285.809 97.3149L291.022 118.775C291.189 119.445 291.734 119.927 292.404 120.032L292.383 120.052Z" fill="black"/>
<path d="M120.052 246.616C128.364 192.348 165.904 146.475 217.409 127.548C218.037 127.318 218.476 126.732 218.497 126.041L219.377 103.952C152.42 124.198 103.889 183.533 97.3145 253.19L118.775 247.977C119.445 247.81 119.926 247.265 120.031 246.595L120.052 246.616Z" fill="black"/>
<path d="M418.948 292.384C410.636 346.653 373.096 392.526 321.591 411.453C320.963 411.683 320.523 412.269 320.502 412.96L319.623 435.048C386.579 414.802 435.111 355.467 441.685 285.81L420.225 291.023C419.555 291.191 419.073 291.735 418.969 292.405L418.948 292.384Z" fill="black"/>
<path d="M246.637 418.948C192.368 410.636 146.496 373.096 127.569 321.591C127.338 320.963 126.752 320.523 126.061 320.502L103.973 319.623C124.219 386.579 183.533 435.111 253.211 441.685L247.998 420.225C247.83 419.555 247.286 419.073 246.616 418.969L246.637 418.948Z" fill="black"/>
<path d="M279.591 65.5327C368.866 69.8876 445.495 132.615 467.437 219.231C467.667 220.11 468.421 220.738 469.322 220.759L474.849 220.989C453.074 128.595 371.337 61.6803 276.43 58.6235L277.728 63.9834C277.937 64.8627 278.712 65.4908 279.612 65.5327H279.591Z" fill="black"/>
<path d="M65.5322 259.409C69.8871 170.154 132.614 93.5044 219.23 71.5625C220.109 71.3322 220.738 70.5785 220.759 69.6782L220.989 64.1509C128.594 85.9253 61.6798 167.684 58.623 262.591L63.9829 261.293C64.8622 261.084 65.4904 260.309 65.5322 259.409Z" fill="black"/>
<path d="M473.466 279.592C469.112 368.867 406.384 445.496 319.768 467.438C318.889 467.668 318.261 468.422 318.24 469.322L318.01 474.849C410.425 453.075 477.319 371.337 480.376 276.409L475.016 277.707C474.136 277.917 473.508 278.691 473.466 279.592Z" fill="black"/>
<path d="M259.408 473.467C170.133 469.112 93.504 406.385 71.5621 319.769C71.3318 318.89 70.578 318.262 69.6777 318.241L64.1504 318.011C85.9248 410.405 167.663 477.32 262.57 480.377L261.271 475.017C261.062 474.137 260.287 473.509 259.387 473.467H259.408Z" fill="black"/>
</g>
<defs>
<clipPath id="clip0_1246_2583">
<rect width="539" height="539" fill="white"/>
</clipPath>
</defs>
</svg>
