<svg width="290" height="290" fill="none" xmlns="http://www.w3.org/2000/svg">
    <path d="M212.159 186.789h-13.362l-4.736-4.567c20.297-23.679 30.783-55.985 25.032-90.32-7.949-47.02-47.189-84.57-94.548-90.32C52.999-7.213-7.215 53 1.581 124.546c5.75 47.359 43.3 86.599 90.32 94.548 34.335 5.751 66.641-4.735 90.32-25.032l4.567 4.736v13.362l71.884 71.884c6.935 6.934 18.267 6.934 25.202 0 6.934-6.935 6.934-18.267 0-25.202l-71.715-72.053Zm-101.484 0c-42.115 0-76.112-33.997-76.112-76.113 0-42.115 33.997-76.112 76.112-76.112 42.116 0 76.113 33.997 76.113 76.112 0 42.116-33.997 76.113-76.113 76.113Z" fill="#626262"/>
</svg>
