<svg width="48" height="34" viewBox="0 0 48 34" fill="none" xmlns="http://www.w3.org/2000/svg">
<path d="M40.6847 2.85612C37.5558 1.51923 34.2328 0.543525 30.7643 0C30.3268 0.702302 29.8437 1.65542 29.5055 2.40289C25.8167 1.90375 22.1539 1.90375 18.5159 2.40289C18.1777 1.65542 17.665 0.702302 17.2571 0C13.7645 0.544286 10.4417 1.51747 7.33478 2.85612C1.05273 11.5148 -0.645141 19.9692 0.203529 28.3106C4.37573 31.1439 8.40218 32.8665 12.3581 34C13.3296 32.776 14.2019 31.4612 14.9534 30.0786C13.5229 29.5795 12.164 28.9675 10.8545 28.2426C11.1927 28.0169 11.5309 27.766 11.8503 27.5177C19.7574 30.8951 28.3217 30.8951 36.1319 27.5177C36.4701 27.7686 36.7895 28.0169 37.1277 28.2426C35.8206 28.9675 34.4599 29.5795 33.029 30.0786C33.7806 31.4607 34.6528 32.776 35.6244 34C39.5779 32.8663 43.6285 31.1439 47.7787 28.3106C48.8227 18.6547 46.1254 10.2682 40.6936 2.85612H40.6847ZM16.0394 23.1652C13.6614 23.1652 11.722 21.1486 11.722 18.6772C11.722 16.2067 13.6141 14.1893 16.0394 14.1893C18.4388 14.1893 20.4051 16.2059 20.3565 18.6772C20.3565 21.1479 18.4402 23.1652 16.0394 23.1652ZM31.9769 23.1652C29.6016 23.1652 27.6574 21.1486 27.6574 18.6772C27.6574 16.2067 29.5523 14.1893 31.9769 14.1893C34.3764 14.1893 36.3429 16.2059 36.2943 18.6772C36.2943 21.1479 34.4021 23.1652 31.9769 23.1652Z" fill="white"/>
</svg>
