<?xml version="1.0" encoding="UTF-8" standalone="no"?>
<!DOCTYPE svg PUBLIC "-//W3C//DTD SVG 1.1//EN" "http://www.w3.org/Graphics/SVG/1.1/DTD/svg11.dtd">
<svg width="100%" height="100%" viewBox="0 0 48 34" version="1.1" xmlns="http://www.w3.org/2000/svg" xmlns:xlink="http://www.w3.org/1999/xlink" xml:space="preserve" xmlns:serif="http://www.serif.com/" style="fill-rule:evenodd;clip-rule:evenodd;stroke-linejoin:round;stroke-miterlimit:2;">
    <path d="M40.685,2.856C37.556,1.519 34.233,0.544 30.764,0C30.327,0.702 29.844,1.655 29.506,2.403C25.817,1.904 22.154,1.904 18.516,2.403C18.178,1.655 17.665,0.702 17.257,0C13.765,0.544 10.442,1.517 7.335,2.856C1.053,11.515 -0.645,19.969 0.204,28.311C4.376,31.144 8.402,32.867 12.358,34C13.33,32.776 14.202,31.461 14.953,30.079C13.523,29.58 12.164,28.968 10.855,28.243C11.193,28.017 11.531,27.766 11.85,27.518C19.757,30.895 28.322,30.895 36.132,27.518C36.47,27.769 36.789,28.017 37.128,28.243C35.821,28.968 34.46,29.58 33.029,30.079C33.781,31.461 34.653,32.776 35.624,34C39.578,32.866 43.629,31.144 47.779,28.311C48.823,18.655 46.125,10.268 40.694,2.856L40.685,2.856ZM16.039,23.165C13.661,23.165 11.722,21.149 11.722,18.677C11.722,16.207 13.614,14.189 16.039,14.189C18.439,14.189 20.405,16.206 20.357,18.677C20.357,21.148 18.44,23.165 16.039,23.165ZM31.977,23.165C29.602,23.165 27.657,21.149 27.657,18.677C27.657,16.207 29.552,14.189 31.977,14.189C34.376,14.189 36.343,16.206 36.294,18.677C36.294,21.148 34.402,23.165 31.977,23.165Z" style="fill-rule:nonzero;"/>
</svg>
