<svg width="42" height="42" viewBox="0 0 42 42" fill="none" xmlns="http://www.w3.org/2000/svg">
<path fill-rule="evenodd" clip-rule="evenodd" d="M37 21C37 29.8366 29.8366 37 21 37C12.1634 37 5 29.8366 5 21C5 12.1634 12.1634 5 21 5C24.1515 5 27.0901 5.91112 29.5669 7.48433L33.0855 4.01529C33.1232 3.97805 33.1613 3.94132 33.1997 3.90511C29.761 1.44668 25.5494 0 21 0C9.40202 0 0 9.40202 0 21C0 32.598 9.40202 42 21 42C32.598 42 42 32.598 42 21C42 19.1266 41.7547 17.3105 41.2944 15.582L36.9597 19.8557C36.9864 20.2337 37 20.6152 37 21Z" fill="#2BB673"/>
<path fill-rule="evenodd" clip-rule="evenodd" d="M39.7803 7.24481C40.7496 8.22801 40.7384 9.81089 39.7552 10.7803L20.7573 29.5107L12.2448 21.1181C11.2616 20.1487 11.2504 18.5659 12.2197 17.5826C13.1891 16.5994 14.772 16.5882 15.7552 17.5576L20.7573 22.4893L36.2448 7.21975C37.228 6.25038 38.8109 6.2616 39.7803 7.24481Z" fill="#2BB673"/>
</svg>
