<svg width="42" height="42" viewBox="0 0 42 42" fill="none" xmlns="http://www.w3.org/2000/svg">
<path fill-rule="evenodd" clip-rule="evenodd" d="M21 37C29.8366 37 37 29.8366 37 21C37 12.1634 29.8366 5 21 5C12.1634 5 5 12.1634 5 21C5 29.8366 12.1634 37 21 37ZM21 42C32.598 42 42 32.598 42 21C42 9.40202 32.598 0 21 0C9.40202 0 0 9.40202 0 21C0 32.598 9.40202 42 21 42Z" fill="#8E1111"/>
<path fill-rule="evenodd" clip-rule="evenodd" d="M13.2322 13.2322C14.2085 12.2559 15.7915 12.2559 16.7678 13.2322L28.7678 25.2322C29.7441 26.2085 29.7441 27.7915 28.7678 28.7678C27.7915 29.7441 26.2085 29.7441 25.2322 28.7678L13.2322 16.7678C12.2559 15.7915 12.2559 14.2085 13.2322 13.2322Z" fill="#8E1111"/>
<path fill-rule="evenodd" clip-rule="evenodd" d="M13.2322 28.7678C12.2559 27.7915 12.2559 26.2085 13.2322 25.2322L25.2322 13.2322C26.2085 12.2559 27.7915 12.2559 28.7678 13.2322C29.7441 14.2085 29.7441 15.7915 28.7678 16.7678L16.7678 28.7678C15.7915 29.7441 14.2085 29.7441 13.2322 28.7678Z" fill="#8E1111"/>
</svg>
