<svg width="66" height="66" fill="none" xmlns="http://www.w3.org/2000/svg">
    <path d="M33 66c18.225 0 33-14.775 33-33S51.225 0 33 0 0 14.775 0 33s14.775 33 33 33Z" fill="#A1A1A1"/>
    <path d="M39.769 33.858c1.054 0 1.903-.867 1.903-1.929S40.817 30 39.769 30c-1.049 0-1.904.867-1.904 1.929s.855 1.93 1.904 1.93Zm0 1.284c-2.04 0-4.232 1.095-4.232 2.45V39H44v-1.408c0-1.355-2.193-2.45-4.231-2.45Zm-13.537-1.284c1.054 0 1.903-.867 1.903-1.929S27.28 30 26.231 30c-1.048 0-1.903.867-1.903 1.929s.855 1.93 1.904 1.93Zm0 1.284c-2.04 0-4.232 1.095-4.232 2.45V39h8.463v-1.408c0-1.355-2.193-2.45-4.232-2.45Z" fill="#fff"/>
    <path d="M33.5 32.712a2.351 2.351 0 0 0 2.353-2.36A2.351 2.351 0 0 0 33.494 28a2.355 2.355 0 1 0 .006 4.712Zm0 1.576c-2.651 0-5.5 1.41-5.5 3.141V39h11v-1.57c0-1.738-2.849-3.142-5.5-3.142ZM36 44h8v2h-8v-2Z" fill="#fff"/>
    <path d="M48.544 18H17.456C16.101 18 15 19.062 15 20.37v25.266C15 46.938 16.1 48 17.456 48h31.088C49.9 48 51 46.938 51 45.63V20.37c-.006-1.308-1.1-2.37-2.456-2.37Zm-.82 26.844H18.27V21.156h29.452v23.688Z" fill="#fff"/>
</svg>
