<svg width="66" height="66" fill="none" xmlns="http://www.w3.org/2000/svg">
    <path d="M33 66c18.225 0 33-14.775 33-33S51.225 0 33 0 0 14.775 0 33s14.775 33 33 33Z" fill="#A1A1A1"/>
    <path d="M47.6 20.52A36.206 36.206 0 0 0 38.918 18a19.95 19.95 0 0 0-1.102 2.12 35.158 35.158 0 0 0-9.616 0c-.296-.66-.744-1.5-1.101-2.12a35.65 35.65 0 0 0-8.682 2.52c-5.497 7.64-6.982 15.1-6.24 22.46 3.65 2.5 7.174 4.02 10.635 5.02.85-1.08 1.614-2.24 2.271-3.46a22.97 22.97 0 0 1-3.586-1.62c.296-.2.591-.42.871-.64 6.919 2.98 14.413 2.98 21.246 0 .296.222.576.44.872.64a22.87 22.87 0 0 1-3.587 1.62c.658 1.22 1.421 2.38 2.271 3.46 3.46-1 7.004-2.52 10.635-5.02.914-8.52-1.446-15.92-6.2-22.46H47.6ZM26.033 38.44c-2.08 0-3.777-1.78-3.777-3.96 0-2.18 1.655-3.96 3.777-3.96 2.1 0 3.82 1.78 3.778 3.96 0 2.18-1.677 3.96-3.778 3.96Zm13.946 0c-2.079 0-3.78-1.78-3.78-3.96 0-2.18 1.658-3.96 3.78-3.96 2.1 0 3.82 1.78 3.778 3.96 0 2.18-1.656 3.96-3.778 3.96Z" fill="#fff"/>
</svg>
