<svg width="66" height="66" fill="none" xmlns="http://www.w3.org/2000/svg">
    <path d="M33 66c18.225 0 33-14.775 33-33S51.225 0 33 0 0 14.775 0 33s14.775 33 33 33Z" fill="#A1A1A1"/>
    <path d="M33.002 15c-4.889 0-5.502.022-7.422.112-1.917.09-3.225.402-4.37.86a8.793 8.793 0 0 0-3.188 2.133c-1.001 1.028-1.616 2.06-2.077 3.276-.447 1.177-.75 2.522-.837 4.49C15.023 27.845 15 28.476 15 33.5c0 5.024.022 5.653.109 7.626.088 1.97.391 3.314.836 4.49.46 1.217 1.075 2.25 2.076 3.278a8.795 8.795 0 0 0 3.188 2.135c1.145.457 2.453.769 4.37.86 1.92.089 2.532.111 7.42.111 4.89 0 5.501-.022 7.421-.112 1.916-.09 3.226-.402 4.371-.86a8.788 8.788 0 0 0 3.187-2.134c1-1.029 1.616-2.06 2.077-3.277.443-1.177.746-2.522.836-4.49.087-1.974.109-2.603.109-7.627 0-5.024-.023-5.655-.109-7.628-.09-1.97-.393-3.314-.836-4.49-.461-1.217-1.076-2.25-2.078-3.277a8.777 8.777 0 0 0-3.187-2.134c-1.148-.457-2.456-.769-4.373-.86-1.92-.089-2.53-.111-7.42-.111h.005Zm-1.615 3.334h1.615c4.806 0 5.375.018 7.273.106 1.755.083 2.708.384 3.342.637.84.336 1.44.736 2.069 1.384.63.648 1.02 1.264 1.347 2.128.246.65.54 1.63.62 3.434.086 1.95.105 2.536.105 7.473 0 4.937-.019 5.523-.105 7.473-.08 1.804-.374 2.783-.62 3.434a5.737 5.737 0 0 1-1.347 2.125 5.554 5.554 0 0 1-2.069 1.384c-.633.254-1.587.555-3.342.637-1.897.089-2.467.108-7.273.108-4.807 0-5.376-.019-7.274-.108-1.755-.083-2.707-.384-3.342-.638a5.563 5.563 0 0 1-2.07-1.383c-.63-.648-1.02-1.263-1.347-2.127-.247-.65-.54-1.63-.62-3.434-.087-1.95-.104-2.536-.104-7.476 0-4.94.017-5.523.104-7.473.08-1.804.373-2.783.62-3.435.326-.863.717-1.48 1.347-2.127a5.573 5.573 0 0 1 2.07-1.385c.634-.254 1.587-.555 3.342-.638 1.66-.077 2.304-.1 5.659-.104v.005Zm11.223 3.072c-1.193 0-2.16.993-2.16 2.219s.967 2.22 2.16 2.22 2.16-.994 2.16-2.22c0-1.226-.968-2.22-2.16-2.22ZM33.002 24c-5.105 0-9.244 4.253-9.244 9.5s4.139 9.499 9.244 9.499c5.105 0 9.242-4.252 9.242-9.499 0-5.247-4.137-9.5-9.242-9.5Zm0 3.333c3.313 0 6 2.761 6 6.167 0 3.406-2.687 6.167-6 6.167-3.314 0-6-2.761-6-6.167 0-3.406 2.686-6.167 6-6.167Z" fill="#fff"/>
</svg>
