<svg width="65" height="66" viewBox="0 0 65 66" fill="none" xmlns="http://www.w3.org/2000/svg">
<path d="M32.5 66C50.4492 66 65 51.2254 65 33C65 14.7746 50.4492 0 32.5 0C14.5507 0 0 14.7746 0 33C0 51.2254 14.5507 66 32.5 66Z" fill="#A1A1A1"/>
<path d="M17 27.5299H26.0696L19.6219 21.3585L23.1896 17.6757L29.3364 24.0198V15H34.6664V24.0198L40.813 17.6901L44.3778 21.3585L37.9332 27.5155H47V32.608H37.8815L44.3694 38.9376L40.813 42.5342L32.0014 33.6438L23.1896 42.5342L19.6219 38.9522L26.1124 32.6224H17V27.5299ZM29.3219 39.9158H34.6521V52H29.3219V39.9158Z" fill="white"/>
</svg>
