<svg width="65" height="66" fill="none" xmlns="http://www.w3.org/2000/svg">
    <path d="M32.5 66C50.45 66 65 51.225 65 33S50.45 0 32.5 0 0 14.775 0 33s14.55 33 32.5 33Z" fill="#A1A1A1"/>
    <path fill-rule="evenodd" clip-rule="evenodd" d="M43.103 20.982a9.473 9.473 0 0 0 4.942 2.686c.643.13 1.298.195 1.955.194v6.333c-3.47 0-6.684-1.046-9.308-2.824v12.923C40.692 46.76 35.165 52 28.346 52c-3.459 0-6.585-1.348-8.827-3.522C17.342 46.368 16 43.48 16 40.294c0-6.382 5.387-11.571 12.086-11.703v5.04-5.04c.653-.013 1.306.023 1.954.107v6.474a5.938 5.938 0 0 0-1.713-.25c-3.12 0-5.648 2.397-5.648 5.354a5.155 5.155 0 0 0 1.152 3.241c1.032 1.284 2.661 2.113 4.495 2.113 3.113 0 5.637-2.387 5.648-5.336V15h6.718v.815c.19 1.984 1.07 3.778 2.411 5.167ZM20.74 39.122Z" fill="#fff"/>
</svg>
