<svg width="65" height="66" fill="none" xmlns="http://www.w3.org/2000/svg">
    <path d="M32.5 66C50.45 66 65 51.225 65 33S50.45 0 32.5 0 0 14.775 0 33s14.55 33 32.5 33Z" fill="#A1A1A1"/>
    <path d="m31.373 37.1-.165-7.484h1.442c.796 0 1.483-.13 2.06-.39.603-.286 1.07-.689 1.4-1.209.33-.52.494-1.117.494-1.793 0-.675-.165-1.26-.494-1.754-.302-.493-.742-.87-1.318-1.13-.577-.286-1.263-.429-2.06-.429-1.098 0-2.087.3-2.965.897-.88.572-1.58 1.39-2.101 2.455L24 23.223c.824-1.637 2.005-2.91 3.542-3.82C29.108 18.468 30.934 18 33.021 18c1.757 0 3.309.35 4.654 1.052 1.373.676 2.43 1.611 3.172 2.807.769 1.17 1.153 2.507 1.153 4.015 0 1.455-.33 2.728-.989 3.82-.659 1.09-1.565 1.988-2.718 2.69-1.153.7-2.499 1.194-4.037 1.48l1.936-2.105-.37 5.34h-4.449Zm2.183 9.9c-.961 0-1.771-.312-2.43-.935-.632-.624-.948-1.39-.948-2.3 0-.91.316-1.676.948-2.3.659-.624 1.469-.935 2.43-.935.989 0 1.799.311 2.43.935.632.624.948 1.39.948 2.3 0 .91-.316 1.676-.948 2.3-.631.623-1.441.935-2.43.935Z" fill="#fff"/>
</svg>
