<svg width="65" height="66" fill="none" xmlns="http://www.w3.org/2000/svg">
    <path d="M32.5 66C50.45 66 65 51.225 65 33S50.45 0 32.5 0 0 14.775 0 33s14.55 33 32.5 33Z" fill="#A1A1A1"/>
    <path fill-rule="evenodd" clip-rule="evenodd" d="M47.065 21.752a4.508 4.508 0 0 1 3.183 3.183C51 27.743 51 33.6 51 33.6s0 5.858-.752 8.665a4.509 4.509 0 0 1-3.183 3.183C44.258 46.2 33 46.2 33 46.2s-11.258 0-14.065-.752a4.509 4.509 0 0 1-3.183-3.183C15 39.458 15 33.6 15 33.6s0-5.858.752-8.665a4.508 4.508 0 0 1 3.183-3.183C21.743 21 33 21 33 21s11.258 0 14.065.752ZM38.753 33.6 29.4 39V28.2l9.353 5.4Z" fill="#fff"/>
</svg>
