<svg width="341" height="297" viewBox="0 0 341 297" fill="none" xmlns="http://www.w3.org/2000/svg">
<path d="M134.383 12.7369C135.399 11.3536 136.546 10.0145 138.062 9.23454C141.712 7.38033 146.067 9.27869 149.702 11.177C159.62 16.3423 170.731 23.1411 172.129 34.2369C172.923 40.5059 170.333 47.2752 172.982 53.0144C175.366 58.1797 181.458 60.7697 187.138 60.7697C196.792 60.7697 205.621 54.8245 215.274 54.3683C225.958 53.8532 236.509 60.9316 240.291 70.9237C244.072 80.9305 240.879 93.1006 232.815 100.12C228.901 103.52 223.692 106.242 222.397 111.26C220.601 118.162 227.208 123.989 231.682 129.537C237.421 136.66 240.32 146.019 239.614 155.143C239.437 157.395 239.025 159.705 237.862 161.647C236.818 163.384 235.214 164.723 233.536 165.871C225.163 171.595 214.053 173.082 204.473 169.785C195.717 166.754 187.227 159.911 178.28 162.295C169.921 164.532 165.771 173.67 159.473 179.601C155.588 183.25 150.747 185.752 145.744 187.592C140.24 189.622 134.207 190.947 128.512 189.549C122.817 188.151 117.608 183.456 117.181 177.599C116.578 169.329 124.745 163.502 129.513 156.718C131.69 153.627 132.956 148.786 129.939 146.49C128.541 145.43 126.658 145.327 124.951 144.901C116.416 142.782 112.913 130.155 119.138 123.945C120.978 122.106 123.567 120.502 123.7 117.897C123.876 114.247 119.212 112.585 115.562 112.29C104.275 111.407 92.459 112.629 82.0404 108.17C75.1094 105.197 69.4145 99.9141 64.5879 94.1307C58.687 87.0671 53.772 78.8409 52.4329 69.7464C51.0938 60.652 53.8456 50.5716 60.9973 44.8029C68.4433 38.7988 79.2297 38.4604 88.2798 41.4919C97.3298 44.5233 105.1 50.4833 112.663 56.3255C115.577 58.5771 123.523 67.4066 127.923 64.2574C131.219 61.9029 127.04 51.2927 126.672 47.6873C125.422 35.5613 126.967 22.7732 134.369 12.7075L134.383 12.7369Z" fill="url(#paint0_linear_1588_1141)"/>
<path d="M288.912 112.864C283.467 112.555 277.405 113.938 274.226 118.383C272.931 120.207 272.225 122.385 271.842 124.593C270.577 131.921 272.872 139.794 277.905 145.283C279.73 147.27 282.011 149.242 282.202 151.935C282.423 155.069 279.553 157.645 276.595 158.704C273.638 159.764 270.385 159.881 267.442 161.015C264.499 162.148 261.762 164.9 262.204 168.019C262.468 169.874 263.778 171.36 264.749 172.964C268.531 179.204 267.074 187.43 263.616 193.846C260.158 200.262 254.949 205.574 250.858 211.623C247.959 215.934 245.56 220.923 246.002 226.103C246.532 232.343 251.241 237.67 256.877 240.422C262.513 243.174 268.958 243.733 275.227 243.733C278.95 243.733 282.952 243.439 285.837 241.113C288.5 238.965 289.663 235.521 290.84 232.313C293.077 226.206 296.829 219.452 303.274 218.598C309.234 217.803 314.34 222.468 319.726 225.117C324.126 227.28 329.027 228.149 333.853 229.002C338.415 229.812 343.771 230.386 347.082 227.119C350.349 223.881 349.878 218.613 349.702 214.021C349.437 207.12 351.07 199.114 357.162 195.877C359.649 194.552 362.534 194.243 365.241 193.449C367.949 192.654 370.73 191.109 371.672 188.445C372.57 185.914 371.495 183.015 369.641 181.072C367.787 179.13 365.285 177.967 362.799 176.952C359.488 175.598 356.088 174.421 352.66 173.42C348.907 172.331 344.89 171.375 342.094 168.637C338.224 164.855 337.988 157.968 341.594 153.936C343.889 151.361 347.274 150.081 350.57 149.036C362.681 145.195 376.19 143.002 385.048 133.878C388.918 129.89 391.611 123.68 388.904 118.824C387.314 115.984 384.283 114.336 381.399 112.82C375.689 109.833 369.98 106.845 364.27 103.858C361.43 102.372 358.56 100.885 355.47 100.061C348.892 98.3248 341.932 99.7816 335.281 101.239C332.72 101.798 330.071 102.401 327.967 103.976C325.892 105.521 324.582 107.846 323.332 110.112C321.11 114.115 319.094 118.427 316.577 122.238C313.266 127.256 312.589 123.989 308.881 120.855C303.304 116.146 296.196 113.217 288.883 112.805L288.912 112.864Z" fill="url(#paint1_linear_1588_1141)"/>
<path d="M154.059 221.718C153.147 222.262 152.235 222.866 151.631 223.734C150.395 225.515 150.778 227.928 151.396 230.003C152.558 233.888 154.398 237.567 156.796 240.834C157.871 242.291 159.077 243.733 159.43 245.499C159.798 247.382 159.107 249.31 158.371 251.091C155.943 256.918 152.823 262.481 149.115 267.587C147.732 269.5 146.231 271.414 145.671 273.695C144.833 277.064 146.231 280.685 148.512 283.304C150.792 285.923 153.839 287.734 156.87 289.426C160.446 291.427 164.169 293.355 168.216 293.899C175.22 294.827 181.975 291.501 188.758 289.529C197.544 286.983 207.521 286.851 215.305 291.619C218.381 293.502 221.162 296.151 224.723 296.828C228.74 297.578 232.919 295.474 235.465 292.266C238.011 289.058 239.1 284.937 239.483 280.861C239.762 277.918 239.689 274.872 238.659 272.09C236.378 265.939 230.079 262.407 224.223 259.464C218.366 256.521 212.009 253.21 209.404 247.191C207.064 241.79 208.359 235.595 209.36 229.797C210.361 223.999 210.817 217.465 207.256 212.771C204.062 208.562 198.338 207.017 193.055 207.179C185.609 207.399 178.811 210.445 172.203 213.609C166.214 216.479 159.769 218.245 154.045 221.688L154.059 221.718Z" fill="url(#paint2_linear_1588_1141)"/>
<path d="M261.1 10.765C256.229 11.4566 251.565 13.1048 246.929 14.7383C244.663 15.533 242.367 16.357 240.44 17.7992C237.217 20.2126 235.377 24.3331 235.642 28.3358C235.907 32.3386 238.276 36.15 241.72 38.2396C244.913 40.1674 248.739 40.6236 252.389 41.3447C255.876 42.0363 259.29 43.0076 262.719 43.9788C263.631 44.2437 264.588 44.5233 265.22 45.2444C265.78 45.8772 265.971 46.7454 266.133 47.5843C266.986 52.0579 267.236 56.6345 266.898 61.1671C266.677 64.0219 266.236 66.9063 266.53 69.7612C266.913 73.5432 268.576 77.075 270.224 80.5038C271.151 82.461 272.107 84.4477 273.638 85.9781C277.346 89.716 283.306 89.819 288.544 89.2451C292.871 88.7741 297.3 87.9795 300.994 85.6691C303.245 84.2564 305.129 82.3286 307.277 80.7393C309.911 78.7967 312.943 77.3693 316.18 76.8542C319.741 76.2803 323.376 76.7954 326.981 76.8984C334.251 77.1044 341.917 75.3826 347.244 70.4528C352.586 65.5083 354.794 56.8406 350.953 50.6746C348.716 47.0839 344.846 44.7882 342.462 41.3005C339.813 37.4303 339.254 32.471 339.592 27.7913C339.931 23.1117 341.093 18.5203 341.564 13.8553C341.785 11.5891 341.829 9.20511 340.917 7.11544C338.754 2.22976 332.514 0.964186 327.187 0.537424C324.656 0.331401 322.125 0.154809 319.579 0.037082C318.461 -0.0217817 317.313 -0.0659295 316.283 0.360833C315.106 0.831742 314.238 1.84714 313.428 2.81839C307.527 9.88204 301.126 17.4019 292.223 19.7564C288.736 20.6835 284.939 20.713 281.613 19.3591C277.758 17.7845 276.949 14.2821 273.961 12.0894C270.768 9.7496 264.75 10.2941 261.1 10.8091V10.765Z" fill="url(#paint3_linear_1588_1141)"/>
<path d="M46.6514 161.927C42.6488 162.339 37.7779 163.914 37.2335 167.902C36.8656 170.609 38.7933 173.008 40.3826 175.23C41.9718 177.452 43.3698 180.44 41.9718 182.779C34.6877 186.12 26.2557 185.237 18.3094 186.223C10.363 187.209 1.50431 191.462 0.165206 199.364C-0.541136 203.47 1.07757 207.767 3.8735 210.872C6.66944 213.977 10.5102 215.979 14.4981 217.171C17.4412 218.054 20.5461 218.539 23.2685 219.952C30.0965 223.469 32.8924 231.548 35.7178 238.7C38.5431 245.852 43.1491 253.637 50.757 254.667C54.3034 255.138 57.894 254.005 61.4551 254.402C72.6094 255.653 78.6575 271.001 89.8707 270.957C96.11 270.943 101.525 265.38 102.364 259.199C103.203 253.019 100.039 246.72 95.1977 242.791C92.1222 240.289 88.3991 238.597 85.5296 235.875C82.6601 233.152 80.703 228.752 82.4688 225.191C84.7939 220.467 91.6365 220.276 95.3448 216.538C97.7288 214.139 98.494 210.519 98.3468 207.134C98.1996 203.75 97.2579 200.453 96.6987 197.113C95.492 189.873 96.11 182.485 96.2425 175.157C96.3013 171.934 96.2425 168.623 95.1241 165.606C94.0057 162.589 91.5482 159.867 88.3697 159.263C85.1029 158.645 81.8949 160.294 78.9812 161.898C74.184 164.532 68.4597 169.874 63.2798 166.724C57.3054 163.075 54.2151 161.191 46.6661 161.942L46.6514 161.927Z" fill="url(#paint4_linear_1588_1141)"/>
<defs>
<linearGradient id="paint0_linear_1588_1141" x1="52.1091" y1="99.3107" x2="241.88" y2="99.3107" gradientUnits="userSpaceOnUse">
<stop stop-color="#C964D8" stop-opacity="0"/>
<stop offset="1" stop-color="#C964D8"/>
</linearGradient>
<linearGradient id="paint1_linear_1588_1141" x1="245.943" y1="171.522" x2="390.037" y2="171.522" gradientUnits="userSpaceOnUse">
<stop stop-color="#C964D8" stop-opacity="0"/>
<stop offset="1" stop-color="#C964D8"/>
</linearGradient>
<linearGradient id="paint2_linear_1588_1141" x1="145.421" y1="252.092" x2="239.615" y2="252.092" gradientUnits="userSpaceOnUse">
<stop stop-color="#C964D8" stop-opacity="0"/>
<stop offset="1" stop-color="#C964D8"/>
</linearGradient>
<linearGradient id="paint3_linear_1588_1141" x1="235.613" y1="44.7146" x2="351.674" y2="44.7146" gradientUnits="userSpaceOnUse">
<stop stop-color="#C964D8" stop-opacity="0"/>
<stop offset="1" stop-color="#C964D8"/>
</linearGradient>
<linearGradient id="paint4_linear_1588_1141" x1="0.00333632" y1="215.022" x2="102.497" y2="215.022" gradientUnits="userSpaceOnUse">
<stop stop-color="#C964D8" stop-opacity="0"/>
<stop offset="1" stop-color="#C964D8"/>
</linearGradient>
</defs>
</svg>
