<?xml version="1.0" encoding="UTF-8"?><svg id="Floor_3" xmlns="http://www.w3.org/2000/svg" viewBox="0 0 2057.1429 1231.1209"><defs><style>.cls-1{fill:#fbcce8;}.cls-2{fill:#fffccc;}.cls-3{fill:#afd4f3;}.cls-4{fill:#efffee;}.cls-5{fill:#d2abd0;}.cls-6{fill:#ccced2;}.cls-7,.cls-8,.cls-9{fill:#fff;}.cls-10{fill:#fbd2d3;}.cls-11{font-size:8px;}.cls-11,.cls-12{font-family:CenturyGothic-Bold, 'Century Gothic';font-weight:700;}.cls-11,.cls-12,.cls-13{fill:#231f20;}.cls-14{stroke-width:3px;}.cls-14,.cls-8,.cls-15,.cls-16{stroke:#231f20;stroke-linecap:round;stroke-linejoin:round;}.cls-14,.cls-15,.cls-16{fill:none;}.cls-12{font-size:12px;}.cls-8,.cls-16{stroke-width:5px;}.cls-17{fill:#f9adb0;}.cls-18{fill:#cccffb;}.cls-19{fill:#ccfbfa;}.cls-20{fill:#d3e7f8;}.cls-9{opacity:.8;}.cls-21{fill:#dbe9c7;}.cls-22{fill:#c6d9ea;}.cls-15{stroke-width:.5px;}.cls-23{fill:#ecdbcb;}.cls-24{fill:#effdc5;}</style></defs><rect class="cls-7" x="210.7225" y="538.1147" width="97.0549" height="50.7786"/><rect class="cls-7" x="353.369" y="178.3251" width="115.8601" height="50.7786"/><path id="Floor_2_Roof" class="cls-9" d="M557.9123,396.3241c-56.4722-2.2811-92.6623-1.3062-92.6623-1.3062v260.4857s196.2761-6.2515,360.3005,38.1898c164.0247,44.4414,231.3662,73.4769,231.3662,73.4769l53.3333,22-7.3333,17.3333c105.3333,52.5,193.219,98.7515,287.8333,165,75.4971,52.8626,155,128,222.5,192.3333,0,0,9.5557-9.5556,14.3335-14.3333l36.333,41,230.8857-181.8405c-28.2959-32.4445-66.0483-73.0352-113.2891-117.0349-12.6011-11.7367-48.1914-44.4986-101.2852-86.6288-55.3262-43.9015-136.1294-103.1099-243.6665-166.6667v-257.6451h295.022V44.6703h-616.6667v45.0833h-138.1667v371.6212c-48.9362-13.2301-129.9372-31.7712-194.7822-42.619-73.9147-12.3652-144.7484-18.4264-200.6129-21.3454l-23.4427-1.0862Z"/><path class="cls-16" d="M557.9123,396.3241c-56.4722-2.2811-92.6623-1.3062-92.6623-1.3062v260.4857s196.2761-6.2515,360.3005,38.1898c164.0247,44.4414,231.3662,73.4769,231.3662,73.4769l53.3333,22-7.3333,17.3333c105.3333,52.5,193.219,98.7515,287.8333,165,75.4971,52.8626,155,128,222.5,192.3333,0,0,9.5557-9.5556,14.3335-14.3333l36.333,41,230.8857-181.8405c-28.2959-32.4445-66.0483-73.0352-113.2891-117.0349-12.6011-11.7367-48.1914-44.4986-101.2852-86.6288-55.3262-43.9015-136.1294-103.1099-243.6665-166.6667v-257.6451h295.022V44.6703h-616.6667v45.0833h-138.1667v371.6212c-48.9362-13.2301-129.9372-31.7712-194.7822-42.619-73.9147-12.3652-144.7484-18.4264-200.6129-21.3454l-23.4427-1.0862Z"/><path class="cls-8" d="M1663.9165,1190.6849l230.8857-181.8405c-28.2959-32.4445-66.0483-73.0352-113.2891-117.0349-12.6011-11.7367-48.1914-44.4986-101.2852-86.6288-55.3262-43.9015-136.1294-103.1099-243.6665-166.6667-38.658-22.7984-77.4773-44.6906-117.3177-65.1915-29.0078-14.9268-46.7119-24.4168-81.3865-38.9935l-7.9769,13.856c-43.3604-16.8018-92.9736-34.5063-137.7195-50.4054-30.8101-10.9474-69.8335-23.579-115.4109-36.2236-92.9648-25.7914-166.5686-37.8992-194.7822-42.619-166.1423-27.7939-316.7178-24.8025-316.7178-24.8025l.2088,262.3691s196.0673-7.0702,360.0917,37.3711c164.0247,44.4414,231.3662,73.4769,231.3662,73.4769l53.3333,22c105.3333,52.5,194.9931,104.347,289.6074,170.5955,75.4971,52.8626,160.2261,125.4045,227.7261,189.7378l36.333,41Z"/><path class="cls-10" d="M1716.627,1075.531l-89.0435,73.9723,36.333,41.0007,92.0879-72.5272s-12.4409-14.1113-20.4844-22.6769c-8.0425-8.5657-18.8931-19.7688-18.8931-19.7688"/><path class="cls-20" d="M1646.0923,1008.399l-82.8652,82.4237,64.3564,58.6807,89.0435-73.9723s-14.1812-14.4385-37.5981-36.8436c-23.4165-22.405-32.9365-30.2885-32.9365-30.2885"/><path class="cls-20" d="M1569.9771,943.5097l-76.9404,87.2257,70.1904,60.0872,82.8652-82.4237s-15.8955-14.1257-36.4741-31.9441c-20.5786-17.8196-39.6411-32.9452-39.6411-32.9452"/><path class="cls-20" d="M1490.2427,881.6249l-14.1982,18.5427,18.6646,13.9657-28.1001,37.2166-18.9155-14.0607-28.0889,36.5933s15.9146,11.771,31.1113,23.3122c15.1978,11.5412,42.3208,33.5408,42.3208,33.5408l76.9404-87.2257s-20.8613-17.1181-45.7075-36.5632c-24.8467-19.4451-34.0269-25.3216-34.0269-25.3216"/><path class="cls-20" d="M1410.1377,827.5152l-63.2998,96.4701s-.1216-.0807-.3594-.238l-.0693.1056,73.1953,50.0296,28.0889-36.5933-18.0747-13.4363,28.4355-37.1456,17.9902,13.4603,14.1982-18.5427-80.105-54.1097"/><polyline class="cls-18" points="1458.0542 886.7073 1429.6187 923.8528 1466.6089 951.3499 1494.709 914.1333 1458.0542 886.7073"/><path class="cls-2" d="M1213.8501,714.7742l-14.6704,28.3188-.3955-.1966-.0332.0642-22.8218-11.3548-3.52,6.0041-19.2947,37.6545-29.396-13.8629-13.04,27.9008s62.4646,30.6145,123.8391,65.7159c58.3818,33.3895,107.3262,65.6608,111.9609,68.729l63.3027-96.4726.3564.2406.0708-.1082s-56.3369-35.8365-108.9219-64.9241c-52.5854-29.0877-87.4365-47.7086-87.4365-47.7086"/><path class="cls-21" d="M1409.7813,827.2746l-63.3027,96.4726c.2378.1573.3594.238.3594.238l63.2998-96.4701-.3564-.2406"/><polyline class="cls-18" points="1146.9668 711.1614 1123.3924 761.2478 1123.7185 761.4016 1123.7454 761.3446 1153.1145 775.2645 1172.4898 737.45 1175.5376 731.411 1178.0105 726.6375 1146.9668 711.1614"/><polyline class="cls-6" points="1123.7454 761.3446 1123.7185 761.4016 1153.1145 775.2645 1123.7454 761.3446"/><polyline class="cls-18" points="1275.6797 666.221 1262.9063 689.0652 1288.103 700.9084 1300.8579 677.3748 1275.6797 666.221"/><polyline class="cls-10" points="1159.1306 685.3184 1159.1306 685.3184 1146.9668 711.1614 1178.0113 726.6379 1190.4741 702.5796 1159.1306 685.3184"/><polyline class="cls-4" points="1190.4741 702.5796 1190.4741 702.5796 1178.0113 726.6379 1178.0105 726.6375 1178.0113 726.6379 1175.5376 731.411 1175.9292 731.6059 1175.9658 731.5434 1198.7842 742.8965 1213.4219 714.6419 1190.4741 702.5796"/><polyline class="cls-24" points="1175.9658 731.5434 1175.9292 731.6059 1198.751 742.9607 1198.7842 742.8965 1175.9658 731.5434"/><polyline class="cls-22" points="1178.0105 726.6375 1175.5376 731.411 1178.0113 726.6379"/><polyline class="cls-23" points="1190.4741 702.5796 1178.0105 726.6375 1178.0113 726.6379 1190.4741 702.5796"/><polyline class="cls-4" points="1190.1157 628.3078 1179.2158 650.0161 1204.357 661.7751 1215.5469 639.8141 1190.1157 628.3078"/><polyline class="cls-10" points="1100.6616 660.5743 1056.9165 767.1705 1110.25 789.1701 1123.3924 761.2478 1123.3169 761.2122 1146.5655 710.9612 1146.9668 711.1614 1146.5655 710.9612 1159.1306 685.3184 1100.6616 660.5743"/><polyline class="cls-5" points="1146.5655 710.9612 1123.3169 761.2122 1123.3924 761.2478 1146.9668 711.1614 1146.5655 710.9612"/><polyline class="cls-17" points="1159.1306 685.3184 1146.5655 710.9612 1146.9668 711.1614 1159.1306 685.3184"/><path class="cls-20" d="M1014.3252,631.3892l-36.3853,107.3963s14.0186,4.6504,39.1091,13.2979c25.0896,8.6487,39.8674,15.0871,39.8674,15.0871l43.7451-106.5962s-21.5303-8.1566-44.9268-16.1411c-23.3965-7.9857-41.4097-13.044-41.4097-13.044"/><path class="cls-20" d="M919.7696,604.5467l-30.6904,106.9391s17.3081,5.0692,41.772,12.422c24.4624,7.3528,47.0889,14.8777,47.0889,14.8777l36.3853-107.3963s-26.1292-7.7511-47.8542-13.9813-46.7014-12.8611-46.7014-12.8611"/><path class="cls-20" d="M817.3714,579.1048l-22.1958,106.9981s20.6846,5.0331,42.8308,10.9865,51.0728,14.3964,51.0728,14.3964l30.6904-106.9391s-17.176-4.6937-49.292-12.9393c-32.115-8.2468-53.1062-12.5026-53.1062-12.5026"/><path class="cls-20" d="M709.2434,559.798l-13.2292,108.6345s32.0234,4.3604,50.5469,7.8161c18.5222,3.4556,48.6145,9.8543,48.6145,9.8543l22.1958-106.9981s-28.698-5.8115-57.4858-11.1947c-28.7893-5.382-50.6421-8.1121-50.6421-8.1121"/><path class="cls-20" d="M612.208,548.305l-6.8945,110.9976s15.8777,1.1972,44.3708,3.7576c28.4934,2.5592,46.3298,5.3723,46.3298,5.3723l13.2292-108.6345s-22.7046-3.1512-51.9426-6.7885c-29.238-3.6373-45.0928-4.7046-45.0928-4.7046"/><path class="cls-20" d="M522.0908,542.4297v113.0971s14.9729.373,43.8958,1.4752c28.9229,1.1009,39.3269,2.3005,39.3269,2.3005l6.8945-110.9976s-20.1636-1.7495-45.6609-3.6349c-25.4973-1.8854-44.4563-2.2404-44.4563-2.2404"/><polyline class="cls-10" points="522.0908 542.4297 465.25 542.4297 465.25 655.2886 522.0908 655.5268 522.0908 542.4297 522.0908 542.4297"/><path class="cls-20" d="M507.3218,394.805c-19.7649,0-42.0718.7533-42.0718.7533v109.9881s4.802-.0718,14.4524-.0718c7.251,0,17.239.0405,29.9834.1825,29.7048.3309,37.5798,1.2658,37.5798,1.2658l6.8716-110.3647s-23.3591-1.6616-43.7969-1.7471c-.9978-.0042-2.0039-.0061-3.0186-.0061"/><path class="cls-20" d="M554.1372,396.5582h0l-5.6501,90.7511h.0278c.9827,0,27.7444.0198,58.0908,2.1477,30.9202,2.1694,56.0613,4.8622,56.0613,4.8622l11.865-89.3493s-25.4841-3.3377-58.5171-5.4445c-33.0342-2.108-61.8777-2.9672-61.8777-2.9672"/><path class="cls-20" d="M674.532,404.9699h0l-11.0757,89.436s42.1138,4.725,60.5361,7.8341c18.1492,3.0616,46.8467,8.7388,47.6975,8.9072l16.8633-91.2887s-16.1641-3.097-55.9146-8.9495c-39.7505-5.8536-58.1067-5.939-58.1067-5.939"/><path class="cls-20" d="M788.5532,419.8584h0l-16.844,91.2925s-.0063-.0013-.0193-.0038l-3.2498,17.5924s30.0876,4.6492,54.3936,9.3839c24.3049,4.7358,46.8423,9.4512,46.8423,9.4512h0l24.7166-106.9427s-22.7131-5.08-52.0354-11.0154c-29.3223-5.9355-53.804-9.7581-53.804-9.7581"/><path class="cls-3" d="M788.5532,419.8584l-16.8633,91.2887c.0129.0026.0193.0038.0193.0038l16.844-91.2925h0"/><path class="cls-20" d="M894.3926,440.6319h0l-24.7166,106.9427s25.3145,5.4217,48.291,11.5496,54.0061,15.0089,54.0061,15.0089h0l32.7395-104.7709s-19.8469-6.0065-52.8293-14.6901c-32.9827-8.6835-57.4907-14.0403-57.4907-14.0403"/><path class="cls-20" d="M1004.7127,469.3622h0l-32.7395,104.7709s28.1985,8.6439,50.9995,16.5189c22.802,7.8762,55.8735,19.8145,55.8735,19.8145h0l37.7869-104.1585s-22.9561-8.5031-55.645-19.3934c-32.6887-10.8891-56.2754-17.5524-56.2754-17.5524"/><path class="cls-20" d="M1116.6331,506.308h0l-37.7869,104.1585s17.3503,6.4889,44.3972,16.9148c27.0459,10.4258,55.9724,22.6348,55.9724,22.6348l50.665-102.012s-23.1646-8.4453-55.1157-20.7133c-31.9502-12.2679-58.1321-20.9828-58.1321-20.9828"/><polyline class="cls-4" points="1237.8579 534.148 1229.8809 548.0041 1229.8809 548.0041 1190.1157 628.3078 1215.5469 639.8141 1204.357 661.7751 1262.9063 689.0652 1275.6797 666.221 1300.8579 677.3748 1349.7915 589.225 1237.8579 534.148"/><polyline class="cls-1" points="1349.7915 589.225 1349.7915 589.225 1288.103 700.9084 1329.4766 722.3196 1342.9717 698.2 1392.418 612.3688 1349.7915 589.225"/><polyline class="cls-19" points="1392.418 612.3688 1392.418 612.3688 1342.9717 698.2 1329.4766 722.3196 1367.4307 742.9607 1436.4458 638.5086 1392.418 612.3688"/><polyline class="cls-20" points="1436.4458 638.5086 1436.4458 638.5086 1367.4307 742.9607 1435.3594 784.4643 1505.1289 680.4646 1436.4458 638.5086"/><polyline class="cls-20" points="1505.1289 680.4646 1505.1289 680.4646 1446.916 767.2391 1524.2696 820.7676 1587.917 736.0001 1505.1289 680.4646"/><polyline class="cls-20" points="1587.917 736.0001 1587.917 736.0001 1524.2696 820.7676 1601.8477 878.8046 1601.8477 878.8046 1671.9131 798.4384 1587.917 736.0001"/><path class="cls-20" d="M1671.9131,798.4384h0l-70.0654,80.3662s14.8936,11.0359,37.1865,29.6929c22.2944,18.657,41.5903,35.7089,41.5903,35.7089h0l75.0166-76.5676-83.728-69.2004"/><path class="cls-20" d="M1755.6411,867.6388h0l-75.0166,76.5676s22.4448,19.8939,38.604,35.3769c16.1577,15.4817,32.9424,31.7299,32.9424,31.7299h0l79.7842-70.5528-76.314-73.1216"/><polyline class="cls-20" points="1831.9551 940.7604 1831.9551 940.7604 1752.1709 1011.3132 1752.1709 1011.3132 1734.4058 1027.4891 1792.4092 1089.3054 1894.5713 1008.399 1831.9551 940.7604"/><text class="cls-11" transform="translate(1187.3762 733.8195) rotate(-63.6105)"><tspan x="0" y="0">Janitor</tspan></text><text class="cls-11" transform="translate(1193.6467 736.9309) rotate(-63.6105)"><tspan x="0" y="0">Closet</tspan></text><g id="labels"><text class="cls-12" transform="translate(1137.3661 752.9083)"><tspan x="0" y="0">WR</tspan></text><text class="cls-12" transform="translate(1453.1147 923.8531)"><tspan x="0" y="0">WR</tspan></text><text class="cls-12" transform="translate(1252.1849 830.106)"><tspan x="0" y="0">Staff Room</tspan></text><text class="cls-12" transform="translate(1320.8995 654.2992)"><tspan x="0" y="0">Female</tspan><tspan x="0" y="12">WR</tspan></text><text class="cls-12" transform="translate(1272.2634 688.3885)"><tspan x="0" y="0">WR</tspan></text><text class="cls-12" transform="translate(1368.7337 677.9687)"><tspan x="0" y="0">Male</tspan><tspan x="0" y="12">WR</tspan></text><text class="cls-12" transform="translate(742.2264 629.5228)"><tspan x="0" y="0">304</tspan></text><text class="cls-12" transform="translate(843.5914 650.0166)"><tspan x="0" y="0">303</tspan></text><text class="cls-11" transform="translate(1185.4518 640.0819) rotate(23.4621)"><tspan x="0" y="0">Janitor</tspan><tspan x="0" y="7">Closet</tspan></text><text class="cls-12" transform="translate(1251.9327 611.3901)"><tspan x="0" y="0">314</tspan></text><text class="cls-12" transform="translate(1227.0925 627.3044)"><tspan x="0" y="0">Mechanical</tspan></text><text class="cls-12" transform="translate(1418.9912 706.8166)"><tspan x="0" y="0">318</tspan></text><text class="cls-12" transform="translate(1411.4332 722.7309)"><tspan x="0" y="0">Social</tspan><tspan x="-5.8828" y="12">Science</tspan></text><text class="cls-12" transform="translate(1505.1291 742.4428)"><tspan x="0" y="0">319</tspan></text><text class="cls-12" transform="translate(1497.5711 758.3571)"><tspan x="0" y="0">Social</tspan><tspan x="-5.8828" y="12">Science</tspan></text><text class="cls-12" transform="translate(1584.6145 797.4082)"><tspan x="0" y="0">320</tspan></text><text class="cls-12" transform="translate(1577.0565 813.3225)"><tspan x="0" y="0">Social</tspan><tspan x="-5.8828" y="12">Science</tspan></text><text class="cls-12" transform="translate(1665.7652 861.3517)"><tspan x="0" y="0">321</tspan></text><text class="cls-12" transform="translate(1658.2072 877.2659)"><tspan x="0" y="0">Social</tspan><tspan x="-5.8828" y="12">Science</tspan></text><text class="cls-12" transform="translate(1743.0015 933.2071)"><tspan x="0" y="0">322</tspan></text><text class="cls-12" transform="translate(1735.4435 949.1213)"><tspan x="0" y="0">Social</tspan><tspan x="-5.8828" y="12">Science</tspan></text><text class="cls-12" transform="translate(1804.8288 1005.9857)"><tspan x="0" y="0">323</tspan></text><text class="cls-12" transform="translate(1797.2708 1021.9)"><tspan x="0" y="0">Social</tspan><tspan x="-5.8828" y="12">Science</tspan></text><text class="cls-12" transform="translate(1627.2152 1070.994)"><tspan x="0" y="0">324</tspan></text><text class="cls-12" transform="translate(1619.6572 1086.9082)"><tspan x="0" y="0">Social</tspan><tspan x="-5.8828" y="12">Science</tspan></text><text class="cls-12" transform="translate(1557.0395 1009.4568)"><tspan x="0" y="0">325</tspan></text><text class="cls-12" transform="translate(1549.4815 1025.371)"><tspan x="0" y="0">Social</tspan><tspan x="-5.8828" y="12">Science</tspan></text><text class="cls-12" transform="translate(1395.0691 880.2779)"><tspan x="0" y="0">327</tspan></text><text class="cls-12" transform="translate(1383.5502 896.1922)"><tspan x="0" y="0">Special</tspan><tspan x="-7.5615" y="12">Education</tspan></text><text class="cls-12" transform="translate(1492.7703 951.8085)"><tspan x="0" y="0">326</tspan></text><text class="cls-12" transform="translate(1481.2514 967.7228)"><tspan x="0" y="0">Special</tspan><tspan x="-7.5615" y="12">Education</tspan></text><text class="cls-12" transform="translate(494.3842 448.0172)"><tspan x="0" y="0">307</tspan></text><text class="cls-12" transform="translate(489.7061 463.9315)"><tspan x="0" y="0">Math</tspan></text><text class="cls-12" transform="translate(596.49 442.907)"><tspan x="0" y="0">308</tspan></text><text class="cls-12" transform="translate(591.8119 458.8212)"><tspan x="0" y="0">Math</tspan></text><text class="cls-12" transform="translate(711.6438 456.13)"><tspan x="0" y="0">309</tspan></text><text class="cls-12" transform="translate(706.9657 472.0443)"><tspan x="0" y="0">Math</tspan></text><text class="cls-12" transform="translate(818.24 483.5343)"><tspan x="0" y="0">310</tspan></text><text class="cls-12" transform="translate(798.7962 499.4485)"><tspan x="0" y="0">Language</tspan></text><text class="cls-12" transform="translate(922.175 509.6263)"><tspan x="0" y="0">311</tspan></text><text class="cls-12" transform="translate(902.7313 525.5406)"><tspan x="0" y="0">Language</tspan></text><text class="cls-12" transform="translate(1029.1528 538.2901)"><tspan x="0" y="0">312</tspan></text><text class="cls-12" transform="translate(1009.7091 554.2043)"><tspan x="0" y="0">Language</tspan></text><text class="cls-12" transform="translate(1140.2731 574.5017)"><tspan x="0" y="0">313</tspan></text><text class="cls-12" transform="translate(1120.8294 590.416)"><tspan x="0" y="0">Language</tspan></text><text class="cls-12" transform="translate(643.8027 608.0418)"><tspan x="0" y="0">305</tspan></text><text class="cls-12" transform="translate(639.1246 623.956)"><tspan x="0" y="0">Math</tspan></text><text class="cls-12" transform="translate(552.4502 600.0709)"><tspan x="0" y="0">306</tspan></text><text class="cls-12" transform="translate(547.7721 615.9851)"><tspan x="0" y="0">Math</tspan></text><text class="cls-12" transform="translate(1025.2133 695.496)"><tspan x="0" y="0">301</tspan></text><text class="cls-12" transform="translate(1005.7696 711.4102)"><tspan x="0" y="0">Language</tspan></text><text class="cls-12" transform="translate(935.449 670.7498)"><tspan x="0" y="0">302</tspan></text><text class="cls-12" transform="translate(916.0052 686.664)"><tspan x="0" y="0">Language</tspan></text></g><g id="inner_borders"><polyline class="cls-14" points="1139.7922 677.0904 1158.606 685.0312 1110.25 789.1702 1056.9168 767.1702 1100.6612 660.5745 1118.0533 667.9152"/><path class="cls-14" d="M592.892,546.6247c-43.6774-3.5677-70.8015-4.1947-70.8015-4.1947v112.8589"/><path class="cls-14" d="M692.3244,557.4225c-32.6995-4.4356-62.4882-7.5794-87.682-9.7999"/><path class="cls-14" d="M799.9858,575.4801c-33.3566-6.7484-65.7416-12.1325-95.9103-16.4247"/><path class="cls-14" d="M900.5567,599.4335c-9.8153-2.5884-20.062-5.2554-30.755-8.0002-19.4693-4.9977-38.901-9.4897-58.0636-13.5267"/><path class="cls-14" d="M996.9817,626.2098c-23.3948-6.8928-51.4064-14.7895-84.6719-23.6598"/><path class="cls-14" d="M1083.4697,653.9734c-14.3163-5.1848-38.4102-13.3831-75.3379-24.4506"/><path class="cls-14" d="M1100.6612,660.5745s-1.838-.8003-5.9083-2.3823"/><line class="cls-14" x1="498.5905" y1="542.4299" x2="465.25" y2="542.4299"/><path class="cls-14" d="M1173.9949,648.0036c3.7836,1.6052,5.2206,2.2818,5.2206,2.2818l50.6649-102.2817"/><path class="cls-14" d="M1073.7003,608.5715c38.904,14.2722,70.3787,26.9996,88.5687,34.556"/><path class="cls-14" d="M965.6895,572.3215c33.8696,10.1569,66.958,21.3893,96.7571,32.1523"/><path class="cls-14" d="M484.6273,505.6565c14.7092.1616,36.4745.5576,62.639,1.5464"/><path class="cls-14" d="M465.25,505.5465s2.5782-.0276,7.6399-.0022"/><line class="cls-14" x1="977.9394" y1="738.7853" x2="1014.3257" y2="631.3886"/><line class="cls-14" x1="889.0793" y1="711.4859" x2="919.769" y2="604.5463"/><line class="cls-14" x1="795.1761" y1="686.1023" x2="817.3708" y2="579.1048"/><line class="cls-14" x1="696.0141" y1="668.4322" x2="709.2432" y2="559.7982"/><line class="cls-14" x1="605.3134" y1="659.302" x2="612.2078" y2="548.305"/><line class="cls-14" x1="554.1376" y1="396.5588" x2="547.2662" y2="506.9232"/><path class="cls-14" d="M788.5538,420.5273l-20.1136,108.2125,6.3745,1.0095,2.1923-11.8121c6.3754,1.2107,10.5622,7.3605,9.3515,13.7359"/><line class="cls-14" x1="869.6761" y1="547.5751" x2="894.3926" y2="442.2045"/><path class="cls-14" d="M1743.5494,1103.8906c9.3996,10.2406,12.4553,14.0863,12.4553,14.0863"/><path class="cls-14" d="M1659.2733,1020.3525c30.5592,27.9104,52.037,49.4926,68.2036,66.3815"/><path class="cls-14" d="M1584.6145,955.4686c25.2372,20.8416,46.5922,39.4554,66.1647,57.156"/><path class="cls-14" d="M1405.1508,824.4453c7.9671,4.9176,1.192.6342,9.0956,5.6605"/><path class="cls-14" d="M1182.3882,651.7296c-1.3924-.6344-1.7494-.7967-3.1727-1.4442"/><path class="cls-14" d="M1230.5048,673.8562c-10.947-5.0921-23.0464-10.6748-37.2013-17.1448"/><path class="cls-14" d="M1273.718,694.1974c-6.8099-3.24-13.9377-6.6206-21.8935-10.3656"/><path class="cls-14" d="M1314.7163,714.479c-12.984-6.6471-20.573-10.5448-30.2658-15.1683"/><path class="cls-14" d="M1372.7131,746.1189c-10.0922-5.9996-13.7545-8.4223-29.582-17.022"/><path class="cls-14" d="M1382.4485,752.7546c19.4389,11.3899,32.7709,18.6472,53.4641,32.068l69.2161-104.358"/><path class="cls-14" d="M1777.1745,1072.0422c-9.3333-10.2088-24.5212-26.2656-42.7695-44.5526"/><path class="cls-14" d="M1791.9317,1088.6416s-2.0239-2.4361-7.0026-8.015"/><path class="cls-14" d="M1227.5893,722.1592c20.0996,10.7113,46.099,24.787,73.9299,40.5669"/><path class="cls-14" d="M1204.7462,710.0702c3.6393,1.9137,7.6222,4.0114,12.4051,6.544"/><path class="cls-14" d="M1190.5122,702.5057s-.6964-.4294,3.835,1.9254"/><polygon class="cls-14" points="1158.606 685.0312 1146.5657 710.9608 1177.6734 727.2888 1190.5122 702.5056 1158.606 685.0312"/><polyline class="cls-14" points="1213.4218 714.6419 1198.5234 743.4006 1175.5378 731.4112 1177.6734 727.2888"/><line class="cls-14" x1="1177.6734" y1="727.2888" x2="1158.606" y2="685.0312"/><line class="cls-14" x1="1146.5657" y1="710.9608" x2="1190.5122" y2="702.5056"/><line class="cls-14" x1="1179.2155" y1="787.7077" x2="1194.5838" y2="757.0691"/><line class="cls-14" x1="1179.2155" y1="787.7077" x2="1123.317" y2="761.2123"/><polyline class="cls-14" points="1183.7169 827.2751 1219.9077 758.7199 1212.3482 754.8962"/><line class="cls-14" x1="1346.9272" y1="923.5154" x2="1409.7805" y2="827.2751"/><polyline class="cls-14" points="1269.7278 764.6501 1262.9249 776.3195 1285.8691 789.5714"/><line class="cls-14" x1="1278.4154" y1="749.7478" x2="1275.639" y2="754.5103"/><path class="cls-14" d="M1285.8691,789.5714l15.6501-26.8453s27.332,15.4708,47.6511,27.5076c20.319,12.0368,46.2676,27.8363,46.2676,27.8363-3.6308,5.3785-2.3029,12.9829,3.0757,16.6138l6.6373-10.2383"/><line class="cls-14" x1="1429.9506" y1="923.5154" x2="1464.6191" y2="878.1077"/><line class="cls-14" x1="1401.4309" y1="960.8695" x2="1422.7219" y2="932.9833"/><line class="cls-14" x1="1466.6089" y1="950.9438" x2="1501.6043" y2="905.1013"/><line class="cls-14" x1="1438.4376" y1="987.8472" x2="1456.7502" y2="963.8583"/><line class="cls-14" x1="1493.0366" y1="1030.7358" x2="1569.9771" y2="943.5102"/><line class="cls-14" x1="1563.2267" y1="1090.4328" x2="1646.2623" y2="1008.6631"/><line class="cls-14" x1="1627.5835" y1="1149.5036" x2="1715.7592" y2="1076.3931"/><line class="cls-14" x1="1367.4309" y1="742.9606" x2="1436.5615" y2="638.3327"/><line class="cls-14" x1="1831.9553" y1="940.7598" x2="1734.4051" y2="1027.4896"/><path id="door" class="cls-14" d="M498.5905,542.43v11.75c6.4893,0,11.75-5.2606,11.75-11.75"/><path id="door-2" class="cls-14" d="M522.0905,542.43v11.75c-6.4893,0-11.75-5.2606-11.75-11.75"/><path id="door-3" class="cls-14" d="M1251.8245,683.8317l5.1489-10.6983c-5.841-2.8274-12.8681-.3845-15.6956,5.4565"/><path id="door-4" class="cls-14" d="M1230.5048,673.8562l5.3164-10.9618c5.841,2.8274,8.284,9.8545,5.4566,15.6956"/><path id="door-5" class="cls-14" d="M1784.9291,1080.6265l10.0495-7.8832c-3.9891-5.1185-12.6856-4.6902-17.804-.7011"/><path id="door-6" class="cls-14" d="M1727.4769,1086.7339l-8.563,7.961c4.4185,4.7527,11.8533,5.0236,16.606.605"/><path id="door-7" class="cls-14" d="M1650.7791,1012.6245l-8.2433,8.6362c4.7933,4.3744,12.363,3.885,16.7375-.9083"/><path id="door-8" class="cls-14" d="M1556.4541,932.2959c-20.4998-16.5978-42.3048-33.3721-65.5356-50.1829-22.8071-16.5041-45.1641-31.7202-66.8867-45.7439"/><path id="door-9" class="cls-14" d="M1584.6143,955.4686c-4.1851,4.9593-12.0112,5.7984-16.9707,1.6131l8.0034-8.9867c-3.387-2.8347-6.7211-5.6015-10.1877-8.4516"/><path id="door-10" class="cls-14" d="M1414.2464,830.1058l-6.6361,10.2391c5.5104,3.4273,12.9943,1.5347,16.4216-3.9758"/><path id="door-11" class="cls-14" d="M1461.526,861.3673c-3.6046,5.3961-2.303,13.1358,3.0932,16.7404"/><path id="door-12" class="cls-14" d="M1518.4807,902.5339c-3.8957,5.1899-11.6865,6.4631-16.8764,2.5674"/><path id="door-13" class="cls-14" d="M1565.4593,939.6434l-8.3021,9.5903c-4.8239-4.3407-5.0438-12.1139-.7031-16.9378"/><path id="door-14" class="cls-14" d="M1439.8613,931.3926c-4.1161,5.0169-12.1225,5.7068-17.1395,1.5908"/><g id="staircase"><rect class="cls-15" x="1683.3947" y="1112.0022" width="23.6319" height="2.9816" transform="translate(1479.713 -903.2287) rotate(50.602)"/><rect class="cls-15" x="1681.0773" y="1113.9056" width="23.6319" height="2.9816" transform="translate(1480.3373 -900.7426) rotate(50.602)"/><rect class="cls-15" x="1678.7732" y="1115.798" width="23.6319" height="2.9816" transform="translate(1480.958 -898.2709) rotate(50.602)"/><rect class="cls-15" x="1676.4559" y="1117.7014" width="23.6319" height="2.9816" transform="translate(1481.5823 -895.7848) rotate(50.602)"/><rect class="cls-15" x="1674.1518" y="1119.5939" width="23.6319" height="2.9816" transform="translate(1482.2031 -893.313) rotate(50.602)"/><rect class="cls-15" x="1671.8344" y="1121.4972" width="23.6319" height="2.9816" transform="translate(1482.8274 -890.827) rotate(50.602)"/><rect class="cls-15" x="1669.5304" y="1123.3897" width="23.6319" height="2.9816" transform="translate(1483.4481 -888.3552) rotate(50.602)"/><rect class="cls-15" x="1667.213" y="1125.2931" width="23.6319" height="2.9816" transform="translate(1484.0724 -885.8691) rotate(50.602)"/><rect class="cls-15" x="1664.8956" y="1127.1965" width="23.6319" height="2.9816" transform="translate(1484.6968 -883.383) rotate(50.602)"/><rect class="cls-15" x="1662.5782" y="1129.0999" width="23.6319" height="2.9816" transform="translate(1485.3211 -880.8969) rotate(50.602)"/><rect class="cls-15" x="1660.2741" y="1130.9923" width="23.6319" height="2.9816" transform="translate(1485.9418 -878.4252) rotate(50.602)"/><rect class="cls-15" x="1657.9567" y="1132.8957" width="23.6319" height="2.9816" transform="translate(1486.5661 -875.9391) rotate(50.602)"/><rect class="cls-15" x="1655.6394" y="1134.7991" width="23.6319" height="2.9816" transform="translate(1487.1905 -873.453) rotate(50.602)"/><rect class="cls-15" x="1653.322" y="1136.7025" width="23.6319" height="2.9816" transform="translate(1487.8148 -870.9669) rotate(50.602)"/><rect class="cls-15" x="1651.0179" y="1138.5949" width="23.6319" height="2.9816" transform="translate(1488.4355 -868.4952) rotate(50.602)"/><rect class="cls-15" x="1648.7005" y="1140.4983" width="23.6319" height="2.9816" transform="translate(1489.0598 -866.0091) rotate(50.602)"/></g><polyline class="cls-15" points="1718.8634 1139.9378 1711.9379 1145.626 1696.9386 1127.3643 1703.8641 1121.6761"/><rect class="cls-15" x="1691.4551" y="1135.9631" width="23.6319" height="2.9816" transform="translate(1501.1734 -900.7046) rotate(50.602)"/><rect class="cls-15" x="1689.1511" y="1137.8556" width="23.6319" height="2.9816" transform="translate(1501.7941 -898.2329) rotate(50.602)"/><rect class="cls-15" x="1686.8337" y="1139.7589" width="23.6319" height="2.9816" transform="translate(1502.4184 -895.7468) rotate(50.602)"/><rect class="cls-15" x="1684.5296" y="1141.6514" width="23.6319" height="2.9816" transform="translate(1503.0391 -893.275) rotate(50.602)"/><rect class="cls-15" x="1682.2122" y="1143.5548" width="23.6319" height="2.9816" transform="translate(1503.6635 -890.7889) rotate(50.602)"/><rect class="cls-15" x="1679.8948" y="1145.4582" width="23.6319" height="2.9816" transform="translate(1504.2878 -888.3028) rotate(50.602)"/><rect class="cls-15" x="1677.5774" y="1147.3616" width="23.6319" height="2.9816" transform="translate(1504.9121 -885.8168) rotate(50.602)"/><rect class="cls-15" x="1675.2734" y="1149.254" width="23.6319" height="2.9816" transform="translate(1505.5328 -883.345) rotate(50.602)"/><rect class="cls-15" x="1672.956" y="1151.1574" width="23.6319" height="2.9816" transform="translate(1506.1571 -880.8589) rotate(50.602)"/><rect class="cls-15" x="1670.6386" y="1153.0608" width="23.6319" height="2.9816" transform="translate(1506.7815 -878.3728) rotate(50.602)"/><rect class="cls-15" x="1666.019" y="1153.8561" width="23.6319" height="8.9793" transform="translate(1508.0249 -873.4169) rotate(50.602)"/><path id="door-15" class="cls-14" d="M1735.5199,1095.2999c-4.7527,4.4186-5.0235,11.8533-.6049,16.606l8.6344-8.0153"/><path id="door-16" class="cls-14" d="M1118.0533,667.9152l-4.6176,11.0041c5.978,2.5249,12.871-.2744,15.3959-6.2524"/><path id="door-17" class="cls-14" d="M1139.7922,677.0904l-4.7081,10.9723c-5.978-2.5249-8.7773-9.4178-6.2524-15.3958"/><path id="door-18" class="cls-14" d="M1372.7131,746.1189l6.5012-9.864c5.4359,3.5444,6.7786,11.0638,3.2342,16.4997"/><path id="door-19" class="cls-14" d="M1748.0423,1007.5304l8.8715-7.7401c-4.1677-4.9741-11.992-6.0765-17.9782-1.2629"/><path id="door-20" class="cls-14" d="M1676.6385,940.676l8.4698-8.6256c-4.5468-4.6301-12.4589-5.0362-18.0471.2342"/><path id="door-21" class="cls-14" d="M1597.4507,875.4161l8.034-9.1494c-4.8048-4.3618-12.9334-4.2103-18.2102,1.3719"/><path id="door-22" class="cls-14" d="M1452.7845,771.2065l6.9947-10.5552c5.4723,3.4879,7.8193,11.37,3.8221,17.9295"/><path id="door-23" class="cls-14" d="M1275.639,754.5103l-10.1898-6.0333c-3.2649,5.6082-1.3296,12.9083,4.2786,16.1732"/><path id="door-24" class="cls-14" d="M1204.7462,710.0702c3.0841-5.7096.924-12.9675-4.7856-16.0516l-5.6133,10.4125"/><path id="door-25" class="cls-14" d="M1193.3035,656.7114c-2.9442,5.783-10.606,8.5989-16.389,5.6548l5.4738-10.6366"/><path id="door-26" class="cls-14" d="M1273.718,694.1974c-3.1187,5.6908-1.1016,13.5526,4.5892,16.6714l6.1432-11.558"/><path id="door-27" class="cls-14" d="M1227.5893,722.1592c-2.9606,5.7746-10.1663,8.0639-15.9409,5.1033l5.5029-10.6483"/><path id="door-28" class="cls-14" d="M965.6895,572.3215l3.4057-11.3784c-6.217-1.8603-13.0074,1.7734-14.8678,7.9904,0,0-21.8732-6.1845-42.7996-11.4851s-36.9356-8.8117-36.9356-8.8117c-29.9909-6.6068-59.5847-12.2093-88.1338-16.9636"/><path id="door-29" class="cls-14" d="M1073.7003,608.5715l4.1155-11.2499c-6.0973-2.2213-13.148,1.0549-15.3692,7.1523"/><path id="door-30" class="cls-14" d="M1173.9949,648.0036l5.2206-10.7816c-5.8445-2.8203-14.1262.0611-16.9465,5.9056"/><path id="door-31" class="cls-14" d="M1094.7529,658.1922l-4.769,11.3849c-5.9944-2.4857-8.9998-9.6093-6.5142-15.6037"/><path id="door-32" class="cls-14" d="M1008.1318,629.5228l-3.7777,11.478c-6.1448-2.0863-9.4587-8.6462-7.3724-14.791"/><path id="door-33" class="cls-14" d="M912.3098,602.55l-3.2453,11.5111c-6.2369-1.7923-10.3001-8.3907-8.5077-14.6276"/><path id="door-34" class="cls-14" d="M799.9858,575.4801c-1.3091,6.3559,3.0261,12.6484,9.3821,13.9575l2.3703-11.531"/><path id="door-35" class="cls-14" d="M704.0755,559.0553l-1.3937,11.6823c-6.4435-.7697-11.1272-6.8716-10.3575-13.3151"/><path id="door-36" class="cls-14" d="M604.6424,547.6225l-.76,11.7726c-6.4758-.4198-11.4101-6.2946-10.9904-12.7704"/><path id="door-37" class="cls-14" d="M484.6273,505.6565c0-6.4893-5.248-12.2235-11.7373-12.2234v12.1112"/><path id="door-38" class="cls-14" d="M565.7966,487.7354c.4208-6.4757-4.3979-12.5095-10.8736-12.9303l-.7853,12.5046"/><path id="door-39" class="cls-14" d="M680.3763,496.1906c.73-6.4482-3.8396-12.7363-10.2877-13.4663l-1.3625,12.1445"/><rect class="cls-15" x="494.4463" y="590.499" width="23.6319" height="3.1737"/><rect class="cls-15" x="494.4463" y="593.6911" width="23.6319" height="3.1737"/><rect class="cls-15" x="494.4463" y="596.8648" width="23.6319" height="3.1737"/><rect class="cls-15" x="494.4463" y="600.0569" width="23.6319" height="3.1737"/><rect class="cls-15" x="494.4463" y="603.249" width="23.6319" height="3.1737"/><rect class="cls-15" x="494.4463" y="606.4411" width="23.6319" height="3.1737"/><rect class="cls-15" x="494.4463" y="609.6148" width="23.6319" height="3.1737"/><rect class="cls-15" x="494.4463" y="612.8069" width="23.6319" height="3.1737"/><rect class="cls-15" x="494.4463" y="615.999" width="23.6319" height="3.1737"/><rect class="cls-15" x="494.4463" y="619.1911" width="23.6319" height="3.1737"/><rect class="cls-15" x="494.4463" y="622.3648" width="23.6319" height="3.1737"/><rect class="cls-15" x="494.4463" y="625.5569" width="23.6319" height="3.1737"/><polyline class="cls-15" points="494.4466 590.4964 494.4466 600.0359 470.8147 600.036 470.8147 590.4964"/><rect class="cls-15" x="470.8144" y="600.0569" width="23.6319" height="3.1737"/><rect class="cls-15" x="470.8144" y="603.249" width="23.6319" height="3.1737"/><rect class="cls-15" x="470.8144" y="606.4411" width="23.6319" height="3.1737"/><rect class="cls-15" x="470.8144" y="609.6148" width="23.6319" height="3.1737"/><rect class="cls-15" x="470.8144" y="612.8069" width="23.6319" height="3.1737"/><rect class="cls-15" x="470.8144" y="615.999" width="23.6319" height="3.1737"/><rect class="cls-15" x="470.8147" y="619.1701" width="23.6319" height="9.5579"/><g id="staircase-2"><rect class="cls-15" x="1113.634" y="714.2881" width="23.6319" height="2.9816" transform="translate(403.7897 -405.9089) rotate(24.7879)"/><rect class="cls-15" x="1112.3767" y="717.0106" width="23.6319" height="2.9816" transform="translate(404.8153 -405.1309) rotate(24.7879)"/><rect class="cls-15" x="1111.1266" y="719.7175" width="23.6319" height="2.9816" transform="translate(405.835 -404.3574) rotate(24.7879)"/><rect class="cls-15" x="1109.8693" y="722.4401" width="23.6319" height="2.9816" transform="translate(406.8606 -403.5794) rotate(24.7879)"/><rect class="cls-15" x="1108.6192" y="725.147" width="23.6319" height="2.9816" transform="translate(407.8804 -402.8059) rotate(24.7879)"/><rect class="cls-15" x="1107.3619" y="727.8696" width="23.6319" height="2.9816" transform="translate(408.906 -402.0279) rotate(24.7879)"/><rect class="cls-15" x="1106.1119" y="730.5764" width="23.6319" height="2.9816" transform="translate(409.9257 -401.2545) rotate(24.7879)"/><rect class="cls-15" x="1104.8546" y="733.299" width="23.6319" height="2.9816" transform="translate(410.9513 -400.4765) rotate(24.7879)"/><rect class="cls-15" x="1103.5973" y="736.0216" width="23.6319" height="2.9816" transform="translate(411.977 -399.6985) rotate(24.7879)"/><rect class="cls-15" x="1102.34" y="738.7442" width="23.6319" height="2.9816" transform="translate(413.0026 -398.9205) rotate(24.7879)"/><rect class="cls-15" x="1101.0899" y="741.4511" width="23.6319" height="2.9816" transform="translate(414.0223 -398.147) rotate(24.7879)"/><rect class="cls-15" x="1099.8326" y="744.1736" width="23.6319" height="2.9816" transform="translate(415.0479 -397.369) rotate(24.7879)"/><rect class="cls-15" x="1098.5753" y="746.8962" width="23.6319" height="2.9816" transform="translate(416.0735 -396.5911) rotate(24.7879)"/><rect class="cls-15" x="1097.318" y="749.6188" width="23.6319" height="2.9816" transform="translate(417.0992 -395.8131) rotate(24.7879)"/><rect class="cls-15" x="1096.0679" y="752.3257" width="23.6319" height="2.9816" transform="translate(418.1189 -395.0396) rotate(24.7879)"/><rect class="cls-15" x="1094.8106" y="755.0482" width="23.6319" height="2.9816" transform="translate(419.1445 -394.2616) rotate(24.7879)"/></g><polyline class="cls-15" points="1115.349 709.469 1111.5916 717.6053 1090.137 707.6974 1093.8944 699.5611"/><rect class="cls-15" x="1088.4147" y="712.5322" width="23.6319" height="2.9816" transform="translate(400.7299 -395.4972) rotate(24.7879)"/><rect class="cls-15" x="1087.1646" y="715.2391" width="23.6319" height="2.9816" transform="translate(401.7497 -394.7237) rotate(24.7879)"/><rect class="cls-15" x="1085.9073" y="717.9616" width="23.6319" height="2.9816" transform="translate(402.7753 -393.9457) rotate(24.7879)"/><rect class="cls-15" x="1084.6573" y="720.6685" width="23.6319" height="2.9816" transform="translate(403.795 -393.1722) rotate(24.7879)"/><rect class="cls-15" x="1083.4" y="723.3911" width="23.6319" height="2.9816" transform="translate(404.8206 -392.3943) rotate(24.7879)"/><rect class="cls-15" x="1082.1426" y="726.1137" width="23.6319" height="2.9816" transform="translate(405.8463 -391.6163) rotate(24.7879)"/><rect class="cls-15" x="1080.8853" y="728.8362" width="23.6319" height="2.9816" transform="translate(406.8719 -390.8383) rotate(24.7879)"/><rect class="cls-15" x="1079.6353" y="731.5431" width="23.6319" height="2.9816" transform="translate(407.8916 -390.0648) rotate(24.7879)"/><rect class="cls-15" x="1078.378" y="734.2657" width="23.6319" height="2.9816" transform="translate(408.9172 -389.2868) rotate(24.7879)"/><rect class="cls-15" x="1077.1207" y="736.9883" width="23.6319" height="2.9816" transform="translate(409.9428 -388.5088) rotate(24.7879)"/><rect class="cls-15" x="1074.611" y="739.4328" width="23.6319" height="8.9621" transform="translate(411.9894 -386.9554) rotate(24.7878)"/><line class="cls-14" x1="1078.8464" y1="610.2182" x2="1116.6335" y2="506.3084"/><line class="cls-14" x1="971.9727" y1="574.1327" x2="1004.7126" y2="469.3623"/><path class="cls-14" d="M680.3763,496.1906c54.8802,6.502,91.3333,14.96,91.3333,14.96"/><path class="cls-14" d="M565.7966,487.7354c19.6679.6584,54.4261,2.3178,95.7295,6.4737,2.8533.2871,4.4306.3603,7.2.6598"/><path class="cls-14" d="M548.4874,487.3097s1.8878.0149,5.6502.0979"/><line class="cls-14" x1="663.456" y1="494.4053" x2="674.5895" y2="404.5103"/><polyline class="cls-14" points="1204.7252 661.9443 1215.7998 639.9279 1190.1151 628.3073"/><line class="cls-14" x1="1287.7938" y1="700.9089" x2="1349.7914" y2="589.2248"/><polyline class="cls-14" points="1262.9061 689.0646 1275.6795 666.2214 1300.8579 677.375"/><line class="cls-14" x1="1392.4719" y1="612.817" x2="1343.131" y2="698.2827"/><line class="cls-14" x1="1316.8104" y1="684.5409" x2="1369.4517" y2="712.0245"/><path class="cls-14" d="M1748.0423,1007.5304c2.7418,2.743,4.129,4.1637,4.129,4.1637"/><path class="cls-14" d="M1676.6385,940.676c27.2757,24.0798,49.2236,45.0541,62.2971,57.8514"/><path class="cls-14" d="M1597.4507,875.4161c4.1383,3.1804,8.0413,6.2027,12.1644,9.4199,20.4436,15.9518,39.8252,32.1288,57.446,47.4486"/><path class="cls-14" d="M1463.6013,778.5809c24.5165,16.7994,73.2303,50.7018,123.6732,89.0578"/><path class="cls-14" d="M1447.3676,767.5517s1.6974,1.133,5.4169,3.6548"/><line class="cls-14" x1="1524.2691" y1="821.1615" x2="1587.9166" y2="736.0003"/><line class="cls-14" x1="1601.8477" y1="878.8049" x2="1671.9136" y2="798.4386"/><line class="cls-14" x1="1680.6241" y1="944.2069" x2="1755.6404" y2="868.138"/><line class="cls-14" x1="1458.0537" y1="886.7068" x2="1494.7094" y2="914.1332"/><line class="cls-14" x1="1449.8042" y1="938.3702" x2="1466.6089" y2="950.9438"/><line class="cls-14" x1="1429.9506" y1="923.5154" x2="1439.9273" y2="931.445"/><polyline class="cls-14" points="1414.3076 944.004 1437.6725 960.8137 1435.832 965.8199"/><circle class="cls-13" cx="620.4463" cy="513.4422" r="6.0736"/><circle class="cls-13" cx="719.9693" cy="523.6569" r="6.0736"/><circle class="cls-13" cx="1505.8141" cy="850.5751" r="6.0736"/><circle class="cls-13" cx="1588.8205" cy="909.1638" r="6.0736"/><circle class="cls-13" cx="1670.8059" cy="976.4545" r="6.0736"/><line class="cls-14" x1="1152.6863" y1="775.1331" x2="1166.8631" y2="748.0085"/><path id="door-40" class="cls-14" d="M1166.77,748.0085l-10.4125-5.6133c3.0841-5.7096,10.3419-7.8697,16.0516-4.7856l3.1287-6.1984"/></g><g id="Outer_borders"><path class="cls-16" d="M1663.9165,1190.5036l230.8857-181.8405c-28.2959-32.4445-66.0483-73.0352-113.2891-117.0349-12.6011-11.7367-48.1914-44.4986-101.2852-86.6288-55.3262-43.9015-136.1294-103.1099-243.6665-166.6667-38.658-22.7984-77.4773-44.6906-117.3177-65.1915-29.0078-14.9268-46.7119-24.4168-81.3865-38.9935l-7.9769,13.856c-43.3604-16.8018-92.9736-34.5063-137.7195-50.4054-30.8101-10.9474-69.8335-23.579-115.4109-36.2236-92.9648-25.7914-166.5686-37.8992-194.7822-42.619-166.1423-27.7939-316.7178-24.6212-316.7178-24.6212v261.3691s196.2761-6.2515,360.3005,38.1898c164.0247,44.4414,231.3662,73.4769,231.3662,73.4769l53.3333,22c105.3333,52.5,194.9931,104.347,289.6074,170.5955,75.4971,52.8626,160.2261,125.4045,227.7261,189.7378l36.333,41Z"/></g></svg>