<?xml version="1.0" encoding="UTF-8" standalone="no"?>
<!DOCTYPE svg PUBLIC "-//W3C//DTD SVG 1.1//EN" "http://www.w3.org/Graphics/SVG/1.1/DTD/svg11.dtd">
<svg width="100%" height="100%" viewBox="0 0 2069 1231" version="1.1" xmlns="http://www.w3.org/2000/svg" xmlns:xlink="http://www.w3.org/1999/xlink" xml:space="preserve" xmlns:serif="http://www.serif.com/" style="fill-rule:evenodd;clip-rule:evenodd;stroke-linecap:round;stroke-linejoin:round;">
    <g>
        <path d="M572.16,388.51C515.69,386.23 479.5,387.2 479.5,387.2L479.5,647.69C479.5,647.69 675.78,641.44 839.8,685.88C1003.82,730.32 1071.17,759.36 1071.17,759.36L1124.5,781.36L1117.17,798.69C1222.5,851.19 1310.39,897.44 1405,963.69C1480.5,1016.55 1560,1091.69 1627.5,1156.02C1627.5,1156.02 1637.06,1146.46 1641.83,1141.69L1678.16,1182.69L1909.05,1000.85C1880.75,968.41 1843,927.81 1795.76,883.82C1783.16,872.08 1747.57,839.32 1694.47,797.19C1639.14,753.29 1558.34,694.08 1450.8,630.52L1450.8,372.87L1745.82,372.87L1745.82,36.85L1129.15,36.85L1129.15,81.93L990.98,81.93L990.98,453.55C942.04,440.32 861.04,421.78 796.2,410.93C722.29,398.56 651.45,392.5 595.59,389.58L572.15,388.49L572.16,388.51Z" style="fill:white;fill-opacity:0.8;fill-rule:nonzero;"/>
        <path d="M572.16,388.51C515.69,386.23 479.5,387.2 479.5,387.2L479.5,647.69C479.5,647.69 675.78,641.44 839.8,685.88C1003.82,730.32 1071.17,759.36 1071.17,759.36L1124.5,781.36L1117.17,798.69C1222.5,851.19 1310.39,897.44 1405,963.69C1480.5,1016.55 1560,1091.69 1627.5,1156.02C1627.5,1156.02 1637.06,1146.46 1641.83,1141.69L1678.16,1182.69L1909.05,1000.85C1880.75,968.41 1843,927.81 1795.76,883.82C1783.16,872.08 1747.57,839.32 1694.47,797.19C1639.14,753.29 1558.34,694.08 1450.8,630.52L1450.8,372.87L1745.82,372.87L1745.82,36.85L1129.15,36.85L1129.15,81.93L990.98,81.93L990.98,453.55C942.04,440.32 861.04,421.78 796.2,410.93C722.29,398.56 651.45,392.5 595.59,389.58L572.15,388.49L572.16,388.51Z" style="fill:none;fill-rule:nonzero;stroke:rgb(35,31,32);stroke-width:5px;"/>
        <path d="M1745.82,47.83L2027.74,47.83L2027.74,158.01L2013.66,158.01L2013.66,464.32L1975.99,464.32L1975.99,539.82L1450.8,539.82L1450.8,372.87L1745.82,372.87L1745.82,47.83ZM1745.33,36.85L1745.33,36.5L1128.66,36.5L1128.66,81.58L990.49,81.58L990.49,97.33L335.25,97.33L335.25,296.08L249.5,296.08L249.5,419.83L259.25,419.83L259.25,463.21L67,463.21L67,651.99L271,651.99L271,672.32L479,672.32L479,647.32L479.5,647.32L479.5,387.2C479.5,387.2 515.69,386.23 572.16,388.51L572.15,388.49L595.59,389.58C651.45,392.5 722.29,398.56 796.2,410.93C861.04,421.78 942.04,440.32 990.98,453.55L990.98,81.93L1129.15,81.93L1129.15,36.85L1745.33,36.85ZM1123.94,781.129L1116.67,798.32C1116.85,798.41 1117.03,798.5 1117.21,798.59L1124.5,781.36L1123.94,781.129ZM1423.29,976.861C1493.06,1028.52 1565.08,1096.64 1627,1155.65L1627.05,1155.6C1565.08,1096.54 1493.05,1028.44 1423.29,976.861ZM1641.74,1141.78L1677.66,1182.32L1677.76,1182.24L1641.83,1141.69L1641.74,1141.78ZM1641.08,756.292C1591.07,719.274 1527.8,675.981 1450.8,630.446L1450.8,630.52C1527.77,676.012 1591.04,719.275 1641.08,756.292Z" style="fill:white;fill-opacity:0.8;"/>
        <path d="M2027.74,47.83L2030.24,47.83C2030.24,46.449 2029.12,45.33 2027.74,45.33L2027.74,47.83ZM2027.74,158.01L2027.74,160.51C2029.12,160.51 2030.24,159.391 2030.24,158.01L2027.74,158.01ZM2013.66,158.01L2013.66,155.51C2012.28,155.51 2011.16,156.629 2011.16,158.01L2013.66,158.01ZM2013.66,464.32L2013.66,466.82C2015.04,466.82 2016.16,465.701 2016.16,464.32L2013.66,464.32ZM1975.99,464.32L1975.99,461.82C1974.61,461.82 1973.49,462.939 1973.49,464.32L1975.99,464.32ZM1975.99,539.82L1975.99,542.32C1977.37,542.32 1978.49,541.201 1978.49,539.82L1975.99,539.82ZM1450.8,539.82L1448.3,539.82C1448.3,541.201 1449.42,542.32 1450.8,542.32L1450.8,539.82ZM1450.8,372.87L1450.8,370.37C1449.42,370.37 1448.3,371.489 1448.3,372.87L1450.8,372.87ZM1745.82,372.87L1745.82,375.37C1747.2,375.37 1748.32,374.251 1748.32,372.87L1745.82,372.87ZM1745.82,47.83L1745.82,45.33C1744.44,45.33 1743.32,46.449 1743.32,47.83L1745.82,47.83ZM1745.33,36.85L1745.33,39.35C1746.71,39.35 1747.83,38.231 1747.83,36.85L1745.33,36.85ZM1745.33,36.5L1747.83,36.5C1747.83,35.119 1746.71,34 1745.33,34L1745.33,36.5ZM1128.66,36.5L1128.66,34C1127.28,34 1126.16,35.119 1126.16,36.5L1128.66,36.5ZM1128.66,81.58L1128.66,84.08C1130.04,84.08 1131.16,82.961 1131.16,81.58L1128.66,81.58ZM990.49,81.58L990.49,79.08C989.109,79.08 987.99,80.199 987.99,81.58L990.49,81.58ZM990.49,97.33L990.49,99.83C991.871,99.83 992.99,98.711 992.99,97.33L990.49,97.33ZM335.25,97.33L335.25,94.83C333.869,94.83 332.75,95.949 332.75,97.33L335.25,97.33ZM335.25,296.08L335.25,298.58C336.631,298.58 337.75,297.461 337.75,296.08L335.25,296.08ZM249.5,296.08L249.5,293.58C248.119,293.58 247,294.699 247,296.08L249.5,296.08ZM249.5,419.83L247,419.83C247,421.211 248.119,422.33 249.5,422.33L249.5,419.83ZM259.25,419.83L261.75,419.83C261.75,418.449 260.631,417.33 259.25,417.33L259.25,419.83ZM259.25,463.21L259.25,465.71C260.631,465.71 261.75,464.591 261.75,463.21L259.25,463.21ZM67,463.21L67,460.71C65.619,460.71 64.5,461.829 64.5,463.21L67,463.21ZM67,651.99L64.5,651.99C64.5,653.371 65.619,654.49 67,654.49L67,651.99ZM271,651.99L273.5,651.99C273.5,650.609 272.381,649.49 271,649.49L271,651.99ZM271,672.32L268.5,672.32C268.5,673.701 269.619,674.82 271,674.82L271,672.32ZM479,672.32L479,674.82C480.381,674.82 481.5,673.701 481.5,672.32L479,672.32ZM479,647.32L479,644.82C477.619,644.82 476.5,645.939 476.5,647.32L479,647.32ZM479.5,647.32L479.5,649.82C480.881,649.82 482,648.701 482,647.32L479.5,647.32ZM479.5,387.2L479.433,384.701C478.079,384.737 477,385.845 477,387.2L479.5,387.2ZM572.16,388.51L572.059,391.008C572.943,391.044 573.78,390.61 574.26,389.867C574.74,389.124 574.792,388.183 574.396,387.392L572.16,388.51ZM572.15,388.49L572.266,385.993C571.38,385.951 570.538,386.383 570.054,387.127C569.571,387.87 569.517,388.815 569.914,389.608L572.15,388.49ZM595.59,389.58L595.721,387.083L595.706,387.083L595.59,389.58ZM796.2,410.93L795.787,413.396L796.2,410.93ZM990.98,453.55L990.328,455.963C991.079,456.166 991.882,456.008 992.5,455.535C993.118,455.062 993.48,454.328 993.48,453.55L990.98,453.55ZM990.98,81.93L990.98,79.43C989.599,79.43 988.48,80.549 988.48,81.93L990.98,81.93ZM1129.15,81.93L1129.15,84.43C1130.53,84.43 1131.65,83.311 1131.65,81.93L1129.15,81.93ZM1129.15,36.85L1129.15,34.35C1127.77,34.35 1126.65,35.469 1126.65,36.85L1129.15,36.85ZM1123.94,781.129L1124.89,778.818C1123.63,778.295 1122.17,778.892 1121.64,780.156L1123.94,781.129ZM1116.67,798.32L1114.37,797.346C1113.85,798.562 1114.37,799.969 1115.56,800.558L1116.67,798.32ZM1117.21,798.59L1116.1,800.828C1116.71,801.136 1117.43,801.174 1118.08,800.935C1118.73,800.696 1119.25,800.2 1119.51,799.564L1117.21,798.59ZM1124.5,781.36L1126.8,782.334C1127.06,781.72 1127.07,781.027 1126.81,780.41C1126.56,779.793 1126.07,779.303 1125.45,779.049L1124.5,781.36ZM1421.8,978.871L1424.78,974.851C1423.67,974.031 1422.1,974.265 1421.28,975.374C1420.46,976.484 1420.69,978.049 1421.8,978.871ZM1627,1155.65L1625.28,1157.46C1626.26,1158.4 1627.81,1158.38 1628.77,1157.42L1627,1155.65ZM1627.05,1155.6L1628.82,1157.36C1629.3,1156.89 1629.56,1156.24 1629.55,1155.57C1629.55,1154.89 1629.27,1154.25 1628.78,1153.79L1627.05,1155.6ZM1641.74,1141.78L1639.97,1140.01C1639.04,1140.95 1638.99,1142.45 1639.87,1143.44L1641.74,1141.78ZM1677.66,1182.32L1675.79,1183.98C1676.67,1184.97 1678.17,1185.1 1679.21,1184.28L1677.66,1182.32ZM1677.76,1182.24L1679.31,1184.2C1679.85,1183.78 1680.19,1183.15 1680.25,1182.46C1680.31,1181.78 1680.09,1181.1 1679.63,1180.58L1677.76,1182.24ZM1641.83,1141.69L1643.7,1140.03C1643.24,1139.52 1642.59,1139.21 1641.91,1139.19C1641.22,1139.17 1640.55,1139.43 1640.06,1139.92L1641.83,1141.69ZM1642.57,754.282L1639.59,758.302C1640.7,759.123 1642.27,758.889 1643.09,757.779C1643.91,756.669 1643.68,755.104 1642.57,754.282ZM1450.8,630.446L1452.07,628.294C1451.3,627.837 1450.34,627.829 1449.56,628.274C1448.78,628.719 1448.3,629.548 1448.3,630.446L1450.8,630.446ZM1450.8,630.52L1448.3,630.52C1448.3,631.404 1448.77,632.222 1449.53,632.672L1450.8,630.52ZM1762.16,45.33L1762.15,45.33L1762.15,50.33L1762.16,50.33L1762.16,45.33ZM2027.74,45.33L1762.16,45.33L1762.16,50.33L2027.74,50.33L2027.74,45.33ZM2030.24,158.01L2030.24,47.83L2025.24,47.83L2025.24,158.01L2030.24,158.01ZM2013.66,160.51L2027.74,160.51L2027.74,155.51L2013.66,155.51L2013.66,160.51ZM2016.16,464.32L2016.16,158.01L2011.16,158.01L2011.16,464.32L2016.16,464.32ZM1975.99,466.82L2013.66,466.82L2013.66,461.82L1975.99,461.82L1975.99,466.82ZM1978.49,539.82L1978.49,464.32L1973.49,464.32L1973.49,539.82L1978.49,539.82ZM1450.8,542.32L1975.99,542.32L1975.99,537.32L1450.8,537.32L1450.8,542.32ZM1453.3,539.82L1453.3,372.87L1448.3,372.87L1448.3,539.82L1453.3,539.82ZM1450.8,375.37L1745.82,375.37L1745.82,370.37L1450.8,370.37L1450.8,375.37ZM1748.32,372.87L1748.32,47.83L1743.32,47.83L1743.32,372.87L1748.32,372.87ZM1762.15,45.33L1745.82,45.33L1745.82,50.33L1762.15,50.33L1762.15,45.33ZM1747.83,36.85L1747.83,36.5L1742.83,36.5L1742.83,36.85L1747.83,36.85ZM1745.33,34L1128.66,34L1128.66,39L1745.33,39L1745.33,34ZM1126.16,36.5L1126.16,81.58L1131.16,81.58L1131.16,36.5L1126.16,36.5ZM1128.66,79.08L990.49,79.08L990.49,84.08L1128.66,84.08L1128.66,79.08ZM987.99,81.58L987.99,97.33L992.99,97.33L992.99,81.58L987.99,81.58ZM990.49,94.83L335.25,94.83L335.25,99.83L990.49,99.83L990.49,94.83ZM332.75,97.33L332.75,296.08L337.75,296.08L337.75,97.33L332.75,97.33ZM335.25,293.58L249.5,293.58L249.5,298.58L335.25,298.58L335.25,293.58ZM247,296.08L247,419.83L252,419.83L252,296.08L247,296.08ZM249.5,422.33L259.25,422.33L259.25,417.33L249.5,417.33L249.5,422.33ZM256.75,419.83L256.75,463.21L261.75,463.21L261.75,419.83L256.75,419.83ZM259.25,460.71L244,460.71L244,465.71L259.25,465.71L259.25,460.71ZM244,460.71L147.75,460.71L147.75,465.71L244,465.71L244,460.71ZM147.75,460.71L67,460.71L67,465.71L147.75,465.71L147.75,460.71ZM64.5,463.21L64.5,651.99L69.5,651.99L69.5,463.21L64.5,463.21ZM67,654.49L271,654.49L271,649.49L67,649.49L67,654.49ZM268.5,651.99L268.5,672.32L273.5,672.32L273.5,651.99L268.5,651.99ZM271,674.82L479,674.82L479,669.82L271,669.82L271,674.82ZM481.5,672.32L481.5,647.32L476.5,647.32L476.5,672.32L481.5,672.32ZM479,649.82L479.5,649.82L479.5,644.82L479,644.82L479,649.82ZM477,387.2L477,647.32L482,647.32L482,387.2L477,387.2ZM572.261,386.012C543.99,384.871 520.794,384.543 504.66,384.5C496.593,384.479 490.292,384.529 486.005,384.584C483.861,384.612 482.221,384.641 481.115,384.663C480.562,384.674 480.143,384.684 479.862,384.69C479.721,384.694 479.614,384.696 479.543,384.698C479.507,384.699 479.48,384.7 479.462,384.7C479.452,384.7 479.445,384.701 479.441,384.701L479.434,384.701C479.433,384.701 479.433,384.701 479.5,387.2L479.567,389.699L479.573,389.699C479.577,389.699 479.583,389.699 479.591,389.698C479.608,389.698 479.634,389.697 479.668,389.696C479.737,389.695 479.841,389.692 479.979,389.689C480.255,389.682 480.668,389.673 481.215,389.662C482.31,389.64 483.938,389.611 486.069,389.584C490.332,389.529 496.608,389.479 504.647,389.5C520.726,389.542 543.86,389.869 572.059,391.008L572.261,386.012ZM569.914,389.608L569.924,389.628L574.396,387.392L574.386,387.372L569.914,389.608ZM595.706,387.083L572.266,385.993L572.034,390.987L595.474,392.077L595.706,387.083ZM796.613,408.464C722.584,396.074 651.645,390.007 595.721,387.083L595.46,392.077C651.255,394.993 721.996,401.046 795.787,413.396L796.613,408.464ZM991.632,451.137C942.624,437.888 861.544,419.33 796.613,408.464L795.787,413.396C860.536,424.23 941.456,442.752 990.328,455.963L991.632,451.137ZM988.48,81.93L988.48,453.55L993.48,453.55L993.48,81.93L988.48,81.93ZM1129.15,79.43L990.98,79.43L990.98,84.43L1129.15,84.43L1129.15,79.43ZM1126.65,36.85L1126.65,81.93L1131.65,81.93L1131.65,36.85L1126.65,36.85ZM1745.33,34.35L1129.15,34.35L1129.15,39.35L1745.33,39.35L1745.33,34.35ZM1121.64,780.156L1114.37,797.346L1118.97,799.294L1126.24,782.103L1121.64,780.156ZM1115.56,800.558C1115.74,800.648 1115.92,800.738 1116.1,800.828L1118.33,796.353C1118.15,796.263 1117.97,796.172 1117.79,796.082L1115.56,800.558ZM1122.2,780.386L1114.91,797.616L1119.51,799.564L1126.8,782.334L1122.2,780.386ZM1122.99,783.44L1123.55,783.671L1125.45,779.049L1124.89,778.818L1122.99,783.44ZM1421.8,978.871C1491.42,1030.43 1563.33,1098.43 1625.28,1157.46L1628.72,1153.84C1566.82,1094.84 1494.69,1026.62 1424.78,974.852L1421.8,978.871ZM1628.77,1157.42L1628.82,1157.36L1625.29,1153.83L1625.23,1153.88L1628.77,1157.42ZM1421.8,978.872C1491.41,1030.35 1563.34,1098.33 1625.33,1157.41L1628.78,1153.79C1566.83,1094.75 1494.68,1026.54 1424.78,974.851L1421.8,978.872ZM1639.87,1143.44L1675.79,1183.98L1679.53,1180.66L1643.61,1140.12L1639.87,1143.44ZM1679.21,1184.28L1679.31,1184.2L1676.21,1180.28L1676.11,1180.36L1679.21,1184.28ZM1639.96,1143.35L1675.89,1183.9L1679.63,1180.58L1643.7,1140.03L1639.96,1143.35ZM1643.51,1143.55L1643.6,1143.46L1640.06,1139.92L1639.97,1140.01L1643.51,1143.55ZM1642.57,754.282C1592.5,717.219 1529.15,673.877 1452.07,628.294L1449.53,632.598C1526.45,678.084 1589.65,721.329 1639.59,758.301L1642.57,754.282ZM1453.3,630.52L1453.3,630.446L1448.3,630.446L1448.3,630.52L1453.3,630.52ZM1642.57,754.282C1592.47,717.22 1529.12,673.908 1452.07,628.368L1449.53,632.672C1526.42,678.116 1589.62,721.331 1639.59,758.302L1642.57,754.282Z" style="fill:rgb(35,31,32);fill-rule:nonzero;"/>
    </g>
</svg>
