<?xml version="1.0" encoding="UTF-8"?>
<svg id="Layer_2" data-name="Layer 2" xmlns="http://www.w3.org/2000/svg" viewBox="0 0 4182.18 4221.94">
  <defs>
    <style>
      .cls-1 {
        opacity: .8;
      }

      .cls-1, .cls-2, .cls-3, .cls-4, .cls-5 {
        stroke: #525252;
        stroke-linecap: round;
        stroke-linejoin: round;
      }

      .cls-1, .cls-3, .cls-4 {
        fill: #fff;
      }

      .cls-1, .cls-4 {
        stroke-width: 5px;
      }

      .cls-2 {
        stroke-width: .5px;
      }

      .cls-2, .cls-6, .cls-5 {
        fill: none;
      }

      .cls-7 {
        fill: #000;
        font-family: CenturyGothic-Bold, 'Century Gothic';
        font-size: 12px;
        font-weight: 700;
      }

      .cls-8 {
        fill: #525252;
      }

      .cls-8, .cls-6 {
        stroke-width: 0px;
      }

      .cls-3, .cls-5 {
        stroke-width: 3px;
      }
    </style>
  </defs>
  <g id="ground_level" data-name="ground level">
    <rect class="cls-6" width="4182.18" height="4221.94"/>
  </g>
  <g id="Floor_2" data-name="Floor 2">
    <path class="cls-1" d="M2614.98,661.82h-16.83v-11.33h-616.67v45.08h-138.17v15.75h-655.25v198.75h-85.75v123.75h9.75v43.38h-15.25s-96.25,0-96.25,0h-80.75v188.78h204v20.33h208v-25h55.69c70.08,1.38,194.6,8.38,304.61,38.19,164.02,44.44,231.37,73.48,231.37,73.48l53.33,22-7.33,17.33c105.33,52.5,193.22,98.75,287.83,165,75.5,52.86,155,128,222.5,192.33l14.33-14.33,36.33,41,230.89-181.84c-28.3-32.44-66.05-73.04-113.29-117.03-12.6-11.74-48.19-44.5-101.29-86.63-55.33-43.9-136.13-103.11-243.67-166.67v-90.33h525.69v-75.5h37.67v-306.31h14.08v-110.19h-265.59Z"/>
    <path class="cls-4" d="M2648.08,1496.56c-12.6-11.74-48.19-44.5-101.29-86.63-55.33-43.9-136.13-103.11-243.67-166.67v-257.65h295.02v-336.02h-616.67v45.08h-138.17v371.62c-48.94-13.23-129.94-31.77-194.78-42.62-73.91-12.37-144.75-18.43-200.61-21.35l-23.44-1.09c-56.47-2.28-92.66-1.31-92.66-1.31v76.37h-235s-96.25,0-96.25,0h-80.75v188.78h204v20.33h208v-25s196.28-6.25,360.3,38.19c164.02,44.44,231.37,73.48,231.37,73.48l53.33,22-7.33,17.33c105.33,52.5,193.22,98.75,287.83,165,75.5,52.86,155,128,222.5,192.33l14.33-14.33,36.33,41,230.89-181.84c-28.3-32.44-66.05-73.04-113.29-117.03Z"/>
    <polygon class="cls-5" points="1331.82 1077.2 1331.82 1286.32 1123.82 1286.32 1123.82 1265.99 1117.94 1265.99 1106.19 1265.99 919.82 1265.99 919.82 1077.2 956.07 1077.2 1000.57 1077.2 1096.82 1077.2 1112.07 1077.2 1331.82 1077.2"/>
    <rect class="cls-3" x="1188.07" y="711.32" width="182.19" height="198.75"/>
    <g id="outer_border" data-name="outer border">
      <path id="door" class="cls-5" d="M1435.99,1001.81c.25-6.48,5.71-11.54,12.19-11.29l-.45,11.74-11.74-.45Z"/>
      <path id="door-2" data-name="door" class="cls-5" d="M1435.99,1001.81c.25-6.48-4.81-11.94-11.29-12.19l-.45,11.74,11.74.45Z"/>
    </g>
    <g id="inner_borders" data-name="inner borders">
      <polyline class="cls-5" points="2006.36 1282.91 2025.17 1290.85 1976.82 1394.99 1923.48 1372.99 1967.23 1266.39 1984.62 1273.73"/>
      <path class="cls-5" d="M1459.46,1152.44c-43.68-3.57-70.8-4.19-70.8-4.19v112.86"/>
      <path class="cls-5" d="M1558.89,1163.24c-32.7-4.44-62.49-7.58-87.68-9.8"/>
      <path class="cls-5" d="M1666.55,1181.3c-33.36-6.75-65.74-12.13-95.91-16.42"/>
      <path class="cls-5" d="M1767.12,1205.25c-9.82-2.59-20.06-5.26-30.75-8-19.47-5-38.9-9.49-58.06-13.53"/>
      <path class="cls-5" d="M1863.55,1232.03c-23.39-6.89-51.41-14.79-84.67-23.66"/>
      <path class="cls-5" d="M1950.04,1259.79c-14.32-5.18-38.41-13.38-75.34-24.45"/>
      <path class="cls-5" d="M1967.23,1266.39s-1.84-.8-5.91-2.38"/>
      <line class="cls-5" x1="1365.16" y1="1148.25" x2="1331.82" y2="1148.25"/>
      <path class="cls-5" d="M1752.54,1157.03c4.25.97,8.5,1.96,12.76,2.97,190.07,45.11,273.98,93.14,273.98,93.14l65.15-113.17"/>
      <path class="cls-5" d="M1652.93,1137.49c28.55,4.75,58.14,10.36,88.13,16.96"/>
      <path class="cls-5" d="M1554.76,1123.75c27.41,3.11,56.46,6.99,86.62,11.81"/>
      <path class="cls-5" d="M1536.01,1121.71c2.28.24,4.75.5,7.06.75"/>
      <path class="cls-5" d="M1441.58,1114.11c1.44.08,2.89.17,4.36.25"/>
      <path class="cls-5" d="M1409.48,1112.55c2.83.11,5.72.23,8.68.37"/>
      <path class="cls-5" d="M1331.82,1111.36s24.65-.62,65.93.76"/>
      <line class="cls-5" x1="1844.51" y1="1344.6" x2="1880.89" y2="1237.2"/>
      <line class="cls-5" x1="1755.65" y1="1317.3" x2="1786.34" y2="1210.36"/>
      <line class="cls-5" x1="1661.74" y1="1291.92" x2="1683.94" y2="1184.92"/>
      <line class="cls-5" x1="1562.58" y1="1274.25" x2="1575.81" y2="1165.61"/>
      <line class="cls-5" x1="1471.88" y1="1265.12" x2="1478.77" y2="1154.12"/>
      <line class="cls-5" x1="1420.7" y1="1002.37" x2="1413.83" y2="1112.74"/>
      <line class="cls-5" x1="1452.8" y1="1003.68" x2="1445.93" y2="1114.37"/>
      <line class="cls-5" x1="1552.82" y1="1011.54" x2="1536.01" y2="1121.71"/>
      <line class="cls-5" x1="1655.12" y1="1026.34" x2="1635.01" y2="1134.56"/>
      <line class="cls-5" x1="1736.24" y1="1153.39" x2="1760.96" y2="1048.02"/>
      <polyline class="cls-5" points="1766.68 1122.22 1808.14 1132.08 1799.49 1168.42"/>
      <polyline class="cls-5" points="1758.09 1158.3 1763.68 1134.84 1769.38 1136.18"/>
      <polyline class="cls-5" points="1799.33 1118.29 1801.76 1108.09 1855.75 1121.37 1842.08 1178.81"/>
      <line class="cls-5" x1="1843.32" y1="1118.31" x2="1843.32" y2="1067.19"/>
      <line class="cls-2" x1="1853.65" y1="1130.19" x2="2104.42" y2="1130.19"/>
      <rect class="cls-2" x="1943.68" y="1036.27" width="9.34" height="93.92"/>
      <rect class="cls-2" x="1953.03" y="1036.27" width="9.34" height="93.92"/>
      <rect class="cls-2" x="1962.37" y="1036.27" width="9.34" height="93.92"/>
      <rect class="cls-2" x="1971.71" y="1036.27" width="9.34" height="93.92"/>
      <rect class="cls-2" x="1981.05" y="1036.27" width="9.34" height="93.92"/>
      <rect class="cls-2" x="2015.75" y="1036.27" width="9.34" height="93.92"/>
      <rect class="cls-2" x="2025.09" y="1036.27" width="9.34" height="93.92"/>
      <rect class="cls-2" x="2034.43" y="1036.27" width="9.34" height="93.92"/>
      <rect class="cls-2" x="2043.77" y="1036.27" width="9.34" height="93.92"/>
      <rect class="cls-2" x="2053.12" y="1036.27" width="9.34" height="93.92"/>
      <polyline class="cls-5" points="2104.42 1052.66 2104.42 1036.27 2074.79 1036.27 2074.79 1076.76 2104.42 1076.76 2104.42 1064.41"/>
      <g id="staircase">
        <rect class="cls-2" x="1939.12" y="1140.71" width="23.63" height="2.59" transform="translate(808.93 3092.94) rotate(-90)"/>
        <rect class="cls-2" x="1941.72" y="1140.71" width="23.63" height="2.59" transform="translate(811.53 3095.54) rotate(-90)"/>
        <rect class="cls-2" x="1944.31" y="1140.71" width="23.63" height="2.59" transform="translate(814.12 3098.13) rotate(-90)"/>
        <rect class="cls-2" x="1946.91" y="1140.71" width="23.63" height="2.59" transform="translate(816.72 3100.73) rotate(-90)"/>
        <rect class="cls-2" x="1949.5" y="1140.71" width="23.63" height="2.59" transform="translate(819.31 3103.32) rotate(-90)"/>
        <rect class="cls-2" x="1952.1" y="1140.71" width="23.63" height="2.59" transform="translate(821.92 3105.92) rotate(-90)"/>
        <rect class="cls-2" x="1954.69" y="1140.71" width="23.63" height="2.59" transform="translate(824.5 3108.51) rotate(-90)"/>
        <rect class="cls-2" x="1957.29" y="1140.71" width="23.63" height="2.59" transform="translate(827.11 3111.11) rotate(-90)"/>
        <rect class="cls-2" x="1959.9" y="1140.71" width="23.63" height="2.59" transform="translate(829.71 3113.72) rotate(-90)"/>
        <rect class="cls-2" x="1962.5" y="1140.71" width="23.63" height="2.59" transform="translate(832.31 3116.32) rotate(-90)"/>
        <rect class="cls-2" x="1965.09" y="1140.71" width="23.63" height="2.59" transform="translate(834.9 3118.91) rotate(-90)"/>
        <rect class="cls-2" x="1967.69" y="1140.71" width="23.63" height="2.59" transform="translate(837.5 3121.51) rotate(-90)"/>
        <rect class="cls-2" x="1970.29" y="1140.71" width="23.63" height="2.59" transform="translate(840.11 3124.11) rotate(-90)"/>
        <rect class="cls-2" x="1972.9" y="1140.71" width="23.63" height="2.59" transform="translate(842.71 3126.72) rotate(-90)"/>
        <rect class="cls-2" x="1975.48" y="1140.71" width="23.63" height="2.59" transform="translate(845.3 3129.3) rotate(-90)"/>
        <rect class="cls-2" x="1978.09" y="1140.71" width="23.63" height="2.59" transform="translate(847.9 3131.91) rotate(-90)"/>
      </g>
      <g id="staircase-2" data-name="staircase">
        <rect class="cls-2" x="2005.23" y="1140.71" width="23.63" height="2.59" transform="translate(875.04 3159.05) rotate(-90)"/>
        <rect class="cls-2" x="2007.83" y="1140.71" width="23.63" height="2.59" transform="translate(877.64 3161.65) rotate(-90)"/>
        <rect class="cls-2" x="2010.42" y="1140.71" width="23.63" height="2.59" transform="translate(880.23 3164.24) rotate(-90)"/>
        <rect class="cls-2" x="2013.02" y="1140.71" width="23.63" height="2.59" transform="translate(882.83 3166.84) rotate(-90)"/>
        <rect class="cls-2" x="2015.61" y="1140.71" width="23.63" height="2.59" transform="translate(885.42 3169.43) rotate(-90)"/>
        <rect class="cls-2" x="2018.21" y="1140.71" width="23.63" height="2.59" transform="translate(888.03 3172.03) rotate(-90)"/>
        <rect class="cls-2" x="2020.8" y="1140.71" width="23.63" height="2.59" transform="translate(890.61 3174.62) rotate(-90)"/>
        <rect class="cls-2" x="2023.4" y="1140.71" width="23.63" height="2.59" transform="translate(893.22 3177.22) rotate(-90)"/>
        <rect class="cls-2" x="2026.01" y="1140.71" width="23.63" height="2.59" transform="translate(895.82 3179.83) rotate(-90)"/>
        <rect class="cls-2" x="2028.61" y="1140.71" width="23.63" height="2.59" transform="translate(898.42 3182.43) rotate(-90)"/>
        <rect class="cls-2" x="2031.2" y="1140.71" width="23.63" height="2.59" transform="translate(901.01 3185.02) rotate(-90)"/>
        <rect class="cls-2" x="2033.8" y="1140.71" width="23.63" height="2.59" transform="translate(903.61 3187.62) rotate(-90)"/>
        <rect class="cls-2" x="2036.4" y="1140.71" width="23.63" height="2.59" transform="translate(906.22 3190.22) rotate(-90)"/>
        <rect class="cls-2" x="2039.01" y="1140.71" width="23.63" height="2.59" transform="translate(908.82 3192.83) rotate(-90)"/>
        <rect class="cls-2" x="2041.59" y="1140.71" width="23.63" height="2.59" transform="translate(911.41 3195.41) rotate(-90)"/>
        <rect class="cls-2" x="2044.2" y="1140.71" width="23.63" height="2.59" transform="translate(914.01 3198.02) rotate(-90)"/>
      </g>
      <rect class="cls-2" x="1991.2" y="1130.19" width="24.55" height="23.63"/>
      <polyline class="cls-5" points="1945.07 1153.82 2096.45 1153.82 2104.42 1139.96 2104.42 1076.76"/>
      <rect class="cls-5" x="1843.32" y="695.57" width="261.11" height="340.7"/>
      <line class="cls-5" x1="2303.13" y1="794.34" x2="2303.13" y2="650.49"/>
      <line class="cls-5" x1="2303.13" y1="986.79" x2="2303.13" y2="855.13"/>
      <polyline class="cls-5" points="2148.71 961.53 2148.71 855.13 2303.13 855.13 2303.13 1010.65 2148.71 1010.65 2148.71 985.03"/>
      <polyline class="cls-5" points="2148.71 727.12 2280.93 727.12 2280.93 855.16 2148.71 855.16 2148.71 750.62"/>
      <polyline class="cls-5" points="2284.95 727.12 2148.71 727.12 2148.71 722.52"/>
      <polyline class="cls-5" points="2148.71 710.77 2148.71 651.01 2303.13 651.01 2303.13 727.12 2296.7 727.12"/>
      <line class="cls-5" x1="2303.13" y1="1117.88" x2="2295.91" y2="1117.88"/>
      <line class="cls-5" x1="2148.71" y1="1082" x2="2148.71" y2="1010.65"/>
      <line class="cls-5" x1="2148.71" y1="1098.44" x2="2148.71" y2="1093.75"/>
      <line class="cls-5" x1="2284.16" y1="1117.88" x2="2197" y2="1117.88"/>
      <polyline class="cls-5" points="2284.01 1217.96 2148.71 1217.96 2148.71 1153.75"/>
      <line class="cls-5" x1="2303.13" y1="1217.96" x2="2295.91" y2="1217.96"/>
      <line class="cls-5" x1="2148.71" y1="1142" x2="2148.71" y2="1117.94"/>
      <polyline class="cls-5" points="2296.7 794.34 2319.14 794.34 2319.14 855.13 2281.27 855.13 2281.27 794.34 2284.95 794.34"/>
      <path class="cls-5" d="M2610.12,1709.71c9.4,10.24,12.46,14.09,12.46,14.09"/>
      <path class="cls-5" d="M2525.84,1626.17c30.56,27.91,52.04,49.49,68.2,66.38"/>
      <path class="cls-5" d="M2451.18,1561.28c25.24,20.84,46.59,39.46,66.16,57.16"/>
      <path class="cls-5" d="M2366.79,1494.85c27.98,21.01,52.32,40.14,75.42,59.06"/>
      <path class="cls-5" d="M2290.6,1442.18c23.62,15.22,46.13,30.48,66.89,45.74"/>
      <path class="cls-5" d="M2257.22,1421.15c7.97,4.92,15.69,9.75,23.59,14.77"/>
      <line class="cls-5" x1="2148.71" y1="1251.51" x2="2148.71" y2="1217.96"/>
      <path class="cls-5" d="M2248.85,1357.17c-40.68-23.43-76.34-41.52-100.14-52v-41.91"/>
      <path class="cls-5" d="M2318.07,1399.44c-20.69-13.42-39.59-24.96-59.03-36.35"/>
      <path class="cls-5" d="M2363.5,1430.05c-12.02-8.46-23.23-16.04-35.49-24.09"/>
      <path class="cls-5" d="M2431.3,1481.38c-2.79-2.27-3.77-3.06-6.61-5.36-17.04-13.77-33.84-26.49-51.47-39.1"/>
      <path class="cls-5" d="M2465.54,1509.69c-8.2-6.9-16.35-13.67-25.07-20.81"/>
      <path class="cls-5" d="M2527.45,1563.62c-16.2-14.63-33.64-29.94-52.85-46.27"/>
      <path class="cls-5" d="M2643.74,1677.86c-18.53-20.27-53.87-57.56-107.57-106.51"/>
      <path class="cls-5" d="M2658.5,1694.46s-2.02-2.44-7-8.02"/>
      <path class="cls-5" d="M2177.69,1374.01c9.24,5.28,18.74,10.77,28.41,16.43"/>
      <path class="cls-5" d="M2074.55,1317.41c19.47,10.24,53.48,28.42,93.53,51.13"/>
      <path class="cls-5" d="M2057.08,1308.32s2.46,1.26,6.99,3.61"/>
      <polygon class="cls-5" points="2025.17 1290.85 2013.13 1316.78 2044.24 1333.1 2057.08 1308.32 2025.17 1290.85"/>
      <polyline class="cls-5" points="2080.06 1320.32 2065.09 1349.22 2042.1 1337.23 2044.24 1333.1"/>
      <line class="cls-5" x1="2044.24" y1="1333.1" x2="2025.17" y2="1290.85"/>
      <line class="cls-5" x1="2013.13" y1="1316.78" x2="2057.08" y2="1308.32"/>
      <polyline class="cls-5" points="1989.88 1367.03 2016.95 1379.85 2032.31 1349.22"/>
      <line class="cls-5" x1="2045.78" y1="1393.52" x2="2016.95" y2="1379.85"/>
      <polyline class="cls-5" points="2084.44 1368.44 2047 1439.27 2039.82 1435.47"/>
      <line class="cls-5" x1="2120.56" y1="1491.43" x2="2188.56" y2="1380.25"/>
      <line class="cls-5" x1="2205.05" y1="1542.25" x2="2276.35" y2="1433.09"/>
      <polyline class="cls-5" points="2136.29 1370.47 2129.49 1382.13 2172.29 1406.85"/>
      <line class="cls-5" x1="2144.98" y1="1355.56" x2="2142.21" y2="1360.33"/>
      <line class="cls-5" x1="2152.44" y1="1395.39" x2="2168.09" y2="1368.54"/>
      <line class="cls-5" x1="2162.28" y1="1515.7" x2="2209.07" y2="1441.24"/>
      <polyline class="cls-5" points="2225.46 1402.18 2222.4 1400.33 2213.19 1415.61 2194.32 1404.22 2181.88 1424.84 2236.07 1457.53 2248.5 1436.91 2229.75 1425.6 2238.96 1410.32 2235.57 1408.28"/>
      <line class="cls-5" x1="2275.15" y1="1590.16" x2="2351.78" y2="1483.77"/>
      <line class="cls-5" x1="2348.54" y1="1649.09" x2="2436.54" y2="1549.33"/>
      <line class="cls-5" x1="2416.18" y1="1709.66" x2="2512.83" y2="1614.48"/>
      <line class="cls-5" x1="2494.15" y1="1755.32" x2="2582.33" y2="1682.21"/>
      <line class="cls-5" x1="2234.02" y1="1348.74" x2="2303.13" y2="1244.15"/>
      <line class="cls-5" x1="2338.24" y1="1392.95" x2="2404.95" y2="1308.38"/>
      <line class="cls-5" x1="2328.01" y1="1405.92" x2="2330.75" y2="1402.45"/>
      <line class="cls-5" x1="2373.93" y1="1416.83" x2="2440.85" y2="1331.98"/>
      <line class="cls-5" x1="2363.5" y1="1430.05" x2="2366.53" y2="1426.2"/>
      <line class="cls-5" x1="2453.24" y1="1499.44" x2="2538.31" y2="1404.12"/>
      <line class="cls-5" x1="2540.33" y1="1567.45" x2="2536.17" y2="1571.35"/>
      <line class="cls-5" x1="2631.34" y1="1482.11" x2="2549.29" y2="1559.04"/>
      <line class="cls-5" x1="2584.39" y1="1609.36" x2="2580.42" y2="1612.92"/>
      <line class="cls-5" x1="2677.55" y1="1525.62" x2="2593.4" y2="1601.26"/>
      <line class="cls-5" x1="2104.42" y1="661.54" x2="2104.42" y2="651.01"/>
      <line class="cls-5" x1="2104.42" y1="695.57" x2="2104.42" y2="685.04"/>
      <path id="door-3" data-name="door" class="cls-5" d="M1418.16,1112.91l-.35,11.74c6.49.19,11.9-4.91,12.1-11.39"/>
      <path id="door-4" data-name="door" class="cls-5" d="M1441.58,1114.11l-1.04,11.84c-6.46-.57-11.24-6.28-10.67-12.74"/>
      <path id="door-5" data-name="door" class="cls-5" d="M1365.16,1148.25v11.75c6.49,0,11.75-5.26,11.75-11.75"/>
      <path id="door-6" data-name="door" class="cls-5" d="M1388.66,1148.25v11.75c-6.49,0-11.75-5.26-11.75-11.75"/>
      <path id="door-7" data-name="door" class="cls-5" d="M2651.5,1686.44l-10.08,7.91c-4.01-5.1-2.77-12.49,2.33-16.5"/>
      <path id="door-8" data-name="door" class="cls-5" d="M2594.04,1692.55l-8.56,7.96c4.42,4.75,11.85,5.02,16.61.61"/>
      <path id="door-9" data-name="door" class="cls-5" d="M2517.35,1618.44l-8.24,8.64c4.79,4.37,12.36,3.89,16.74-.91"/>
      <path id="door-10" data-name="door" class="cls-5" d="M2442.21,1553.91l-8,8.99c4.96,4.19,12.79,3.35,16.97-1.61"/>
      <path id="door-11" data-name="door" class="cls-5" d="M2357.49,1487.93l-7.36,10.1c5.35,3.67,12.99,2.18,16.66-3.17"/>
      <path id="door-12" data-name="door" class="cls-5" d="M2280.81,1435.92l-6.64,10.24c5.51,3.43,12.99,1.53,16.42-3.98"/>
      <g id="staircase-3" data-name="staircase">
        <rect class="cls-2" x="2549.96" y="1717.82" width="23.63" height="2.98" transform="translate(2264.41 -1351.57) rotate(50.6)"/>
        <rect class="cls-2" x="2547.64" y="1719.72" width="23.63" height="2.98" transform="translate(2265.04 -1349.08) rotate(50.6)"/>
        <rect class="cls-2" x="2545.34" y="1721.61" width="23.63" height="2.98" transform="translate(2265.66 -1346.61) rotate(50.6)"/>
        <rect class="cls-2" x="2543.02" y="1723.52" width="23.63" height="2.98" transform="translate(2266.28 -1344.13) rotate(50.6)"/>
        <rect class="cls-2" x="2540.72" y="1725.41" width="23.63" height="2.98" transform="translate(2266.9 -1341.66) rotate(50.6)"/>
        <rect class="cls-2" x="2538.4" y="1727.31" width="23.63" height="2.98" transform="translate(2267.53 -1339.17) rotate(50.6)"/>
        <rect class="cls-2" x="2536.1" y="1729.21" width="23.63" height="2.98" transform="translate(2268.15 -1336.7) rotate(50.6)"/>
        <rect class="cls-2" x="2533.78" y="1731.11" width="23.63" height="2.98" transform="translate(2268.77 -1334.21) rotate(50.6)"/>
        <rect class="cls-2" x="2531.46" y="1733.01" width="23.63" height="2.98" transform="translate(2269.4 -1331.73) rotate(50.6)"/>
        <rect class="cls-2" x="2529.14" y="1734.92" width="23.63" height="2.98" transform="translate(2270.02 -1329.24) rotate(50.6)"/>
        <rect class="cls-2" x="2526.84" y="1736.81" width="23.63" height="2.98" transform="translate(2270.64 -1326.77) rotate(50.6)"/>
        <rect class="cls-2" x="2524.52" y="1738.71" width="23.63" height="2.98" transform="translate(2271.27 -1324.28) rotate(50.6)"/>
        <rect class="cls-2" x="2522.21" y="1740.61" width="23.63" height="2.98" transform="translate(2271.89 -1321.8) rotate(50.6)"/>
        <rect class="cls-2" x="2519.89" y="1742.52" width="23.63" height="2.98" transform="translate(2272.52 -1319.31) rotate(50.6)"/>
        <rect class="cls-2" x="2517.58" y="1744.41" width="23.63" height="2.98" transform="translate(2273.14 -1316.84) rotate(50.6)"/>
        <rect class="cls-2" x="2515.27" y="1746.31" width="23.63" height="2.98" transform="translate(2273.76 -1314.35) rotate(50.6)"/>
      </g>
      <g>
        <rect class="cls-2" x="2562.65" y="1734.99" width="23.63" height="8.96" transform="translate(2284.63 -1354.01) rotate(50.6)"/>
        <rect class="cls-2" x="2558.02" y="1741.78" width="23.63" height="2.98" transform="translate(2285.87 -1349.05) rotate(50.6)"/>
        <rect class="cls-2" x="2555.72" y="1743.67" width="23.63" height="2.98" transform="translate(2286.5 -1346.58) rotate(50.6)"/>
        <rect class="cls-2" x="2553.4" y="1745.57" width="23.63" height="2.98" transform="translate(2287.12 -1344.09) rotate(50.6)"/>
        <rect class="cls-2" x="2551.1" y="1747.47" width="23.63" height="2.98" transform="translate(2287.74 -1341.62) rotate(50.6)"/>
        <rect class="cls-2" x="2548.78" y="1749.37" width="23.63" height="2.98" transform="translate(2288.36 -1339.13) rotate(50.6)"/>
        <rect class="cls-2" x="2546.46" y="1751.27" width="23.63" height="2.98" transform="translate(2288.99 -1336.65) rotate(50.6)"/>
        <rect class="cls-2" x="2544.14" y="1753.18" width="23.63" height="2.98" transform="translate(2289.61 -1334.16) rotate(50.6)"/>
        <rect class="cls-2" x="2541.84" y="1755.07" width="23.63" height="2.98" transform="translate(2290.23 -1331.69) rotate(50.6)"/>
        <rect class="cls-2" x="2539.52" y="1756.97" width="23.63" height="2.98" transform="translate(2290.86 -1329.2) rotate(50.6)"/>
        <rect class="cls-2" x="2537.21" y="1758.88" width="23.63" height="2.98" transform="translate(2291.48 -1326.72) rotate(50.6)"/>
        <rect class="cls-2" x="2532.59" y="1759.67" width="23.63" height="8.98" transform="translate(2292.73 -1321.76) rotate(50.6)"/>
      </g>
      <path id="door-13" data-name="door" class="cls-5" d="M2610.12,1709.71l-8.63,8.02c-4.42-4.75-4.15-12.19.6-16.61"/>
      <path id="door-14" data-name="door" class="cls-5" d="M2148.71,985.03h-11.75c0-6.49,5.26-11.75,11.75-11.75"/>
      <path id="door-15" data-name="door" class="cls-5" d="M2148.71,961.53h-11.75c0,6.49,5.26,11.75,11.75,11.75"/>
      <path id="door-16" data-name="door" class="cls-5" d="M2148.71,750.62h-11.75c0-6.49,5.26-11.75,11.75-11.75"/>
      <path id="door-17" data-name="door" class="cls-5" d="M2148.71,727.12h-11.75c0,6.49,5.26,11.75,11.75,11.75"/>
      <path id="door-18" data-name="door" class="cls-5" d="M2104.42,685.04h-11.75c0-6.49,5.26-11.75,11.75-11.75"/>
      <path id="door-19" data-name="door" class="cls-5" d="M2104.42,661.54h-11.75c0,6.49,5.26,11.75,11.75,11.75"/>
      <path id="door-20" data-name="door" class="cls-5" d="M2284.95,678.15v11.75c-6.49,0-11.75-5.26-11.75-11.75"/>
      <path id="door-21" data-name="door" class="cls-5" d="M2284.95,727.12v11.75c6.49,0,11.75-5.26,11.75-11.75"/>
      <path id="door-22" data-name="door" class="cls-5" d="M2284.95,794.34v-11.75c6.49,0,11.75,5.26,11.75,11.75"/>
      <path id="door-23" data-name="door" class="cls-5" d="M2261.45,678.15v11.75c6.49,0,11.75-5.26,11.75-11.75"/>
      <path id="door-24" data-name="door" class="cls-5" d="M2148.71,722.52h11.75c0-6.49-5.26-11.75-11.75-11.75"/>
      <path id="door-25" data-name="door" class="cls-5" d="M2194.31,985.03v-11.75c6.49,0,11.75,5.26,11.75,11.75"/>
      <path id="door-26" data-name="door" class="cls-5" d="M2217.81,985.03v-11.75c-6.49,0-11.75,5.26-11.75,11.75"/>
      <path id="door-27" data-name="door" class="cls-5" d="M2188.74,1137.31v11.75c-6.49,0-11.75-5.26-11.75-11.75"/>
      <path id="door-28" data-name="door" class="cls-5" d="M2284.16,1217.96c0,6.49,5.26,11.75,11.75,11.75v-11.75"/>
      <path id="door-29" data-name="door" class="cls-5" d="M2284.16,1117.88c0-6.49,5.26-11.75,11.75-11.75v11.75"/>
      <path id="door-30" data-name="door" class="cls-5" d="M2148.71,1142h11.75c0,6.49-5.26,11.75-11.75,11.75"/>
      <path id="door-31" data-name="door" class="cls-5" d="M2148.71,1263.26h11.75c0-6.49-5.26-11.75-11.75-11.75"/>
      <path id="door-32" data-name="door" class="cls-5" d="M2148.71,1093.75h11.75c0-6.49-5.26-11.75-11.75-11.75"/>
      <path id="door-33" data-name="door" class="cls-5" d="M2104.42,1064.41h11.75c0-6.49-5.26-11.75-11.75-11.75"/>
      <path id="door-34" data-name="door" class="cls-5" d="M1976.54,1248.21c5.97,2.54,8.75,9.44,6.21,15.41l-10.81-4.6-3.31,7.53"/>
      <path id="door-35" data-name="door" class="cls-5" d="M1976.54,1248.21c5.97,2.54,12.87-.24,15.41-6.21l-10.81-4.6,4.34-9.13"/>
      <path id="door-36" data-name="door" class="cls-5" d="M1984.62,1273.73l-4.62,11c5.98,2.52,12.87-.27,15.4-6.25"/>
      <path id="door-37" data-name="door" class="cls-5" d="M2006.36,1282.91l-4.71,10.97c-5.98-2.52-8.78-9.42-6.25-15.4"/>
      <path id="door-38" data-name="door" class="cls-5" d="M2235.57,1408.28l6.12-10.1c-5.54-3.37-12.86-1.54-16.23,4"/>
      <path id="door-39" data-name="door" class="cls-5" d="M2248.85,1357.17l-6.09,10.12c5.54,3.37,12.91,1.34,16.28-4.2"/>
      <path id="door-40" data-name="door" class="cls-5" d="M2330.75,1402.45l11.13,7.16c3.62-5.39,1.75-13.04-3.64-16.66"/>
      <path id="door-41" data-name="door" class="cls-5" d="M2366.53,1426.2l-9.84-6.8c3.68-5.34,11.89-6.25,17.23-2.57"/>
      <path id="door-42" data-name="door" class="cls-5" d="M2540.33,1567.45l10.28,9.43c4.49-4.69,4.18-12.7-1.32-17.84"/>
      <path id="door-43" data-name="door" class="cls-5" d="M2584.39,1609.36l-9.1-8.85c4.55-4.63,12.91-4.19,18.11.75"/>
      <path id="door-44" data-name="door" class="cls-5" d="M2328.01,1405.96l-6.74,9.64c-5.35-3.67-6.87-10.81-3.2-16.16"/>
      <path id="door-45" data-name="door" class="cls-5" d="M2363.5,1430.05l-6.77,9.74c5.28,3.77,12.72,2.42,16.49-2.86"/>
      <path id="door-46" data-name="door" class="cls-5" d="M2440.47,1488.88l-7.67,9.03c-5.01-4.12-5.63-11.52-1.51-16.53"/>
      <path id="door-47" data-name="door" class="cls-5" d="M2465.54,1509.69l-7.51,9.2c4.96,4.18,12.38,3.42,16.56-1.55"/>
      <path id="door-48" data-name="door" class="cls-5" d="M2536.17,1571.35l-8.63,7.94c-4.53-4.65-4.73-11.15-.09-15.67"/>
      <path id="door-49" data-name="door" class="cls-5" d="M2142.21,1360.33l-10.19-6.03c-3.26,5.61-1.33,12.91,4.28,16.17"/>
      <path id="door-50" data-name="door" class="cls-5" d="M2064.07,1311.93c3.02-5.75,10.24-8,15.99-4.99l-5.51,10.47"/>
      <path id="door-51" data-name="door" class="cls-5" d="M1808.14,1132.08c1.51-6.31-2.49-12.28-8.81-13.79"/>
      <path id="door-52" data-name="door" class="cls-5" d="M1741.06,1154.45l2.74-11.53c6.31,1.5,10.23,7.79,8.74,14.1"/>
      <path id="door-53" data-name="door" class="cls-5" d="M1641.38,1135.56l2.19-11.81c6.38,1.21,10.56,7.36,9.35,13.74"/>
      <path id="door-54" data-name="door" class="cls-5" d="M1961.32,1264.01l-4.77,11.38c-5.99-2.49-9-9.61-6.51-15.6"/>
      <path id="door-55" data-name="door" class="cls-5" d="M1874.7,1235.34l-3.78,11.48c-6.14-2.09-9.46-8.65-7.37-14.79"/>
      <path id="door-56" data-name="door" class="cls-5" d="M1778.88,1208.37l-3.25,11.51c-6.24-1.79-10.3-8.39-8.51-14.63"/>
      <path id="door-57" data-name="door" class="cls-5" d="M1666.55,1181.3c-1.31,6.36,3.03,12.65,9.38,13.96l2.37-11.53"/>
      <path id="door-58" data-name="door" class="cls-5" d="M1570.64,1164.87l-1.39,11.68c-6.44-.77-11.13-6.87-10.36-13.32"/>
      <path id="door-59" data-name="door" class="cls-5" d="M1471.21,1153.44l-.76,11.77c-6.48-.42-11.41-6.29-10.99-12.77"/>
      <path id="door-60" data-name="door" class="cls-5" d="M1397.75,1112.12c.37-6.48,5.92-11.66,12.4-11.29l-.67,11.72"/>
      <path id="door-61" data-name="door" class="cls-5" d="M1554.76,1123.75c1.01-6.41-3.47-12.45-9.89-13.45l-1.81,12.16"/>
      <line class="cls-5" x1="1503.98" y1="1006.95" x2="1495.27" y2="1089.95"/>
      <polyline class="cls-5" points="1463.95 1087.34 1524.88 1092.41 1521.68 1119.14 1506.1 1117.83"/>
      <polyline class="cls-5" points="1482.03 1088.85 1478.74 1116.31 1488.47 1117.13 1489.86 1106.96 1494.42 1107.37"/>
      <polyline class="cls-5" points="1446.91 1098.35 1466.74 1100.22 1464.88 1115.57"/>
      <polyline class="cls-5" points="2176.99 1137.31 2148.71 1137.31 2148.71 1098.44 2197 1098.44 2197 1137.31 2188.74 1137.31"/>
      <polyline class="cls-5" points="2217.81 985.03 2222.18 985.03 2222.18 1010.65 2148.71 1010.65 2148.71 985.03 2194.31 985.03"/>
      <polyline class="cls-5" points="2261.45 678.15 2243.28 678.15 2243.28 651.01 2273.2 651.01 2273.2 678.15"/>
      <polyline class="cls-5" points="2273.2 678.15 2273.2 651.01 2303.13 651.01 2303.13 678.15 2284.95 678.15"/>
      <g>
        <rect class="cls-2" x="1361.01" y="1196.31" width="23.63" height="3.17"/>
        <rect class="cls-2" x="1361.01" y="1199.51" width="23.63" height="3.17"/>
        <rect class="cls-2" x="1361.01" y="1202.68" width="23.63" height="3.17"/>
        <rect class="cls-2" x="1361.01" y="1205.87" width="23.63" height="3.17"/>
        <rect class="cls-2" x="1361.01" y="1209.06" width="23.63" height="3.17"/>
        <rect class="cls-2" x="1361.01" y="1212.26" width="23.63" height="3.17"/>
        <rect class="cls-2" x="1361.01" y="1215.43" width="23.63" height="3.17"/>
        <rect class="cls-2" x="1361.01" y="1218.62" width="23.63" height="3.17"/>
        <rect class="cls-2" x="1361.01" y="1221.81" width="23.63" height="3.17"/>
        <rect class="cls-2" x="1361.01" y="1225.01" width="23.63" height="3.17"/>
        <rect class="cls-2" x="1361.01" y="1228.18" width="23.63" height="3.17"/>
        <rect class="cls-2" x="1361.01" y="1231.37" width="23.63" height="3.17"/>
      </g>
      <g>
        <rect class="cls-2" x="1337.38" y="1196.31" width="23.63" height="9.54"/>
        <rect class="cls-2" x="1337.38" y="1205.87" width="23.63" height="3.17"/>
        <rect class="cls-2" x="1337.38" y="1209.06" width="23.63" height="3.17"/>
        <rect class="cls-2" x="1337.38" y="1212.26" width="23.63" height="3.17"/>
        <rect class="cls-2" x="1337.38" y="1215.43" width="23.63" height="3.17"/>
        <rect class="cls-2" x="1337.38" y="1218.62" width="23.63" height="3.17"/>
        <rect class="cls-2" x="1337.38" y="1221.81" width="23.63" height="3.17"/>
        <rect class="cls-2" x="1337.38" y="1224.99" width="23.63" height="9.56"/>
      </g>
      <g id="staircase-4" data-name="staircase">
        <rect class="cls-2" x="1980.2" y="1320.1" width="23.63" height="2.98" transform="translate(737.62 -713.41) rotate(24.79)"/>
        <rect class="cls-2" x="1978.94" y="1322.83" width="23.63" height="2.98" transform="translate(738.65 -712.63) rotate(24.79)"/>
        <rect class="cls-2" x="1977.69" y="1325.53" width="23.63" height="2.98" transform="translate(739.67 -711.86) rotate(24.79)"/>
        <rect class="cls-2" x="1976.44" y="1328.26" width="23.63" height="2.98" transform="translate(740.7 -711.08) rotate(24.79)"/>
        <rect class="cls-2" x="1975.19" y="1330.96" width="23.63" height="2.98" transform="translate(741.71 -710.31) rotate(24.79)"/>
        <rect class="cls-2" x="1973.93" y="1333.69" width="23.63" height="2.98" transform="translate(742.74 -709.53) rotate(24.79)"/>
        <rect class="cls-2" x="1972.68" y="1336.39" width="23.63" height="2.98" transform="translate(743.76 -708.76) rotate(24.79)"/>
        <rect class="cls-2" x="1971.42" y="1339.11" width="23.63" height="2.98" transform="translate(744.79 -707.98) rotate(24.79)"/>
        <rect class="cls-2" x="1970.16" y="1341.84" width="23.63" height="2.98" transform="translate(745.81 -707.2) rotate(24.79)"/>
        <rect class="cls-2" x="1968.91" y="1344.56" width="23.63" height="2.98" transform="translate(746.84 -706.42) rotate(24.79)"/>
        <rect class="cls-2" x="1967.66" y="1347.27" width="23.63" height="2.98" transform="translate(747.86 -705.65) rotate(24.79)"/>
        <rect class="cls-2" x="1966.4" y="1349.99" width="23.63" height="2.98" transform="translate(748.88 -704.87) rotate(24.79)"/>
        <rect class="cls-2" x="1965.14" y="1352.71" width="23.63" height="2.98" transform="translate(749.91 -704.09) rotate(24.79)"/>
        <rect class="cls-2" x="1963.88" y="1355.43" width="23.63" height="2.98" transform="translate(750.93 -703.31) rotate(24.79)"/>
        <rect class="cls-2" x="1962.63" y="1358.14" width="23.63" height="2.98" transform="translate(751.95 -702.54) rotate(24.79)"/>
        <rect class="cls-2" x="1961.38" y="1360.86" width="23.63" height="2.98" transform="translate(752.98 -701.76) rotate(24.79)"/>
      </g>
      <g>
        <rect class="cls-2" x="1957.49" y="1309.92" width="23.63" height="8.96" transform="translate(732.51 -704.55) rotate(24.79)"/>
        <rect class="cls-2" x="1954.98" y="1318.35" width="23.63" height="2.98" transform="translate(734.56 -703) rotate(24.79)"/>
        <rect class="cls-2" x="1953.73" y="1321.05" width="23.63" height="2.98" transform="translate(735.58 -702.22) rotate(24.79)"/>
        <rect class="cls-2" x="1952.47" y="1323.78" width="23.63" height="2.98" transform="translate(736.61 -701.45) rotate(24.79)"/>
        <rect class="cls-2" x="1951.22" y="1326.48" width="23.63" height="2.98" transform="translate(737.63 -700.67) rotate(24.79)"/>
        <rect class="cls-2" x="1949.97" y="1329.21" width="23.63" height="2.98" transform="translate(738.66 -699.9) rotate(24.79)"/>
        <rect class="cls-2" x="1948.71" y="1331.93" width="23.63" height="2.98" transform="translate(739.68 -699.12) rotate(24.79)"/>
        <rect class="cls-2" x="1947.45" y="1334.65" width="23.63" height="2.98" transform="translate(740.71 -698.34) rotate(24.79)"/>
        <rect class="cls-2" x="1946.2" y="1337.36" width="23.63" height="2.98" transform="translate(741.73 -697.57) rotate(24.79)"/>
        <rect class="cls-2" x="1944.94" y="1340.08" width="23.63" height="2.98" transform="translate(742.75 -696.79) rotate(24.79)"/>
        <rect class="cls-2" x="1943.69" y="1342.8" width="23.63" height="2.98" transform="translate(743.78 -696.01) rotate(24.79)"/>
        <rect class="cls-2" x="1941.18" y="1345.25" width="23.63" height="8.96" transform="translate(745.82 -694.46) rotate(24.79)"/>
      </g>
      <g>
        <rect class="cls-2" x="1993.92" y="682.64" width="22.54" height="3.32" transform="translate(1320.89 2689.48) rotate(-90)"/>
        <rect class="cls-2" x="1997.25" y="682.64" width="22.54" height="3.32" transform="translate(1324.22 2692.82) rotate(-90)"/>
        <rect class="cls-2" x="2000.57" y="682.64" width="22.54" height="3.32" transform="translate(1327.54 2696.14) rotate(-90)"/>
        <rect class="cls-2" x="2003.9" y="682.64" width="22.54" height="3.32" transform="translate(1330.88 2699.47) rotate(-90)"/>
        <rect class="cls-2" x="2007.22" y="682.64" width="22.54" height="3.32" transform="translate(1334.19 2702.79) rotate(-90)"/>
        <rect class="cls-2" x="2010.55" y="682.64" width="22.54" height="3.32" transform="translate(1337.53 2706.12) rotate(-90)"/>
        <rect class="cls-2" x="2013.87" y="682.64" width="22.54" height="3.32" transform="translate(1340.84 2709.44) rotate(-90)"/>
        <rect class="cls-2" x="2017.2" y="682.64" width="22.54" height="3.32" transform="translate(1344.18 2712.77) rotate(-90)"/>
        <rect class="cls-2" x="2020.54" y="682.64" width="22.54" height="3.32" transform="translate(1347.51 2716.11) rotate(-90)"/>
        <rect class="cls-2" x="2023.87" y="682.64" width="22.54" height="3.32" transform="translate(1350.85 2719.44) rotate(-90)"/>
        <rect class="cls-2" x="2027.19" y="682.64" width="22.54" height="3.32" transform="translate(1354.16 2722.76) rotate(-90)"/>
      </g>
      <g>
        <rect class="cls-2" x="1994.18" y="660.36" width="22.02" height="3.32" transform="translate(1343.17 2667.21) rotate(-90)"/>
        <rect class="cls-2" x="1997.51" y="660.36" width="22.02" height="3.32" transform="translate(1346.5 2670.54) rotate(-90)"/>
        <rect class="cls-2" x="2000.83" y="660.36" width="22.02" height="3.32" transform="translate(1349.82 2673.86) rotate(-90)"/>
        <rect class="cls-2" x="2004.16" y="660.36" width="22.02" height="3.32" transform="translate(1353.15 2677.19) rotate(-90)"/>
        <rect class="cls-2" x="2007.48" y="660.36" width="22.02" height="3.32" transform="translate(1356.47 2680.51) rotate(-90)"/>
        <rect class="cls-2" x="2010.82" y="660.36" width="22.02" height="3.32" transform="translate(1359.8 2683.84) rotate(-90)"/>
        <rect class="cls-2" x="2014.13" y="660.36" width="22.02" height="3.32" transform="translate(1363.12 2687.16) rotate(-90)"/>
        <rect class="cls-2" x="2017.47" y="660.36" width="22.02" height="3.32" transform="translate(1366.46 2690.49) rotate(-90)"/>
        <rect class="cls-2" x="2020.8" y="660.36" width="22.02" height="3.32" transform="translate(1369.79 2693.83) rotate(-90)"/>
        <rect class="cls-2" x="2024.14" y="660.36" width="22.02" height="3.32" transform="translate(1373.13 2697.16) rotate(-90)"/>
        <rect class="cls-2" x="2027.45" y="660.36" width="22.02" height="3.32" transform="translate(1376.44 2700.48) rotate(-90)"/>
      </g>
    </g>
    <g id="labels">
      <text class="cls-7" transform="translate(2084.44 1427.34)"><tspan x="0" y="0">Staff Room</tspan></text>
      <text class="cls-7" transform="translate(1893.54 1308.32)"><tspan x="0" y="0">201</tspan></text>
      <text class="cls-7" transform="translate(1806.56 1282.11)"><tspan x="0" y="0">202</tspan></text>
      <text class="cls-7" transform="translate(1709.05 1254.81)"><tspan x="0" y="0">203</tspan></text>
      <text class="cls-7" transform="translate(1610.71 1232.03)"><tspan x="0" y="0">204</tspan></text>
      <text class="cls-7" transform="translate(1509.56 1219.88)"><tspan x="0" y="0">205</tspan></text>
      <text class="cls-7" transform="translate(1418.15 1211.85)"><tspan x="0" y="0">206</tspan></text>
      <text class="cls-7" transform="translate(1361.91 1063.58)"><tspan x="0" y="0">207</tspan></text>
      <text class="cls-7" transform="translate(1462.03 1045.61)"><tspan x="0" y="0">Fem.</tspan><tspan x="0" y="12">WR</tspan></text>
      <text class="cls-7" transform="translate(1507.38 1051.5)"><tspan x="0" y="0">Male</tspan><tspan x="0" y="12">WR</tspan></text>
      <text class="cls-7" transform="translate(1580.56 1078.45)"><tspan x="0" y="0">212</tspan></text>
      <text class="cls-7" transform="translate(1683.19 1096.56)"><tspan x="0" y="0">213</tspan></text>
      <text class="cls-7" transform="translate(1780.66 1096.56)"><tspan x="0" y="0">214</tspan></text>
      <text class="cls-7" transform="translate(2150.89 1465.21)"><tspan x="0" y="0">Fem.</tspan><tspan x="0" y="12">WR</tspan></text>
      <text class="cls-7" transform="translate(2196.29 1486.7)"><tspan x="0" y="0">Male</tspan><tspan x="0" y="12">WR</tspan></text>
      <text class="cls-7" transform="translate(2263.73 1519.54)"><tspan x="0" y="0">220</tspan></text>
      <text class="cls-7" transform="translate(2337.24 1573.94)"><tspan x="0" y="0">221</tspan></text>
      <text class="cls-7" transform="translate(2416.18 1641.79)"><tspan x="0" y="0">222</tspan></text>
      <text class="cls-7" transform="translate(2480.73 1700.53)"><tspan x="0" y="0">223</tspan></text>
      <text class="cls-7" transform="translate(2652.5 1616.95)"><tspan x="0" y="0">224</tspan></text>
      <text class="cls-7" transform="translate(2527.22 1493.99)"><tspan x="0" y="0">225</tspan></text>
      <text class="cls-7" transform="translate(2433.14 1423.14)"><tspan x="0" y="0">226</tspan></text>
      <text class="cls-7" transform="translate(2304.82 1334.77)"><tspan x="0" y="0">227</tspan></text>
      <text class="cls-7" transform="translate(2206.1 1275.39)"><tspan x="0" y="0">228</tspan></text>
      <text class="cls-7" transform="translate(2206.1 1177.48)"><tspan x="0" y="0">229</tspan></text>
      <text class="cls-7" transform="translate(2206.1 1066.95)"><tspan x="0" y="0">230</tspan></text>
      <text class="cls-7" transform="translate(2206.1 914.11)"><tspan x="0" y="0">Weight</tspan><tspan x="0" y="12">Room</tspan><tspan x="0" y="24">231</tspan></text>
      <text class="cls-7" transform="translate(2206.1 783.36)"><tspan x="0" y="0">Fitness</tspan><tspan x="0" y="12">Room</tspan><tspan x="0" y="24">232</tspan></text>
      <text class="cls-7" transform="translate(2206.1 697.7)"><tspan x="0" y="0">233</tspan></text>
      <text class="cls-7" transform="translate(2161.01 1393.52)"><tspan x="0" y="0">WR</tspan></text>
      <text class="cls-7" transform="translate(1956.76 1185.86)"><tspan x="0" y="0">Atrium</tspan></text>
      <text class="cls-7" transform="translate(1952.99 870.09)"><tspan x="0" y="0">Gym 1</tspan></text>
      <text class="cls-7" transform="translate(1104.51 1175.28)"><tspan x="0" y="0">Library</tspan></text>
      <text class="cls-7" transform="translate(1241.37 814.35)"><tspan x="0" y="0">Drama Room</tspan></text>
      <text class="cls-7" transform="translate(2428.58 818.36)"><tspan x="0" y="0">Gym 2</tspan></text>
    </g>
    <circle class="cls-8" cx="2090.51" cy="1281.47" r="3.77"/>
  </g>
</svg>